G04 #@! TF.GenerationSoftware,KiCad,Pcbnew,(5.0.0)*
G04 #@! TF.CreationDate,2019-01-28T15:32:59+09:00*
G04 #@! TF.ProjectId,EDAMAMEv3,4544414D414D4576332E6B696361645F,rev?*
G04 #@! TF.SameCoordinates,Original*
G04 #@! TF.FileFunction,Soldermask,Top*
G04 #@! TF.FilePolarity,Negative*
%FSLAX46Y46*%
G04 Gerber Fmt 4.6, Leading zero omitted, Abs format (unit mm)*
G04 Created by KiCad (PCBNEW (5.0.0)) date 01/28/19 15:32:59*
%MOMM*%
%LPD*%
G01*
G04 APERTURE LIST*
%ADD10R,1.550000X0.600000*%
%ADD11C,1.524000*%
%ADD12R,1.350000X1.350000*%
%ADD13O,1.350000X1.350000*%
%ADD14R,1.700000X1.700000*%
%ADD15O,1.700000X1.700000*%
%ADD16R,2.500000X2.500000*%
%ADD17C,2.500000*%
%ADD18R,2.000000X1.700000*%
%ADD19O,2.000000X1.700000*%
%ADD20C,0.100000*%
%ADD21C,0.950000*%
%ADD22C,1.150000*%
%ADD23C,1.200000*%
%ADD24R,0.900000X0.800000*%
%ADD25R,1.400000X0.300000*%
%ADD26R,0.550000X0.200000*%
%ADD27R,0.200000X0.550000*%
%ADD28C,0.200000*%
%ADD29R,0.700000X1.200000*%
%ADD30R,1.000000X1.200000*%
%ADD31R,1.000000X0.800000*%
%ADD32R,1.000000X2.800000*%
%ADD33R,1.300000X1.900000*%
%ADD34R,1.700000X1.950000*%
%ADD35O,1.700000X1.950000*%
%ADD36O,3.000000X2.000000*%
%ADD37O,2.200000X1.300000*%
G04 APERTURE END LIST*
D10*
G04 #@! TO.C,Q2*
X85800000Y-29395000D03*
X85800000Y-30665000D03*
X85800000Y-31935000D03*
X85800000Y-33205000D03*
X80400000Y-33205000D03*
X80400000Y-31935000D03*
X80400000Y-30665000D03*
X80400000Y-29395000D03*
G04 #@! TD*
D11*
G04 #@! TO.C,J4*
X51165000Y-53560000D03*
X53705000Y-53560000D03*
X75295000Y-53560000D03*
X77835000Y-53560000D03*
G04 #@! TD*
D12*
G04 #@! TO.C,J5*
X62500000Y-34000000D03*
D13*
X64500000Y-34000000D03*
X66500000Y-34000000D03*
X68500000Y-34000000D03*
G04 #@! TD*
D14*
G04 #@! TO.C,J3*
X30000000Y-26600000D03*
D15*
X30000000Y-24060000D03*
G04 #@! TD*
D16*
G04 #@! TO.C,P6*
X90708000Y-30692000D03*
D17*
X95788000Y-30692000D03*
G04 #@! TD*
D18*
G04 #@! TO.C,P4*
X80714000Y-42000000D03*
D19*
X80714000Y-39500000D03*
G04 #@! TD*
G04 #@! TO.C,P5*
X48200000Y-43000000D03*
D18*
X48200000Y-40500000D03*
G04 #@! TD*
D20*
G04 #@! TO.C,C2*
G36*
X62435779Y-27226144D02*
X62458834Y-27229563D01*
X62481443Y-27235227D01*
X62503387Y-27243079D01*
X62524457Y-27253044D01*
X62544448Y-27265026D01*
X62563168Y-27278910D01*
X62580438Y-27294562D01*
X62596090Y-27311832D01*
X62609974Y-27330552D01*
X62621956Y-27350543D01*
X62631921Y-27371613D01*
X62639773Y-27393557D01*
X62645437Y-27416166D01*
X62648856Y-27439221D01*
X62650000Y-27462500D01*
X62650000Y-27937500D01*
X62648856Y-27960779D01*
X62645437Y-27983834D01*
X62639773Y-28006443D01*
X62631921Y-28028387D01*
X62621956Y-28049457D01*
X62609974Y-28069448D01*
X62596090Y-28088168D01*
X62580438Y-28105438D01*
X62563168Y-28121090D01*
X62544448Y-28134974D01*
X62524457Y-28146956D01*
X62503387Y-28156921D01*
X62481443Y-28164773D01*
X62458834Y-28170437D01*
X62435779Y-28173856D01*
X62412500Y-28175000D01*
X61837500Y-28175000D01*
X61814221Y-28173856D01*
X61791166Y-28170437D01*
X61768557Y-28164773D01*
X61746613Y-28156921D01*
X61725543Y-28146956D01*
X61705552Y-28134974D01*
X61686832Y-28121090D01*
X61669562Y-28105438D01*
X61653910Y-28088168D01*
X61640026Y-28069448D01*
X61628044Y-28049457D01*
X61618079Y-28028387D01*
X61610227Y-28006443D01*
X61604563Y-27983834D01*
X61601144Y-27960779D01*
X61600000Y-27937500D01*
X61600000Y-27462500D01*
X61601144Y-27439221D01*
X61604563Y-27416166D01*
X61610227Y-27393557D01*
X61618079Y-27371613D01*
X61628044Y-27350543D01*
X61640026Y-27330552D01*
X61653910Y-27311832D01*
X61669562Y-27294562D01*
X61686832Y-27278910D01*
X61705552Y-27265026D01*
X61725543Y-27253044D01*
X61746613Y-27243079D01*
X61768557Y-27235227D01*
X61791166Y-27229563D01*
X61814221Y-27226144D01*
X61837500Y-27225000D01*
X62412500Y-27225000D01*
X62435779Y-27226144D01*
X62435779Y-27226144D01*
G37*
D21*
X62125000Y-27700000D03*
D20*
G36*
X60685779Y-27226144D02*
X60708834Y-27229563D01*
X60731443Y-27235227D01*
X60753387Y-27243079D01*
X60774457Y-27253044D01*
X60794448Y-27265026D01*
X60813168Y-27278910D01*
X60830438Y-27294562D01*
X60846090Y-27311832D01*
X60859974Y-27330552D01*
X60871956Y-27350543D01*
X60881921Y-27371613D01*
X60889773Y-27393557D01*
X60895437Y-27416166D01*
X60898856Y-27439221D01*
X60900000Y-27462500D01*
X60900000Y-27937500D01*
X60898856Y-27960779D01*
X60895437Y-27983834D01*
X60889773Y-28006443D01*
X60881921Y-28028387D01*
X60871956Y-28049457D01*
X60859974Y-28069448D01*
X60846090Y-28088168D01*
X60830438Y-28105438D01*
X60813168Y-28121090D01*
X60794448Y-28134974D01*
X60774457Y-28146956D01*
X60753387Y-28156921D01*
X60731443Y-28164773D01*
X60708834Y-28170437D01*
X60685779Y-28173856D01*
X60662500Y-28175000D01*
X60087500Y-28175000D01*
X60064221Y-28173856D01*
X60041166Y-28170437D01*
X60018557Y-28164773D01*
X59996613Y-28156921D01*
X59975543Y-28146956D01*
X59955552Y-28134974D01*
X59936832Y-28121090D01*
X59919562Y-28105438D01*
X59903910Y-28088168D01*
X59890026Y-28069448D01*
X59878044Y-28049457D01*
X59868079Y-28028387D01*
X59860227Y-28006443D01*
X59854563Y-27983834D01*
X59851144Y-27960779D01*
X59850000Y-27937500D01*
X59850000Y-27462500D01*
X59851144Y-27439221D01*
X59854563Y-27416166D01*
X59860227Y-27393557D01*
X59868079Y-27371613D01*
X59878044Y-27350543D01*
X59890026Y-27330552D01*
X59903910Y-27311832D01*
X59919562Y-27294562D01*
X59936832Y-27278910D01*
X59955552Y-27265026D01*
X59975543Y-27253044D01*
X59996613Y-27243079D01*
X60018557Y-27235227D01*
X60041166Y-27229563D01*
X60064221Y-27226144D01*
X60087500Y-27225000D01*
X60662500Y-27225000D01*
X60685779Y-27226144D01*
X60685779Y-27226144D01*
G37*
D21*
X60375000Y-27700000D03*
G04 #@! TD*
D20*
G04 #@! TO.C,C3*
G36*
X51185779Y-36276144D02*
X51208834Y-36279563D01*
X51231443Y-36285227D01*
X51253387Y-36293079D01*
X51274457Y-36303044D01*
X51294448Y-36315026D01*
X51313168Y-36328910D01*
X51330438Y-36344562D01*
X51346090Y-36361832D01*
X51359974Y-36380552D01*
X51371956Y-36400543D01*
X51381921Y-36421613D01*
X51389773Y-36443557D01*
X51395437Y-36466166D01*
X51398856Y-36489221D01*
X51400000Y-36512500D01*
X51400000Y-36987500D01*
X51398856Y-37010779D01*
X51395437Y-37033834D01*
X51389773Y-37056443D01*
X51381921Y-37078387D01*
X51371956Y-37099457D01*
X51359974Y-37119448D01*
X51346090Y-37138168D01*
X51330438Y-37155438D01*
X51313168Y-37171090D01*
X51294448Y-37184974D01*
X51274457Y-37196956D01*
X51253387Y-37206921D01*
X51231443Y-37214773D01*
X51208834Y-37220437D01*
X51185779Y-37223856D01*
X51162500Y-37225000D01*
X50587500Y-37225000D01*
X50564221Y-37223856D01*
X50541166Y-37220437D01*
X50518557Y-37214773D01*
X50496613Y-37206921D01*
X50475543Y-37196956D01*
X50455552Y-37184974D01*
X50436832Y-37171090D01*
X50419562Y-37155438D01*
X50403910Y-37138168D01*
X50390026Y-37119448D01*
X50378044Y-37099457D01*
X50368079Y-37078387D01*
X50360227Y-37056443D01*
X50354563Y-37033834D01*
X50351144Y-37010779D01*
X50350000Y-36987500D01*
X50350000Y-36512500D01*
X50351144Y-36489221D01*
X50354563Y-36466166D01*
X50360227Y-36443557D01*
X50368079Y-36421613D01*
X50378044Y-36400543D01*
X50390026Y-36380552D01*
X50403910Y-36361832D01*
X50419562Y-36344562D01*
X50436832Y-36328910D01*
X50455552Y-36315026D01*
X50475543Y-36303044D01*
X50496613Y-36293079D01*
X50518557Y-36285227D01*
X50541166Y-36279563D01*
X50564221Y-36276144D01*
X50587500Y-36275000D01*
X51162500Y-36275000D01*
X51185779Y-36276144D01*
X51185779Y-36276144D01*
G37*
D21*
X50875000Y-36750000D03*
D20*
G36*
X49435779Y-36276144D02*
X49458834Y-36279563D01*
X49481443Y-36285227D01*
X49503387Y-36293079D01*
X49524457Y-36303044D01*
X49544448Y-36315026D01*
X49563168Y-36328910D01*
X49580438Y-36344562D01*
X49596090Y-36361832D01*
X49609974Y-36380552D01*
X49621956Y-36400543D01*
X49631921Y-36421613D01*
X49639773Y-36443557D01*
X49645437Y-36466166D01*
X49648856Y-36489221D01*
X49650000Y-36512500D01*
X49650000Y-36987500D01*
X49648856Y-37010779D01*
X49645437Y-37033834D01*
X49639773Y-37056443D01*
X49631921Y-37078387D01*
X49621956Y-37099457D01*
X49609974Y-37119448D01*
X49596090Y-37138168D01*
X49580438Y-37155438D01*
X49563168Y-37171090D01*
X49544448Y-37184974D01*
X49524457Y-37196956D01*
X49503387Y-37206921D01*
X49481443Y-37214773D01*
X49458834Y-37220437D01*
X49435779Y-37223856D01*
X49412500Y-37225000D01*
X48837500Y-37225000D01*
X48814221Y-37223856D01*
X48791166Y-37220437D01*
X48768557Y-37214773D01*
X48746613Y-37206921D01*
X48725543Y-37196956D01*
X48705552Y-37184974D01*
X48686832Y-37171090D01*
X48669562Y-37155438D01*
X48653910Y-37138168D01*
X48640026Y-37119448D01*
X48628044Y-37099457D01*
X48618079Y-37078387D01*
X48610227Y-37056443D01*
X48604563Y-37033834D01*
X48601144Y-37010779D01*
X48600000Y-36987500D01*
X48600000Y-36512500D01*
X48601144Y-36489221D01*
X48604563Y-36466166D01*
X48610227Y-36443557D01*
X48618079Y-36421613D01*
X48628044Y-36400543D01*
X48640026Y-36380552D01*
X48653910Y-36361832D01*
X48669562Y-36344562D01*
X48686832Y-36328910D01*
X48705552Y-36315026D01*
X48725543Y-36303044D01*
X48746613Y-36293079D01*
X48768557Y-36285227D01*
X48791166Y-36279563D01*
X48814221Y-36276144D01*
X48837500Y-36275000D01*
X49412500Y-36275000D01*
X49435779Y-36276144D01*
X49435779Y-36276144D01*
G37*
D21*
X49125000Y-36750000D03*
G04 #@! TD*
D20*
G04 #@! TO.C,C4*
G36*
X60685779Y-25726144D02*
X60708834Y-25729563D01*
X60731443Y-25735227D01*
X60753387Y-25743079D01*
X60774457Y-25753044D01*
X60794448Y-25765026D01*
X60813168Y-25778910D01*
X60830438Y-25794562D01*
X60846090Y-25811832D01*
X60859974Y-25830552D01*
X60871956Y-25850543D01*
X60881921Y-25871613D01*
X60889773Y-25893557D01*
X60895437Y-25916166D01*
X60898856Y-25939221D01*
X60900000Y-25962500D01*
X60900000Y-26437500D01*
X60898856Y-26460779D01*
X60895437Y-26483834D01*
X60889773Y-26506443D01*
X60881921Y-26528387D01*
X60871956Y-26549457D01*
X60859974Y-26569448D01*
X60846090Y-26588168D01*
X60830438Y-26605438D01*
X60813168Y-26621090D01*
X60794448Y-26634974D01*
X60774457Y-26646956D01*
X60753387Y-26656921D01*
X60731443Y-26664773D01*
X60708834Y-26670437D01*
X60685779Y-26673856D01*
X60662500Y-26675000D01*
X60087500Y-26675000D01*
X60064221Y-26673856D01*
X60041166Y-26670437D01*
X60018557Y-26664773D01*
X59996613Y-26656921D01*
X59975543Y-26646956D01*
X59955552Y-26634974D01*
X59936832Y-26621090D01*
X59919562Y-26605438D01*
X59903910Y-26588168D01*
X59890026Y-26569448D01*
X59878044Y-26549457D01*
X59868079Y-26528387D01*
X59860227Y-26506443D01*
X59854563Y-26483834D01*
X59851144Y-26460779D01*
X59850000Y-26437500D01*
X59850000Y-25962500D01*
X59851144Y-25939221D01*
X59854563Y-25916166D01*
X59860227Y-25893557D01*
X59868079Y-25871613D01*
X59878044Y-25850543D01*
X59890026Y-25830552D01*
X59903910Y-25811832D01*
X59919562Y-25794562D01*
X59936832Y-25778910D01*
X59955552Y-25765026D01*
X59975543Y-25753044D01*
X59996613Y-25743079D01*
X60018557Y-25735227D01*
X60041166Y-25729563D01*
X60064221Y-25726144D01*
X60087500Y-25725000D01*
X60662500Y-25725000D01*
X60685779Y-25726144D01*
X60685779Y-25726144D01*
G37*
D21*
X60375000Y-26200000D03*
D20*
G36*
X62435779Y-25726144D02*
X62458834Y-25729563D01*
X62481443Y-25735227D01*
X62503387Y-25743079D01*
X62524457Y-25753044D01*
X62544448Y-25765026D01*
X62563168Y-25778910D01*
X62580438Y-25794562D01*
X62596090Y-25811832D01*
X62609974Y-25830552D01*
X62621956Y-25850543D01*
X62631921Y-25871613D01*
X62639773Y-25893557D01*
X62645437Y-25916166D01*
X62648856Y-25939221D01*
X62650000Y-25962500D01*
X62650000Y-26437500D01*
X62648856Y-26460779D01*
X62645437Y-26483834D01*
X62639773Y-26506443D01*
X62631921Y-26528387D01*
X62621956Y-26549457D01*
X62609974Y-26569448D01*
X62596090Y-26588168D01*
X62580438Y-26605438D01*
X62563168Y-26621090D01*
X62544448Y-26634974D01*
X62524457Y-26646956D01*
X62503387Y-26656921D01*
X62481443Y-26664773D01*
X62458834Y-26670437D01*
X62435779Y-26673856D01*
X62412500Y-26675000D01*
X61837500Y-26675000D01*
X61814221Y-26673856D01*
X61791166Y-26670437D01*
X61768557Y-26664773D01*
X61746613Y-26656921D01*
X61725543Y-26646956D01*
X61705552Y-26634974D01*
X61686832Y-26621090D01*
X61669562Y-26605438D01*
X61653910Y-26588168D01*
X61640026Y-26569448D01*
X61628044Y-26549457D01*
X61618079Y-26528387D01*
X61610227Y-26506443D01*
X61604563Y-26483834D01*
X61601144Y-26460779D01*
X61600000Y-26437500D01*
X61600000Y-25962500D01*
X61601144Y-25939221D01*
X61604563Y-25916166D01*
X61610227Y-25893557D01*
X61618079Y-25871613D01*
X61628044Y-25850543D01*
X61640026Y-25830552D01*
X61653910Y-25811832D01*
X61669562Y-25794562D01*
X61686832Y-25778910D01*
X61705552Y-25765026D01*
X61725543Y-25753044D01*
X61746613Y-25743079D01*
X61768557Y-25735227D01*
X61791166Y-25729563D01*
X61814221Y-25726144D01*
X61837500Y-25725000D01*
X62412500Y-25725000D01*
X62435779Y-25726144D01*
X62435779Y-25726144D01*
G37*
D21*
X62125000Y-26200000D03*
G04 #@! TD*
D20*
G04 #@! TO.C,C8*
G36*
X62474505Y-37401204D02*
X62498773Y-37404804D01*
X62522572Y-37410765D01*
X62545671Y-37419030D01*
X62567850Y-37429520D01*
X62588893Y-37442132D01*
X62608599Y-37456747D01*
X62626777Y-37473223D01*
X62643253Y-37491401D01*
X62657868Y-37511107D01*
X62670480Y-37532150D01*
X62680970Y-37554329D01*
X62689235Y-37577428D01*
X62695196Y-37601227D01*
X62698796Y-37625495D01*
X62700000Y-37649999D01*
X62700000Y-38300001D01*
X62698796Y-38324505D01*
X62695196Y-38348773D01*
X62689235Y-38372572D01*
X62680970Y-38395671D01*
X62670480Y-38417850D01*
X62657868Y-38438893D01*
X62643253Y-38458599D01*
X62626777Y-38476777D01*
X62608599Y-38493253D01*
X62588893Y-38507868D01*
X62567850Y-38520480D01*
X62545671Y-38530970D01*
X62522572Y-38539235D01*
X62498773Y-38545196D01*
X62474505Y-38548796D01*
X62450001Y-38550000D01*
X61549999Y-38550000D01*
X61525495Y-38548796D01*
X61501227Y-38545196D01*
X61477428Y-38539235D01*
X61454329Y-38530970D01*
X61432150Y-38520480D01*
X61411107Y-38507868D01*
X61391401Y-38493253D01*
X61373223Y-38476777D01*
X61356747Y-38458599D01*
X61342132Y-38438893D01*
X61329520Y-38417850D01*
X61319030Y-38395671D01*
X61310765Y-38372572D01*
X61304804Y-38348773D01*
X61301204Y-38324505D01*
X61300000Y-38300001D01*
X61300000Y-37649999D01*
X61301204Y-37625495D01*
X61304804Y-37601227D01*
X61310765Y-37577428D01*
X61319030Y-37554329D01*
X61329520Y-37532150D01*
X61342132Y-37511107D01*
X61356747Y-37491401D01*
X61373223Y-37473223D01*
X61391401Y-37456747D01*
X61411107Y-37442132D01*
X61432150Y-37429520D01*
X61454329Y-37419030D01*
X61477428Y-37410765D01*
X61501227Y-37404804D01*
X61525495Y-37401204D01*
X61549999Y-37400000D01*
X62450001Y-37400000D01*
X62474505Y-37401204D01*
X62474505Y-37401204D01*
G37*
D22*
X62000000Y-37975000D03*
D20*
G36*
X62474505Y-39451204D02*
X62498773Y-39454804D01*
X62522572Y-39460765D01*
X62545671Y-39469030D01*
X62567850Y-39479520D01*
X62588893Y-39492132D01*
X62608599Y-39506747D01*
X62626777Y-39523223D01*
X62643253Y-39541401D01*
X62657868Y-39561107D01*
X62670480Y-39582150D01*
X62680970Y-39604329D01*
X62689235Y-39627428D01*
X62695196Y-39651227D01*
X62698796Y-39675495D01*
X62700000Y-39699999D01*
X62700000Y-40350001D01*
X62698796Y-40374505D01*
X62695196Y-40398773D01*
X62689235Y-40422572D01*
X62680970Y-40445671D01*
X62670480Y-40467850D01*
X62657868Y-40488893D01*
X62643253Y-40508599D01*
X62626777Y-40526777D01*
X62608599Y-40543253D01*
X62588893Y-40557868D01*
X62567850Y-40570480D01*
X62545671Y-40580970D01*
X62522572Y-40589235D01*
X62498773Y-40595196D01*
X62474505Y-40598796D01*
X62450001Y-40600000D01*
X61549999Y-40600000D01*
X61525495Y-40598796D01*
X61501227Y-40595196D01*
X61477428Y-40589235D01*
X61454329Y-40580970D01*
X61432150Y-40570480D01*
X61411107Y-40557868D01*
X61391401Y-40543253D01*
X61373223Y-40526777D01*
X61356747Y-40508599D01*
X61342132Y-40488893D01*
X61329520Y-40467850D01*
X61319030Y-40445671D01*
X61310765Y-40422572D01*
X61304804Y-40398773D01*
X61301204Y-40374505D01*
X61300000Y-40350001D01*
X61300000Y-39699999D01*
X61301204Y-39675495D01*
X61304804Y-39651227D01*
X61310765Y-39627428D01*
X61319030Y-39604329D01*
X61329520Y-39582150D01*
X61342132Y-39561107D01*
X61356747Y-39541401D01*
X61373223Y-39523223D01*
X61391401Y-39506747D01*
X61411107Y-39492132D01*
X61432150Y-39479520D01*
X61454329Y-39469030D01*
X61477428Y-39460765D01*
X61501227Y-39454804D01*
X61525495Y-39451204D01*
X61549999Y-39450000D01*
X62450001Y-39450000D01*
X62474505Y-39451204D01*
X62474505Y-39451204D01*
G37*
D22*
X62000000Y-40025000D03*
G04 #@! TD*
D20*
G04 #@! TO.C,C9*
G36*
X67260779Y-39351144D02*
X67283834Y-39354563D01*
X67306443Y-39360227D01*
X67328387Y-39368079D01*
X67349457Y-39378044D01*
X67369448Y-39390026D01*
X67388168Y-39403910D01*
X67405438Y-39419562D01*
X67421090Y-39436832D01*
X67434974Y-39455552D01*
X67446956Y-39475543D01*
X67456921Y-39496613D01*
X67464773Y-39518557D01*
X67470437Y-39541166D01*
X67473856Y-39564221D01*
X67475000Y-39587500D01*
X67475000Y-40162500D01*
X67473856Y-40185779D01*
X67470437Y-40208834D01*
X67464773Y-40231443D01*
X67456921Y-40253387D01*
X67446956Y-40274457D01*
X67434974Y-40294448D01*
X67421090Y-40313168D01*
X67405438Y-40330438D01*
X67388168Y-40346090D01*
X67369448Y-40359974D01*
X67349457Y-40371956D01*
X67328387Y-40381921D01*
X67306443Y-40389773D01*
X67283834Y-40395437D01*
X67260779Y-40398856D01*
X67237500Y-40400000D01*
X66762500Y-40400000D01*
X66739221Y-40398856D01*
X66716166Y-40395437D01*
X66693557Y-40389773D01*
X66671613Y-40381921D01*
X66650543Y-40371956D01*
X66630552Y-40359974D01*
X66611832Y-40346090D01*
X66594562Y-40330438D01*
X66578910Y-40313168D01*
X66565026Y-40294448D01*
X66553044Y-40274457D01*
X66543079Y-40253387D01*
X66535227Y-40231443D01*
X66529563Y-40208834D01*
X66526144Y-40185779D01*
X66525000Y-40162500D01*
X66525000Y-39587500D01*
X66526144Y-39564221D01*
X66529563Y-39541166D01*
X66535227Y-39518557D01*
X66543079Y-39496613D01*
X66553044Y-39475543D01*
X66565026Y-39455552D01*
X66578910Y-39436832D01*
X66594562Y-39419562D01*
X66611832Y-39403910D01*
X66630552Y-39390026D01*
X66650543Y-39378044D01*
X66671613Y-39368079D01*
X66693557Y-39360227D01*
X66716166Y-39354563D01*
X66739221Y-39351144D01*
X66762500Y-39350000D01*
X67237500Y-39350000D01*
X67260779Y-39351144D01*
X67260779Y-39351144D01*
G37*
D21*
X67000000Y-39875000D03*
D20*
G36*
X67260779Y-37601144D02*
X67283834Y-37604563D01*
X67306443Y-37610227D01*
X67328387Y-37618079D01*
X67349457Y-37628044D01*
X67369448Y-37640026D01*
X67388168Y-37653910D01*
X67405438Y-37669562D01*
X67421090Y-37686832D01*
X67434974Y-37705552D01*
X67446956Y-37725543D01*
X67456921Y-37746613D01*
X67464773Y-37768557D01*
X67470437Y-37791166D01*
X67473856Y-37814221D01*
X67475000Y-37837500D01*
X67475000Y-38412500D01*
X67473856Y-38435779D01*
X67470437Y-38458834D01*
X67464773Y-38481443D01*
X67456921Y-38503387D01*
X67446956Y-38524457D01*
X67434974Y-38544448D01*
X67421090Y-38563168D01*
X67405438Y-38580438D01*
X67388168Y-38596090D01*
X67369448Y-38609974D01*
X67349457Y-38621956D01*
X67328387Y-38631921D01*
X67306443Y-38639773D01*
X67283834Y-38645437D01*
X67260779Y-38648856D01*
X67237500Y-38650000D01*
X66762500Y-38650000D01*
X66739221Y-38648856D01*
X66716166Y-38645437D01*
X66693557Y-38639773D01*
X66671613Y-38631921D01*
X66650543Y-38621956D01*
X66630552Y-38609974D01*
X66611832Y-38596090D01*
X66594562Y-38580438D01*
X66578910Y-38563168D01*
X66565026Y-38544448D01*
X66553044Y-38524457D01*
X66543079Y-38503387D01*
X66535227Y-38481443D01*
X66529563Y-38458834D01*
X66526144Y-38435779D01*
X66525000Y-38412500D01*
X66525000Y-37837500D01*
X66526144Y-37814221D01*
X66529563Y-37791166D01*
X66535227Y-37768557D01*
X66543079Y-37746613D01*
X66553044Y-37725543D01*
X66565026Y-37705552D01*
X66578910Y-37686832D01*
X66594562Y-37669562D01*
X66611832Y-37653910D01*
X66630552Y-37640026D01*
X66650543Y-37628044D01*
X66671613Y-37618079D01*
X66693557Y-37610227D01*
X66716166Y-37604563D01*
X66739221Y-37601144D01*
X66762500Y-37600000D01*
X67237500Y-37600000D01*
X67260779Y-37601144D01*
X67260779Y-37601144D01*
G37*
D21*
X67000000Y-38125000D03*
G04 #@! TD*
D20*
G04 #@! TO.C,C11*
G36*
X40960779Y-55901144D02*
X40983834Y-55904563D01*
X41006443Y-55910227D01*
X41028387Y-55918079D01*
X41049457Y-55928044D01*
X41069448Y-55940026D01*
X41088168Y-55953910D01*
X41105438Y-55969562D01*
X41121090Y-55986832D01*
X41134974Y-56005552D01*
X41146956Y-56025543D01*
X41156921Y-56046613D01*
X41164773Y-56068557D01*
X41170437Y-56091166D01*
X41173856Y-56114221D01*
X41175000Y-56137500D01*
X41175000Y-56712500D01*
X41173856Y-56735779D01*
X41170437Y-56758834D01*
X41164773Y-56781443D01*
X41156921Y-56803387D01*
X41146956Y-56824457D01*
X41134974Y-56844448D01*
X41121090Y-56863168D01*
X41105438Y-56880438D01*
X41088168Y-56896090D01*
X41069448Y-56909974D01*
X41049457Y-56921956D01*
X41028387Y-56931921D01*
X41006443Y-56939773D01*
X40983834Y-56945437D01*
X40960779Y-56948856D01*
X40937500Y-56950000D01*
X40462500Y-56950000D01*
X40439221Y-56948856D01*
X40416166Y-56945437D01*
X40393557Y-56939773D01*
X40371613Y-56931921D01*
X40350543Y-56921956D01*
X40330552Y-56909974D01*
X40311832Y-56896090D01*
X40294562Y-56880438D01*
X40278910Y-56863168D01*
X40265026Y-56844448D01*
X40253044Y-56824457D01*
X40243079Y-56803387D01*
X40235227Y-56781443D01*
X40229563Y-56758834D01*
X40226144Y-56735779D01*
X40225000Y-56712500D01*
X40225000Y-56137500D01*
X40226144Y-56114221D01*
X40229563Y-56091166D01*
X40235227Y-56068557D01*
X40243079Y-56046613D01*
X40253044Y-56025543D01*
X40265026Y-56005552D01*
X40278910Y-55986832D01*
X40294562Y-55969562D01*
X40311832Y-55953910D01*
X40330552Y-55940026D01*
X40350543Y-55928044D01*
X40371613Y-55918079D01*
X40393557Y-55910227D01*
X40416166Y-55904563D01*
X40439221Y-55901144D01*
X40462500Y-55900000D01*
X40937500Y-55900000D01*
X40960779Y-55901144D01*
X40960779Y-55901144D01*
G37*
D21*
X40700000Y-56425000D03*
D20*
G36*
X40960779Y-57651144D02*
X40983834Y-57654563D01*
X41006443Y-57660227D01*
X41028387Y-57668079D01*
X41049457Y-57678044D01*
X41069448Y-57690026D01*
X41088168Y-57703910D01*
X41105438Y-57719562D01*
X41121090Y-57736832D01*
X41134974Y-57755552D01*
X41146956Y-57775543D01*
X41156921Y-57796613D01*
X41164773Y-57818557D01*
X41170437Y-57841166D01*
X41173856Y-57864221D01*
X41175000Y-57887500D01*
X41175000Y-58462500D01*
X41173856Y-58485779D01*
X41170437Y-58508834D01*
X41164773Y-58531443D01*
X41156921Y-58553387D01*
X41146956Y-58574457D01*
X41134974Y-58594448D01*
X41121090Y-58613168D01*
X41105438Y-58630438D01*
X41088168Y-58646090D01*
X41069448Y-58659974D01*
X41049457Y-58671956D01*
X41028387Y-58681921D01*
X41006443Y-58689773D01*
X40983834Y-58695437D01*
X40960779Y-58698856D01*
X40937500Y-58700000D01*
X40462500Y-58700000D01*
X40439221Y-58698856D01*
X40416166Y-58695437D01*
X40393557Y-58689773D01*
X40371613Y-58681921D01*
X40350543Y-58671956D01*
X40330552Y-58659974D01*
X40311832Y-58646090D01*
X40294562Y-58630438D01*
X40278910Y-58613168D01*
X40265026Y-58594448D01*
X40253044Y-58574457D01*
X40243079Y-58553387D01*
X40235227Y-58531443D01*
X40229563Y-58508834D01*
X40226144Y-58485779D01*
X40225000Y-58462500D01*
X40225000Y-57887500D01*
X40226144Y-57864221D01*
X40229563Y-57841166D01*
X40235227Y-57818557D01*
X40243079Y-57796613D01*
X40253044Y-57775543D01*
X40265026Y-57755552D01*
X40278910Y-57736832D01*
X40294562Y-57719562D01*
X40311832Y-57703910D01*
X40330552Y-57690026D01*
X40350543Y-57678044D01*
X40371613Y-57668079D01*
X40393557Y-57660227D01*
X40416166Y-57654563D01*
X40439221Y-57651144D01*
X40462500Y-57650000D01*
X40937500Y-57650000D01*
X40960779Y-57651144D01*
X40960779Y-57651144D01*
G37*
D21*
X40700000Y-58175000D03*
G04 #@! TD*
D20*
G04 #@! TO.C,C12*
G36*
X45335779Y-54026144D02*
X45358834Y-54029563D01*
X45381443Y-54035227D01*
X45403387Y-54043079D01*
X45424457Y-54053044D01*
X45444448Y-54065026D01*
X45463168Y-54078910D01*
X45480438Y-54094562D01*
X45496090Y-54111832D01*
X45509974Y-54130552D01*
X45521956Y-54150543D01*
X45531921Y-54171613D01*
X45539773Y-54193557D01*
X45545437Y-54216166D01*
X45548856Y-54239221D01*
X45550000Y-54262500D01*
X45550000Y-54737500D01*
X45548856Y-54760779D01*
X45545437Y-54783834D01*
X45539773Y-54806443D01*
X45531921Y-54828387D01*
X45521956Y-54849457D01*
X45509974Y-54869448D01*
X45496090Y-54888168D01*
X45480438Y-54905438D01*
X45463168Y-54921090D01*
X45444448Y-54934974D01*
X45424457Y-54946956D01*
X45403387Y-54956921D01*
X45381443Y-54964773D01*
X45358834Y-54970437D01*
X45335779Y-54973856D01*
X45312500Y-54975000D01*
X44737500Y-54975000D01*
X44714221Y-54973856D01*
X44691166Y-54970437D01*
X44668557Y-54964773D01*
X44646613Y-54956921D01*
X44625543Y-54946956D01*
X44605552Y-54934974D01*
X44586832Y-54921090D01*
X44569562Y-54905438D01*
X44553910Y-54888168D01*
X44540026Y-54869448D01*
X44528044Y-54849457D01*
X44518079Y-54828387D01*
X44510227Y-54806443D01*
X44504563Y-54783834D01*
X44501144Y-54760779D01*
X44500000Y-54737500D01*
X44500000Y-54262500D01*
X44501144Y-54239221D01*
X44504563Y-54216166D01*
X44510227Y-54193557D01*
X44518079Y-54171613D01*
X44528044Y-54150543D01*
X44540026Y-54130552D01*
X44553910Y-54111832D01*
X44569562Y-54094562D01*
X44586832Y-54078910D01*
X44605552Y-54065026D01*
X44625543Y-54053044D01*
X44646613Y-54043079D01*
X44668557Y-54035227D01*
X44691166Y-54029563D01*
X44714221Y-54026144D01*
X44737500Y-54025000D01*
X45312500Y-54025000D01*
X45335779Y-54026144D01*
X45335779Y-54026144D01*
G37*
D21*
X45025000Y-54500000D03*
D20*
G36*
X47085779Y-54026144D02*
X47108834Y-54029563D01*
X47131443Y-54035227D01*
X47153387Y-54043079D01*
X47174457Y-54053044D01*
X47194448Y-54065026D01*
X47213168Y-54078910D01*
X47230438Y-54094562D01*
X47246090Y-54111832D01*
X47259974Y-54130552D01*
X47271956Y-54150543D01*
X47281921Y-54171613D01*
X47289773Y-54193557D01*
X47295437Y-54216166D01*
X47298856Y-54239221D01*
X47300000Y-54262500D01*
X47300000Y-54737500D01*
X47298856Y-54760779D01*
X47295437Y-54783834D01*
X47289773Y-54806443D01*
X47281921Y-54828387D01*
X47271956Y-54849457D01*
X47259974Y-54869448D01*
X47246090Y-54888168D01*
X47230438Y-54905438D01*
X47213168Y-54921090D01*
X47194448Y-54934974D01*
X47174457Y-54946956D01*
X47153387Y-54956921D01*
X47131443Y-54964773D01*
X47108834Y-54970437D01*
X47085779Y-54973856D01*
X47062500Y-54975000D01*
X46487500Y-54975000D01*
X46464221Y-54973856D01*
X46441166Y-54970437D01*
X46418557Y-54964773D01*
X46396613Y-54956921D01*
X46375543Y-54946956D01*
X46355552Y-54934974D01*
X46336832Y-54921090D01*
X46319562Y-54905438D01*
X46303910Y-54888168D01*
X46290026Y-54869448D01*
X46278044Y-54849457D01*
X46268079Y-54828387D01*
X46260227Y-54806443D01*
X46254563Y-54783834D01*
X46251144Y-54760779D01*
X46250000Y-54737500D01*
X46250000Y-54262500D01*
X46251144Y-54239221D01*
X46254563Y-54216166D01*
X46260227Y-54193557D01*
X46268079Y-54171613D01*
X46278044Y-54150543D01*
X46290026Y-54130552D01*
X46303910Y-54111832D01*
X46319562Y-54094562D01*
X46336832Y-54078910D01*
X46355552Y-54065026D01*
X46375543Y-54053044D01*
X46396613Y-54043079D01*
X46418557Y-54035227D01*
X46441166Y-54029563D01*
X46464221Y-54026144D01*
X46487500Y-54025000D01*
X47062500Y-54025000D01*
X47085779Y-54026144D01*
X47085779Y-54026144D01*
G37*
D21*
X46775000Y-54500000D03*
G04 #@! TD*
D20*
G04 #@! TO.C,C13*
G36*
X61760779Y-20101144D02*
X61783834Y-20104563D01*
X61806443Y-20110227D01*
X61828387Y-20118079D01*
X61849457Y-20128044D01*
X61869448Y-20140026D01*
X61888168Y-20153910D01*
X61905438Y-20169562D01*
X61921090Y-20186832D01*
X61934974Y-20205552D01*
X61946956Y-20225543D01*
X61956921Y-20246613D01*
X61964773Y-20268557D01*
X61970437Y-20291166D01*
X61973856Y-20314221D01*
X61975000Y-20337500D01*
X61975000Y-20912500D01*
X61973856Y-20935779D01*
X61970437Y-20958834D01*
X61964773Y-20981443D01*
X61956921Y-21003387D01*
X61946956Y-21024457D01*
X61934974Y-21044448D01*
X61921090Y-21063168D01*
X61905438Y-21080438D01*
X61888168Y-21096090D01*
X61869448Y-21109974D01*
X61849457Y-21121956D01*
X61828387Y-21131921D01*
X61806443Y-21139773D01*
X61783834Y-21145437D01*
X61760779Y-21148856D01*
X61737500Y-21150000D01*
X61262500Y-21150000D01*
X61239221Y-21148856D01*
X61216166Y-21145437D01*
X61193557Y-21139773D01*
X61171613Y-21131921D01*
X61150543Y-21121956D01*
X61130552Y-21109974D01*
X61111832Y-21096090D01*
X61094562Y-21080438D01*
X61078910Y-21063168D01*
X61065026Y-21044448D01*
X61053044Y-21024457D01*
X61043079Y-21003387D01*
X61035227Y-20981443D01*
X61029563Y-20958834D01*
X61026144Y-20935779D01*
X61025000Y-20912500D01*
X61025000Y-20337500D01*
X61026144Y-20314221D01*
X61029563Y-20291166D01*
X61035227Y-20268557D01*
X61043079Y-20246613D01*
X61053044Y-20225543D01*
X61065026Y-20205552D01*
X61078910Y-20186832D01*
X61094562Y-20169562D01*
X61111832Y-20153910D01*
X61130552Y-20140026D01*
X61150543Y-20128044D01*
X61171613Y-20118079D01*
X61193557Y-20110227D01*
X61216166Y-20104563D01*
X61239221Y-20101144D01*
X61262500Y-20100000D01*
X61737500Y-20100000D01*
X61760779Y-20101144D01*
X61760779Y-20101144D01*
G37*
D21*
X61500000Y-20625000D03*
D20*
G36*
X61760779Y-21851144D02*
X61783834Y-21854563D01*
X61806443Y-21860227D01*
X61828387Y-21868079D01*
X61849457Y-21878044D01*
X61869448Y-21890026D01*
X61888168Y-21903910D01*
X61905438Y-21919562D01*
X61921090Y-21936832D01*
X61934974Y-21955552D01*
X61946956Y-21975543D01*
X61956921Y-21996613D01*
X61964773Y-22018557D01*
X61970437Y-22041166D01*
X61973856Y-22064221D01*
X61975000Y-22087500D01*
X61975000Y-22662500D01*
X61973856Y-22685779D01*
X61970437Y-22708834D01*
X61964773Y-22731443D01*
X61956921Y-22753387D01*
X61946956Y-22774457D01*
X61934974Y-22794448D01*
X61921090Y-22813168D01*
X61905438Y-22830438D01*
X61888168Y-22846090D01*
X61869448Y-22859974D01*
X61849457Y-22871956D01*
X61828387Y-22881921D01*
X61806443Y-22889773D01*
X61783834Y-22895437D01*
X61760779Y-22898856D01*
X61737500Y-22900000D01*
X61262500Y-22900000D01*
X61239221Y-22898856D01*
X61216166Y-22895437D01*
X61193557Y-22889773D01*
X61171613Y-22881921D01*
X61150543Y-22871956D01*
X61130552Y-22859974D01*
X61111832Y-22846090D01*
X61094562Y-22830438D01*
X61078910Y-22813168D01*
X61065026Y-22794448D01*
X61053044Y-22774457D01*
X61043079Y-22753387D01*
X61035227Y-22731443D01*
X61029563Y-22708834D01*
X61026144Y-22685779D01*
X61025000Y-22662500D01*
X61025000Y-22087500D01*
X61026144Y-22064221D01*
X61029563Y-22041166D01*
X61035227Y-22018557D01*
X61043079Y-21996613D01*
X61053044Y-21975543D01*
X61065026Y-21955552D01*
X61078910Y-21936832D01*
X61094562Y-21919562D01*
X61111832Y-21903910D01*
X61130552Y-21890026D01*
X61150543Y-21878044D01*
X61171613Y-21868079D01*
X61193557Y-21860227D01*
X61216166Y-21854563D01*
X61239221Y-21851144D01*
X61262500Y-21850000D01*
X61737500Y-21850000D01*
X61760779Y-21851144D01*
X61760779Y-21851144D01*
G37*
D21*
X61500000Y-22375000D03*
G04 #@! TD*
D20*
G04 #@! TO.C,C14*
G36*
X59760779Y-21851144D02*
X59783834Y-21854563D01*
X59806443Y-21860227D01*
X59828387Y-21868079D01*
X59849457Y-21878044D01*
X59869448Y-21890026D01*
X59888168Y-21903910D01*
X59905438Y-21919562D01*
X59921090Y-21936832D01*
X59934974Y-21955552D01*
X59946956Y-21975543D01*
X59956921Y-21996613D01*
X59964773Y-22018557D01*
X59970437Y-22041166D01*
X59973856Y-22064221D01*
X59975000Y-22087500D01*
X59975000Y-22662500D01*
X59973856Y-22685779D01*
X59970437Y-22708834D01*
X59964773Y-22731443D01*
X59956921Y-22753387D01*
X59946956Y-22774457D01*
X59934974Y-22794448D01*
X59921090Y-22813168D01*
X59905438Y-22830438D01*
X59888168Y-22846090D01*
X59869448Y-22859974D01*
X59849457Y-22871956D01*
X59828387Y-22881921D01*
X59806443Y-22889773D01*
X59783834Y-22895437D01*
X59760779Y-22898856D01*
X59737500Y-22900000D01*
X59262500Y-22900000D01*
X59239221Y-22898856D01*
X59216166Y-22895437D01*
X59193557Y-22889773D01*
X59171613Y-22881921D01*
X59150543Y-22871956D01*
X59130552Y-22859974D01*
X59111832Y-22846090D01*
X59094562Y-22830438D01*
X59078910Y-22813168D01*
X59065026Y-22794448D01*
X59053044Y-22774457D01*
X59043079Y-22753387D01*
X59035227Y-22731443D01*
X59029563Y-22708834D01*
X59026144Y-22685779D01*
X59025000Y-22662500D01*
X59025000Y-22087500D01*
X59026144Y-22064221D01*
X59029563Y-22041166D01*
X59035227Y-22018557D01*
X59043079Y-21996613D01*
X59053044Y-21975543D01*
X59065026Y-21955552D01*
X59078910Y-21936832D01*
X59094562Y-21919562D01*
X59111832Y-21903910D01*
X59130552Y-21890026D01*
X59150543Y-21878044D01*
X59171613Y-21868079D01*
X59193557Y-21860227D01*
X59216166Y-21854563D01*
X59239221Y-21851144D01*
X59262500Y-21850000D01*
X59737500Y-21850000D01*
X59760779Y-21851144D01*
X59760779Y-21851144D01*
G37*
D21*
X59500000Y-22375000D03*
D20*
G36*
X59760779Y-20101144D02*
X59783834Y-20104563D01*
X59806443Y-20110227D01*
X59828387Y-20118079D01*
X59849457Y-20128044D01*
X59869448Y-20140026D01*
X59888168Y-20153910D01*
X59905438Y-20169562D01*
X59921090Y-20186832D01*
X59934974Y-20205552D01*
X59946956Y-20225543D01*
X59956921Y-20246613D01*
X59964773Y-20268557D01*
X59970437Y-20291166D01*
X59973856Y-20314221D01*
X59975000Y-20337500D01*
X59975000Y-20912500D01*
X59973856Y-20935779D01*
X59970437Y-20958834D01*
X59964773Y-20981443D01*
X59956921Y-21003387D01*
X59946956Y-21024457D01*
X59934974Y-21044448D01*
X59921090Y-21063168D01*
X59905438Y-21080438D01*
X59888168Y-21096090D01*
X59869448Y-21109974D01*
X59849457Y-21121956D01*
X59828387Y-21131921D01*
X59806443Y-21139773D01*
X59783834Y-21145437D01*
X59760779Y-21148856D01*
X59737500Y-21150000D01*
X59262500Y-21150000D01*
X59239221Y-21148856D01*
X59216166Y-21145437D01*
X59193557Y-21139773D01*
X59171613Y-21131921D01*
X59150543Y-21121956D01*
X59130552Y-21109974D01*
X59111832Y-21096090D01*
X59094562Y-21080438D01*
X59078910Y-21063168D01*
X59065026Y-21044448D01*
X59053044Y-21024457D01*
X59043079Y-21003387D01*
X59035227Y-20981443D01*
X59029563Y-20958834D01*
X59026144Y-20935779D01*
X59025000Y-20912500D01*
X59025000Y-20337500D01*
X59026144Y-20314221D01*
X59029563Y-20291166D01*
X59035227Y-20268557D01*
X59043079Y-20246613D01*
X59053044Y-20225543D01*
X59065026Y-20205552D01*
X59078910Y-20186832D01*
X59094562Y-20169562D01*
X59111832Y-20153910D01*
X59130552Y-20140026D01*
X59150543Y-20128044D01*
X59171613Y-20118079D01*
X59193557Y-20110227D01*
X59216166Y-20104563D01*
X59239221Y-20101144D01*
X59262500Y-20100000D01*
X59737500Y-20100000D01*
X59760779Y-20101144D01*
X59760779Y-20101144D01*
G37*
D21*
X59500000Y-20625000D03*
G04 #@! TD*
D20*
G04 #@! TO.C,D2*
G36*
X33185779Y-33776144D02*
X33208834Y-33779563D01*
X33231443Y-33785227D01*
X33253387Y-33793079D01*
X33274457Y-33803044D01*
X33294448Y-33815026D01*
X33313168Y-33828910D01*
X33330438Y-33844562D01*
X33346090Y-33861832D01*
X33359974Y-33880552D01*
X33371956Y-33900543D01*
X33381921Y-33921613D01*
X33389773Y-33943557D01*
X33395437Y-33966166D01*
X33398856Y-33989221D01*
X33400000Y-34012500D01*
X33400000Y-34487500D01*
X33398856Y-34510779D01*
X33395437Y-34533834D01*
X33389773Y-34556443D01*
X33381921Y-34578387D01*
X33371956Y-34599457D01*
X33359974Y-34619448D01*
X33346090Y-34638168D01*
X33330438Y-34655438D01*
X33313168Y-34671090D01*
X33294448Y-34684974D01*
X33274457Y-34696956D01*
X33253387Y-34706921D01*
X33231443Y-34714773D01*
X33208834Y-34720437D01*
X33185779Y-34723856D01*
X33162500Y-34725000D01*
X32587500Y-34725000D01*
X32564221Y-34723856D01*
X32541166Y-34720437D01*
X32518557Y-34714773D01*
X32496613Y-34706921D01*
X32475543Y-34696956D01*
X32455552Y-34684974D01*
X32436832Y-34671090D01*
X32419562Y-34655438D01*
X32403910Y-34638168D01*
X32390026Y-34619448D01*
X32378044Y-34599457D01*
X32368079Y-34578387D01*
X32360227Y-34556443D01*
X32354563Y-34533834D01*
X32351144Y-34510779D01*
X32350000Y-34487500D01*
X32350000Y-34012500D01*
X32351144Y-33989221D01*
X32354563Y-33966166D01*
X32360227Y-33943557D01*
X32368079Y-33921613D01*
X32378044Y-33900543D01*
X32390026Y-33880552D01*
X32403910Y-33861832D01*
X32419562Y-33844562D01*
X32436832Y-33828910D01*
X32455552Y-33815026D01*
X32475543Y-33803044D01*
X32496613Y-33793079D01*
X32518557Y-33785227D01*
X32541166Y-33779563D01*
X32564221Y-33776144D01*
X32587500Y-33775000D01*
X33162500Y-33775000D01*
X33185779Y-33776144D01*
X33185779Y-33776144D01*
G37*
D21*
X32875000Y-34250000D03*
D20*
G36*
X34935779Y-33776144D02*
X34958834Y-33779563D01*
X34981443Y-33785227D01*
X35003387Y-33793079D01*
X35024457Y-33803044D01*
X35044448Y-33815026D01*
X35063168Y-33828910D01*
X35080438Y-33844562D01*
X35096090Y-33861832D01*
X35109974Y-33880552D01*
X35121956Y-33900543D01*
X35131921Y-33921613D01*
X35139773Y-33943557D01*
X35145437Y-33966166D01*
X35148856Y-33989221D01*
X35150000Y-34012500D01*
X35150000Y-34487500D01*
X35148856Y-34510779D01*
X35145437Y-34533834D01*
X35139773Y-34556443D01*
X35131921Y-34578387D01*
X35121956Y-34599457D01*
X35109974Y-34619448D01*
X35096090Y-34638168D01*
X35080438Y-34655438D01*
X35063168Y-34671090D01*
X35044448Y-34684974D01*
X35024457Y-34696956D01*
X35003387Y-34706921D01*
X34981443Y-34714773D01*
X34958834Y-34720437D01*
X34935779Y-34723856D01*
X34912500Y-34725000D01*
X34337500Y-34725000D01*
X34314221Y-34723856D01*
X34291166Y-34720437D01*
X34268557Y-34714773D01*
X34246613Y-34706921D01*
X34225543Y-34696956D01*
X34205552Y-34684974D01*
X34186832Y-34671090D01*
X34169562Y-34655438D01*
X34153910Y-34638168D01*
X34140026Y-34619448D01*
X34128044Y-34599457D01*
X34118079Y-34578387D01*
X34110227Y-34556443D01*
X34104563Y-34533834D01*
X34101144Y-34510779D01*
X34100000Y-34487500D01*
X34100000Y-34012500D01*
X34101144Y-33989221D01*
X34104563Y-33966166D01*
X34110227Y-33943557D01*
X34118079Y-33921613D01*
X34128044Y-33900543D01*
X34140026Y-33880552D01*
X34153910Y-33861832D01*
X34169562Y-33844562D01*
X34186832Y-33828910D01*
X34205552Y-33815026D01*
X34225543Y-33803044D01*
X34246613Y-33793079D01*
X34268557Y-33785227D01*
X34291166Y-33779563D01*
X34314221Y-33776144D01*
X34337500Y-33775000D01*
X34912500Y-33775000D01*
X34935779Y-33776144D01*
X34935779Y-33776144D01*
G37*
D21*
X34625000Y-34250000D03*
G04 #@! TD*
D20*
G04 #@! TO.C,D3*
G36*
X34935779Y-32026144D02*
X34958834Y-32029563D01*
X34981443Y-32035227D01*
X35003387Y-32043079D01*
X35024457Y-32053044D01*
X35044448Y-32065026D01*
X35063168Y-32078910D01*
X35080438Y-32094562D01*
X35096090Y-32111832D01*
X35109974Y-32130552D01*
X35121956Y-32150543D01*
X35131921Y-32171613D01*
X35139773Y-32193557D01*
X35145437Y-32216166D01*
X35148856Y-32239221D01*
X35150000Y-32262500D01*
X35150000Y-32737500D01*
X35148856Y-32760779D01*
X35145437Y-32783834D01*
X35139773Y-32806443D01*
X35131921Y-32828387D01*
X35121956Y-32849457D01*
X35109974Y-32869448D01*
X35096090Y-32888168D01*
X35080438Y-32905438D01*
X35063168Y-32921090D01*
X35044448Y-32934974D01*
X35024457Y-32946956D01*
X35003387Y-32956921D01*
X34981443Y-32964773D01*
X34958834Y-32970437D01*
X34935779Y-32973856D01*
X34912500Y-32975000D01*
X34337500Y-32975000D01*
X34314221Y-32973856D01*
X34291166Y-32970437D01*
X34268557Y-32964773D01*
X34246613Y-32956921D01*
X34225543Y-32946956D01*
X34205552Y-32934974D01*
X34186832Y-32921090D01*
X34169562Y-32905438D01*
X34153910Y-32888168D01*
X34140026Y-32869448D01*
X34128044Y-32849457D01*
X34118079Y-32828387D01*
X34110227Y-32806443D01*
X34104563Y-32783834D01*
X34101144Y-32760779D01*
X34100000Y-32737500D01*
X34100000Y-32262500D01*
X34101144Y-32239221D01*
X34104563Y-32216166D01*
X34110227Y-32193557D01*
X34118079Y-32171613D01*
X34128044Y-32150543D01*
X34140026Y-32130552D01*
X34153910Y-32111832D01*
X34169562Y-32094562D01*
X34186832Y-32078910D01*
X34205552Y-32065026D01*
X34225543Y-32053044D01*
X34246613Y-32043079D01*
X34268557Y-32035227D01*
X34291166Y-32029563D01*
X34314221Y-32026144D01*
X34337500Y-32025000D01*
X34912500Y-32025000D01*
X34935779Y-32026144D01*
X34935779Y-32026144D01*
G37*
D21*
X34625000Y-32500000D03*
D20*
G36*
X33185779Y-32026144D02*
X33208834Y-32029563D01*
X33231443Y-32035227D01*
X33253387Y-32043079D01*
X33274457Y-32053044D01*
X33294448Y-32065026D01*
X33313168Y-32078910D01*
X33330438Y-32094562D01*
X33346090Y-32111832D01*
X33359974Y-32130552D01*
X33371956Y-32150543D01*
X33381921Y-32171613D01*
X33389773Y-32193557D01*
X33395437Y-32216166D01*
X33398856Y-32239221D01*
X33400000Y-32262500D01*
X33400000Y-32737500D01*
X33398856Y-32760779D01*
X33395437Y-32783834D01*
X33389773Y-32806443D01*
X33381921Y-32828387D01*
X33371956Y-32849457D01*
X33359974Y-32869448D01*
X33346090Y-32888168D01*
X33330438Y-32905438D01*
X33313168Y-32921090D01*
X33294448Y-32934974D01*
X33274457Y-32946956D01*
X33253387Y-32956921D01*
X33231443Y-32964773D01*
X33208834Y-32970437D01*
X33185779Y-32973856D01*
X33162500Y-32975000D01*
X32587500Y-32975000D01*
X32564221Y-32973856D01*
X32541166Y-32970437D01*
X32518557Y-32964773D01*
X32496613Y-32956921D01*
X32475543Y-32946956D01*
X32455552Y-32934974D01*
X32436832Y-32921090D01*
X32419562Y-32905438D01*
X32403910Y-32888168D01*
X32390026Y-32869448D01*
X32378044Y-32849457D01*
X32368079Y-32828387D01*
X32360227Y-32806443D01*
X32354563Y-32783834D01*
X32351144Y-32760779D01*
X32350000Y-32737500D01*
X32350000Y-32262500D01*
X32351144Y-32239221D01*
X32354563Y-32216166D01*
X32360227Y-32193557D01*
X32368079Y-32171613D01*
X32378044Y-32150543D01*
X32390026Y-32130552D01*
X32403910Y-32111832D01*
X32419562Y-32094562D01*
X32436832Y-32078910D01*
X32455552Y-32065026D01*
X32475543Y-32053044D01*
X32496613Y-32043079D01*
X32518557Y-32035227D01*
X32541166Y-32029563D01*
X32564221Y-32026144D01*
X32587500Y-32025000D01*
X33162500Y-32025000D01*
X33185779Y-32026144D01*
X33185779Y-32026144D01*
G37*
D21*
X32875000Y-32500000D03*
G04 #@! TD*
D20*
G04 #@! TO.C,D4*
G36*
X33185779Y-30276144D02*
X33208834Y-30279563D01*
X33231443Y-30285227D01*
X33253387Y-30293079D01*
X33274457Y-30303044D01*
X33294448Y-30315026D01*
X33313168Y-30328910D01*
X33330438Y-30344562D01*
X33346090Y-30361832D01*
X33359974Y-30380552D01*
X33371956Y-30400543D01*
X33381921Y-30421613D01*
X33389773Y-30443557D01*
X33395437Y-30466166D01*
X33398856Y-30489221D01*
X33400000Y-30512500D01*
X33400000Y-30987500D01*
X33398856Y-31010779D01*
X33395437Y-31033834D01*
X33389773Y-31056443D01*
X33381921Y-31078387D01*
X33371956Y-31099457D01*
X33359974Y-31119448D01*
X33346090Y-31138168D01*
X33330438Y-31155438D01*
X33313168Y-31171090D01*
X33294448Y-31184974D01*
X33274457Y-31196956D01*
X33253387Y-31206921D01*
X33231443Y-31214773D01*
X33208834Y-31220437D01*
X33185779Y-31223856D01*
X33162500Y-31225000D01*
X32587500Y-31225000D01*
X32564221Y-31223856D01*
X32541166Y-31220437D01*
X32518557Y-31214773D01*
X32496613Y-31206921D01*
X32475543Y-31196956D01*
X32455552Y-31184974D01*
X32436832Y-31171090D01*
X32419562Y-31155438D01*
X32403910Y-31138168D01*
X32390026Y-31119448D01*
X32378044Y-31099457D01*
X32368079Y-31078387D01*
X32360227Y-31056443D01*
X32354563Y-31033834D01*
X32351144Y-31010779D01*
X32350000Y-30987500D01*
X32350000Y-30512500D01*
X32351144Y-30489221D01*
X32354563Y-30466166D01*
X32360227Y-30443557D01*
X32368079Y-30421613D01*
X32378044Y-30400543D01*
X32390026Y-30380552D01*
X32403910Y-30361832D01*
X32419562Y-30344562D01*
X32436832Y-30328910D01*
X32455552Y-30315026D01*
X32475543Y-30303044D01*
X32496613Y-30293079D01*
X32518557Y-30285227D01*
X32541166Y-30279563D01*
X32564221Y-30276144D01*
X32587500Y-30275000D01*
X33162500Y-30275000D01*
X33185779Y-30276144D01*
X33185779Y-30276144D01*
G37*
D21*
X32875000Y-30750000D03*
D20*
G36*
X34935779Y-30276144D02*
X34958834Y-30279563D01*
X34981443Y-30285227D01*
X35003387Y-30293079D01*
X35024457Y-30303044D01*
X35044448Y-30315026D01*
X35063168Y-30328910D01*
X35080438Y-30344562D01*
X35096090Y-30361832D01*
X35109974Y-30380552D01*
X35121956Y-30400543D01*
X35131921Y-30421613D01*
X35139773Y-30443557D01*
X35145437Y-30466166D01*
X35148856Y-30489221D01*
X35150000Y-30512500D01*
X35150000Y-30987500D01*
X35148856Y-31010779D01*
X35145437Y-31033834D01*
X35139773Y-31056443D01*
X35131921Y-31078387D01*
X35121956Y-31099457D01*
X35109974Y-31119448D01*
X35096090Y-31138168D01*
X35080438Y-31155438D01*
X35063168Y-31171090D01*
X35044448Y-31184974D01*
X35024457Y-31196956D01*
X35003387Y-31206921D01*
X34981443Y-31214773D01*
X34958834Y-31220437D01*
X34935779Y-31223856D01*
X34912500Y-31225000D01*
X34337500Y-31225000D01*
X34314221Y-31223856D01*
X34291166Y-31220437D01*
X34268557Y-31214773D01*
X34246613Y-31206921D01*
X34225543Y-31196956D01*
X34205552Y-31184974D01*
X34186832Y-31171090D01*
X34169562Y-31155438D01*
X34153910Y-31138168D01*
X34140026Y-31119448D01*
X34128044Y-31099457D01*
X34118079Y-31078387D01*
X34110227Y-31056443D01*
X34104563Y-31033834D01*
X34101144Y-31010779D01*
X34100000Y-30987500D01*
X34100000Y-30512500D01*
X34101144Y-30489221D01*
X34104563Y-30466166D01*
X34110227Y-30443557D01*
X34118079Y-30421613D01*
X34128044Y-30400543D01*
X34140026Y-30380552D01*
X34153910Y-30361832D01*
X34169562Y-30344562D01*
X34186832Y-30328910D01*
X34205552Y-30315026D01*
X34225543Y-30303044D01*
X34246613Y-30293079D01*
X34268557Y-30285227D01*
X34291166Y-30279563D01*
X34314221Y-30276144D01*
X34337500Y-30275000D01*
X34912500Y-30275000D01*
X34935779Y-30276144D01*
X34935779Y-30276144D01*
G37*
D21*
X34625000Y-30750000D03*
G04 #@! TD*
D23*
G04 #@! TO.C,J2*
X33500000Y-20250000D03*
X32000000Y-20250000D03*
X30500000Y-20250000D03*
X29000000Y-20250000D03*
X27500000Y-20250000D03*
G04 #@! TD*
D24*
G04 #@! TO.C,Q1*
X76200000Y-32250000D03*
X76200000Y-34150000D03*
X78200000Y-33200000D03*
G04 #@! TD*
D20*
G04 #@! TO.C,R1*
G36*
X37735779Y-57926144D02*
X37758834Y-57929563D01*
X37781443Y-57935227D01*
X37803387Y-57943079D01*
X37824457Y-57953044D01*
X37844448Y-57965026D01*
X37863168Y-57978910D01*
X37880438Y-57994562D01*
X37896090Y-58011832D01*
X37909974Y-58030552D01*
X37921956Y-58050543D01*
X37931921Y-58071613D01*
X37939773Y-58093557D01*
X37945437Y-58116166D01*
X37948856Y-58139221D01*
X37950000Y-58162500D01*
X37950000Y-58637500D01*
X37948856Y-58660779D01*
X37945437Y-58683834D01*
X37939773Y-58706443D01*
X37931921Y-58728387D01*
X37921956Y-58749457D01*
X37909974Y-58769448D01*
X37896090Y-58788168D01*
X37880438Y-58805438D01*
X37863168Y-58821090D01*
X37844448Y-58834974D01*
X37824457Y-58846956D01*
X37803387Y-58856921D01*
X37781443Y-58864773D01*
X37758834Y-58870437D01*
X37735779Y-58873856D01*
X37712500Y-58875000D01*
X37137500Y-58875000D01*
X37114221Y-58873856D01*
X37091166Y-58870437D01*
X37068557Y-58864773D01*
X37046613Y-58856921D01*
X37025543Y-58846956D01*
X37005552Y-58834974D01*
X36986832Y-58821090D01*
X36969562Y-58805438D01*
X36953910Y-58788168D01*
X36940026Y-58769448D01*
X36928044Y-58749457D01*
X36918079Y-58728387D01*
X36910227Y-58706443D01*
X36904563Y-58683834D01*
X36901144Y-58660779D01*
X36900000Y-58637500D01*
X36900000Y-58162500D01*
X36901144Y-58139221D01*
X36904563Y-58116166D01*
X36910227Y-58093557D01*
X36918079Y-58071613D01*
X36928044Y-58050543D01*
X36940026Y-58030552D01*
X36953910Y-58011832D01*
X36969562Y-57994562D01*
X36986832Y-57978910D01*
X37005552Y-57965026D01*
X37025543Y-57953044D01*
X37046613Y-57943079D01*
X37068557Y-57935227D01*
X37091166Y-57929563D01*
X37114221Y-57926144D01*
X37137500Y-57925000D01*
X37712500Y-57925000D01*
X37735779Y-57926144D01*
X37735779Y-57926144D01*
G37*
D21*
X37425000Y-58400000D03*
D20*
G36*
X39485779Y-57926144D02*
X39508834Y-57929563D01*
X39531443Y-57935227D01*
X39553387Y-57943079D01*
X39574457Y-57953044D01*
X39594448Y-57965026D01*
X39613168Y-57978910D01*
X39630438Y-57994562D01*
X39646090Y-58011832D01*
X39659974Y-58030552D01*
X39671956Y-58050543D01*
X39681921Y-58071613D01*
X39689773Y-58093557D01*
X39695437Y-58116166D01*
X39698856Y-58139221D01*
X39700000Y-58162500D01*
X39700000Y-58637500D01*
X39698856Y-58660779D01*
X39695437Y-58683834D01*
X39689773Y-58706443D01*
X39681921Y-58728387D01*
X39671956Y-58749457D01*
X39659974Y-58769448D01*
X39646090Y-58788168D01*
X39630438Y-58805438D01*
X39613168Y-58821090D01*
X39594448Y-58834974D01*
X39574457Y-58846956D01*
X39553387Y-58856921D01*
X39531443Y-58864773D01*
X39508834Y-58870437D01*
X39485779Y-58873856D01*
X39462500Y-58875000D01*
X38887500Y-58875000D01*
X38864221Y-58873856D01*
X38841166Y-58870437D01*
X38818557Y-58864773D01*
X38796613Y-58856921D01*
X38775543Y-58846956D01*
X38755552Y-58834974D01*
X38736832Y-58821090D01*
X38719562Y-58805438D01*
X38703910Y-58788168D01*
X38690026Y-58769448D01*
X38678044Y-58749457D01*
X38668079Y-58728387D01*
X38660227Y-58706443D01*
X38654563Y-58683834D01*
X38651144Y-58660779D01*
X38650000Y-58637500D01*
X38650000Y-58162500D01*
X38651144Y-58139221D01*
X38654563Y-58116166D01*
X38660227Y-58093557D01*
X38668079Y-58071613D01*
X38678044Y-58050543D01*
X38690026Y-58030552D01*
X38703910Y-58011832D01*
X38719562Y-57994562D01*
X38736832Y-57978910D01*
X38755552Y-57965026D01*
X38775543Y-57953044D01*
X38796613Y-57943079D01*
X38818557Y-57935227D01*
X38841166Y-57929563D01*
X38864221Y-57926144D01*
X38887500Y-57925000D01*
X39462500Y-57925000D01*
X39485779Y-57926144D01*
X39485779Y-57926144D01*
G37*
D21*
X39175000Y-58400000D03*
G04 #@! TD*
D20*
G04 #@! TO.C,R3*
G36*
X37735779Y-55726144D02*
X37758834Y-55729563D01*
X37781443Y-55735227D01*
X37803387Y-55743079D01*
X37824457Y-55753044D01*
X37844448Y-55765026D01*
X37863168Y-55778910D01*
X37880438Y-55794562D01*
X37896090Y-55811832D01*
X37909974Y-55830552D01*
X37921956Y-55850543D01*
X37931921Y-55871613D01*
X37939773Y-55893557D01*
X37945437Y-55916166D01*
X37948856Y-55939221D01*
X37950000Y-55962500D01*
X37950000Y-56437500D01*
X37948856Y-56460779D01*
X37945437Y-56483834D01*
X37939773Y-56506443D01*
X37931921Y-56528387D01*
X37921956Y-56549457D01*
X37909974Y-56569448D01*
X37896090Y-56588168D01*
X37880438Y-56605438D01*
X37863168Y-56621090D01*
X37844448Y-56634974D01*
X37824457Y-56646956D01*
X37803387Y-56656921D01*
X37781443Y-56664773D01*
X37758834Y-56670437D01*
X37735779Y-56673856D01*
X37712500Y-56675000D01*
X37137500Y-56675000D01*
X37114221Y-56673856D01*
X37091166Y-56670437D01*
X37068557Y-56664773D01*
X37046613Y-56656921D01*
X37025543Y-56646956D01*
X37005552Y-56634974D01*
X36986832Y-56621090D01*
X36969562Y-56605438D01*
X36953910Y-56588168D01*
X36940026Y-56569448D01*
X36928044Y-56549457D01*
X36918079Y-56528387D01*
X36910227Y-56506443D01*
X36904563Y-56483834D01*
X36901144Y-56460779D01*
X36900000Y-56437500D01*
X36900000Y-55962500D01*
X36901144Y-55939221D01*
X36904563Y-55916166D01*
X36910227Y-55893557D01*
X36918079Y-55871613D01*
X36928044Y-55850543D01*
X36940026Y-55830552D01*
X36953910Y-55811832D01*
X36969562Y-55794562D01*
X36986832Y-55778910D01*
X37005552Y-55765026D01*
X37025543Y-55753044D01*
X37046613Y-55743079D01*
X37068557Y-55735227D01*
X37091166Y-55729563D01*
X37114221Y-55726144D01*
X37137500Y-55725000D01*
X37712500Y-55725000D01*
X37735779Y-55726144D01*
X37735779Y-55726144D01*
G37*
D21*
X37425000Y-56200000D03*
D20*
G36*
X39485779Y-55726144D02*
X39508834Y-55729563D01*
X39531443Y-55735227D01*
X39553387Y-55743079D01*
X39574457Y-55753044D01*
X39594448Y-55765026D01*
X39613168Y-55778910D01*
X39630438Y-55794562D01*
X39646090Y-55811832D01*
X39659974Y-55830552D01*
X39671956Y-55850543D01*
X39681921Y-55871613D01*
X39689773Y-55893557D01*
X39695437Y-55916166D01*
X39698856Y-55939221D01*
X39700000Y-55962500D01*
X39700000Y-56437500D01*
X39698856Y-56460779D01*
X39695437Y-56483834D01*
X39689773Y-56506443D01*
X39681921Y-56528387D01*
X39671956Y-56549457D01*
X39659974Y-56569448D01*
X39646090Y-56588168D01*
X39630438Y-56605438D01*
X39613168Y-56621090D01*
X39594448Y-56634974D01*
X39574457Y-56646956D01*
X39553387Y-56656921D01*
X39531443Y-56664773D01*
X39508834Y-56670437D01*
X39485779Y-56673856D01*
X39462500Y-56675000D01*
X38887500Y-56675000D01*
X38864221Y-56673856D01*
X38841166Y-56670437D01*
X38818557Y-56664773D01*
X38796613Y-56656921D01*
X38775543Y-56646956D01*
X38755552Y-56634974D01*
X38736832Y-56621090D01*
X38719562Y-56605438D01*
X38703910Y-56588168D01*
X38690026Y-56569448D01*
X38678044Y-56549457D01*
X38668079Y-56528387D01*
X38660227Y-56506443D01*
X38654563Y-56483834D01*
X38651144Y-56460779D01*
X38650000Y-56437500D01*
X38650000Y-55962500D01*
X38651144Y-55939221D01*
X38654563Y-55916166D01*
X38660227Y-55893557D01*
X38668079Y-55871613D01*
X38678044Y-55850543D01*
X38690026Y-55830552D01*
X38703910Y-55811832D01*
X38719562Y-55794562D01*
X38736832Y-55778910D01*
X38755552Y-55765026D01*
X38775543Y-55753044D01*
X38796613Y-55743079D01*
X38818557Y-55735227D01*
X38841166Y-55729563D01*
X38864221Y-55726144D01*
X38887500Y-55725000D01*
X39462500Y-55725000D01*
X39485779Y-55726144D01*
X39485779Y-55726144D01*
G37*
D21*
X39175000Y-56200000D03*
G04 #@! TD*
D20*
G04 #@! TO.C,R5*
G36*
X36935779Y-33776144D02*
X36958834Y-33779563D01*
X36981443Y-33785227D01*
X37003387Y-33793079D01*
X37024457Y-33803044D01*
X37044448Y-33815026D01*
X37063168Y-33828910D01*
X37080438Y-33844562D01*
X37096090Y-33861832D01*
X37109974Y-33880552D01*
X37121956Y-33900543D01*
X37131921Y-33921613D01*
X37139773Y-33943557D01*
X37145437Y-33966166D01*
X37148856Y-33989221D01*
X37150000Y-34012500D01*
X37150000Y-34487500D01*
X37148856Y-34510779D01*
X37145437Y-34533834D01*
X37139773Y-34556443D01*
X37131921Y-34578387D01*
X37121956Y-34599457D01*
X37109974Y-34619448D01*
X37096090Y-34638168D01*
X37080438Y-34655438D01*
X37063168Y-34671090D01*
X37044448Y-34684974D01*
X37024457Y-34696956D01*
X37003387Y-34706921D01*
X36981443Y-34714773D01*
X36958834Y-34720437D01*
X36935779Y-34723856D01*
X36912500Y-34725000D01*
X36337500Y-34725000D01*
X36314221Y-34723856D01*
X36291166Y-34720437D01*
X36268557Y-34714773D01*
X36246613Y-34706921D01*
X36225543Y-34696956D01*
X36205552Y-34684974D01*
X36186832Y-34671090D01*
X36169562Y-34655438D01*
X36153910Y-34638168D01*
X36140026Y-34619448D01*
X36128044Y-34599457D01*
X36118079Y-34578387D01*
X36110227Y-34556443D01*
X36104563Y-34533834D01*
X36101144Y-34510779D01*
X36100000Y-34487500D01*
X36100000Y-34012500D01*
X36101144Y-33989221D01*
X36104563Y-33966166D01*
X36110227Y-33943557D01*
X36118079Y-33921613D01*
X36128044Y-33900543D01*
X36140026Y-33880552D01*
X36153910Y-33861832D01*
X36169562Y-33844562D01*
X36186832Y-33828910D01*
X36205552Y-33815026D01*
X36225543Y-33803044D01*
X36246613Y-33793079D01*
X36268557Y-33785227D01*
X36291166Y-33779563D01*
X36314221Y-33776144D01*
X36337500Y-33775000D01*
X36912500Y-33775000D01*
X36935779Y-33776144D01*
X36935779Y-33776144D01*
G37*
D21*
X36625000Y-34250000D03*
D20*
G36*
X38685779Y-33776144D02*
X38708834Y-33779563D01*
X38731443Y-33785227D01*
X38753387Y-33793079D01*
X38774457Y-33803044D01*
X38794448Y-33815026D01*
X38813168Y-33828910D01*
X38830438Y-33844562D01*
X38846090Y-33861832D01*
X38859974Y-33880552D01*
X38871956Y-33900543D01*
X38881921Y-33921613D01*
X38889773Y-33943557D01*
X38895437Y-33966166D01*
X38898856Y-33989221D01*
X38900000Y-34012500D01*
X38900000Y-34487500D01*
X38898856Y-34510779D01*
X38895437Y-34533834D01*
X38889773Y-34556443D01*
X38881921Y-34578387D01*
X38871956Y-34599457D01*
X38859974Y-34619448D01*
X38846090Y-34638168D01*
X38830438Y-34655438D01*
X38813168Y-34671090D01*
X38794448Y-34684974D01*
X38774457Y-34696956D01*
X38753387Y-34706921D01*
X38731443Y-34714773D01*
X38708834Y-34720437D01*
X38685779Y-34723856D01*
X38662500Y-34725000D01*
X38087500Y-34725000D01*
X38064221Y-34723856D01*
X38041166Y-34720437D01*
X38018557Y-34714773D01*
X37996613Y-34706921D01*
X37975543Y-34696956D01*
X37955552Y-34684974D01*
X37936832Y-34671090D01*
X37919562Y-34655438D01*
X37903910Y-34638168D01*
X37890026Y-34619448D01*
X37878044Y-34599457D01*
X37868079Y-34578387D01*
X37860227Y-34556443D01*
X37854563Y-34533834D01*
X37851144Y-34510779D01*
X37850000Y-34487500D01*
X37850000Y-34012500D01*
X37851144Y-33989221D01*
X37854563Y-33966166D01*
X37860227Y-33943557D01*
X37868079Y-33921613D01*
X37878044Y-33900543D01*
X37890026Y-33880552D01*
X37903910Y-33861832D01*
X37919562Y-33844562D01*
X37936832Y-33828910D01*
X37955552Y-33815026D01*
X37975543Y-33803044D01*
X37996613Y-33793079D01*
X38018557Y-33785227D01*
X38041166Y-33779563D01*
X38064221Y-33776144D01*
X38087500Y-33775000D01*
X38662500Y-33775000D01*
X38685779Y-33776144D01*
X38685779Y-33776144D01*
G37*
D21*
X38375000Y-34250000D03*
G04 #@! TD*
D20*
G04 #@! TO.C,R6*
G36*
X38685779Y-32026144D02*
X38708834Y-32029563D01*
X38731443Y-32035227D01*
X38753387Y-32043079D01*
X38774457Y-32053044D01*
X38794448Y-32065026D01*
X38813168Y-32078910D01*
X38830438Y-32094562D01*
X38846090Y-32111832D01*
X38859974Y-32130552D01*
X38871956Y-32150543D01*
X38881921Y-32171613D01*
X38889773Y-32193557D01*
X38895437Y-32216166D01*
X38898856Y-32239221D01*
X38900000Y-32262500D01*
X38900000Y-32737500D01*
X38898856Y-32760779D01*
X38895437Y-32783834D01*
X38889773Y-32806443D01*
X38881921Y-32828387D01*
X38871956Y-32849457D01*
X38859974Y-32869448D01*
X38846090Y-32888168D01*
X38830438Y-32905438D01*
X38813168Y-32921090D01*
X38794448Y-32934974D01*
X38774457Y-32946956D01*
X38753387Y-32956921D01*
X38731443Y-32964773D01*
X38708834Y-32970437D01*
X38685779Y-32973856D01*
X38662500Y-32975000D01*
X38087500Y-32975000D01*
X38064221Y-32973856D01*
X38041166Y-32970437D01*
X38018557Y-32964773D01*
X37996613Y-32956921D01*
X37975543Y-32946956D01*
X37955552Y-32934974D01*
X37936832Y-32921090D01*
X37919562Y-32905438D01*
X37903910Y-32888168D01*
X37890026Y-32869448D01*
X37878044Y-32849457D01*
X37868079Y-32828387D01*
X37860227Y-32806443D01*
X37854563Y-32783834D01*
X37851144Y-32760779D01*
X37850000Y-32737500D01*
X37850000Y-32262500D01*
X37851144Y-32239221D01*
X37854563Y-32216166D01*
X37860227Y-32193557D01*
X37868079Y-32171613D01*
X37878044Y-32150543D01*
X37890026Y-32130552D01*
X37903910Y-32111832D01*
X37919562Y-32094562D01*
X37936832Y-32078910D01*
X37955552Y-32065026D01*
X37975543Y-32053044D01*
X37996613Y-32043079D01*
X38018557Y-32035227D01*
X38041166Y-32029563D01*
X38064221Y-32026144D01*
X38087500Y-32025000D01*
X38662500Y-32025000D01*
X38685779Y-32026144D01*
X38685779Y-32026144D01*
G37*
D21*
X38375000Y-32500000D03*
D20*
G36*
X36935779Y-32026144D02*
X36958834Y-32029563D01*
X36981443Y-32035227D01*
X37003387Y-32043079D01*
X37024457Y-32053044D01*
X37044448Y-32065026D01*
X37063168Y-32078910D01*
X37080438Y-32094562D01*
X37096090Y-32111832D01*
X37109974Y-32130552D01*
X37121956Y-32150543D01*
X37131921Y-32171613D01*
X37139773Y-32193557D01*
X37145437Y-32216166D01*
X37148856Y-32239221D01*
X37150000Y-32262500D01*
X37150000Y-32737500D01*
X37148856Y-32760779D01*
X37145437Y-32783834D01*
X37139773Y-32806443D01*
X37131921Y-32828387D01*
X37121956Y-32849457D01*
X37109974Y-32869448D01*
X37096090Y-32888168D01*
X37080438Y-32905438D01*
X37063168Y-32921090D01*
X37044448Y-32934974D01*
X37024457Y-32946956D01*
X37003387Y-32956921D01*
X36981443Y-32964773D01*
X36958834Y-32970437D01*
X36935779Y-32973856D01*
X36912500Y-32975000D01*
X36337500Y-32975000D01*
X36314221Y-32973856D01*
X36291166Y-32970437D01*
X36268557Y-32964773D01*
X36246613Y-32956921D01*
X36225543Y-32946956D01*
X36205552Y-32934974D01*
X36186832Y-32921090D01*
X36169562Y-32905438D01*
X36153910Y-32888168D01*
X36140026Y-32869448D01*
X36128044Y-32849457D01*
X36118079Y-32828387D01*
X36110227Y-32806443D01*
X36104563Y-32783834D01*
X36101144Y-32760779D01*
X36100000Y-32737500D01*
X36100000Y-32262500D01*
X36101144Y-32239221D01*
X36104563Y-32216166D01*
X36110227Y-32193557D01*
X36118079Y-32171613D01*
X36128044Y-32150543D01*
X36140026Y-32130552D01*
X36153910Y-32111832D01*
X36169562Y-32094562D01*
X36186832Y-32078910D01*
X36205552Y-32065026D01*
X36225543Y-32053044D01*
X36246613Y-32043079D01*
X36268557Y-32035227D01*
X36291166Y-32029563D01*
X36314221Y-32026144D01*
X36337500Y-32025000D01*
X36912500Y-32025000D01*
X36935779Y-32026144D01*
X36935779Y-32026144D01*
G37*
D21*
X36625000Y-32500000D03*
G04 #@! TD*
D20*
G04 #@! TO.C,R7*
G36*
X36935779Y-30276144D02*
X36958834Y-30279563D01*
X36981443Y-30285227D01*
X37003387Y-30293079D01*
X37024457Y-30303044D01*
X37044448Y-30315026D01*
X37063168Y-30328910D01*
X37080438Y-30344562D01*
X37096090Y-30361832D01*
X37109974Y-30380552D01*
X37121956Y-30400543D01*
X37131921Y-30421613D01*
X37139773Y-30443557D01*
X37145437Y-30466166D01*
X37148856Y-30489221D01*
X37150000Y-30512500D01*
X37150000Y-30987500D01*
X37148856Y-31010779D01*
X37145437Y-31033834D01*
X37139773Y-31056443D01*
X37131921Y-31078387D01*
X37121956Y-31099457D01*
X37109974Y-31119448D01*
X37096090Y-31138168D01*
X37080438Y-31155438D01*
X37063168Y-31171090D01*
X37044448Y-31184974D01*
X37024457Y-31196956D01*
X37003387Y-31206921D01*
X36981443Y-31214773D01*
X36958834Y-31220437D01*
X36935779Y-31223856D01*
X36912500Y-31225000D01*
X36337500Y-31225000D01*
X36314221Y-31223856D01*
X36291166Y-31220437D01*
X36268557Y-31214773D01*
X36246613Y-31206921D01*
X36225543Y-31196956D01*
X36205552Y-31184974D01*
X36186832Y-31171090D01*
X36169562Y-31155438D01*
X36153910Y-31138168D01*
X36140026Y-31119448D01*
X36128044Y-31099457D01*
X36118079Y-31078387D01*
X36110227Y-31056443D01*
X36104563Y-31033834D01*
X36101144Y-31010779D01*
X36100000Y-30987500D01*
X36100000Y-30512500D01*
X36101144Y-30489221D01*
X36104563Y-30466166D01*
X36110227Y-30443557D01*
X36118079Y-30421613D01*
X36128044Y-30400543D01*
X36140026Y-30380552D01*
X36153910Y-30361832D01*
X36169562Y-30344562D01*
X36186832Y-30328910D01*
X36205552Y-30315026D01*
X36225543Y-30303044D01*
X36246613Y-30293079D01*
X36268557Y-30285227D01*
X36291166Y-30279563D01*
X36314221Y-30276144D01*
X36337500Y-30275000D01*
X36912500Y-30275000D01*
X36935779Y-30276144D01*
X36935779Y-30276144D01*
G37*
D21*
X36625000Y-30750000D03*
D20*
G36*
X38685779Y-30276144D02*
X38708834Y-30279563D01*
X38731443Y-30285227D01*
X38753387Y-30293079D01*
X38774457Y-30303044D01*
X38794448Y-30315026D01*
X38813168Y-30328910D01*
X38830438Y-30344562D01*
X38846090Y-30361832D01*
X38859974Y-30380552D01*
X38871956Y-30400543D01*
X38881921Y-30421613D01*
X38889773Y-30443557D01*
X38895437Y-30466166D01*
X38898856Y-30489221D01*
X38900000Y-30512500D01*
X38900000Y-30987500D01*
X38898856Y-31010779D01*
X38895437Y-31033834D01*
X38889773Y-31056443D01*
X38881921Y-31078387D01*
X38871956Y-31099457D01*
X38859974Y-31119448D01*
X38846090Y-31138168D01*
X38830438Y-31155438D01*
X38813168Y-31171090D01*
X38794448Y-31184974D01*
X38774457Y-31196956D01*
X38753387Y-31206921D01*
X38731443Y-31214773D01*
X38708834Y-31220437D01*
X38685779Y-31223856D01*
X38662500Y-31225000D01*
X38087500Y-31225000D01*
X38064221Y-31223856D01*
X38041166Y-31220437D01*
X38018557Y-31214773D01*
X37996613Y-31206921D01*
X37975543Y-31196956D01*
X37955552Y-31184974D01*
X37936832Y-31171090D01*
X37919562Y-31155438D01*
X37903910Y-31138168D01*
X37890026Y-31119448D01*
X37878044Y-31099457D01*
X37868079Y-31078387D01*
X37860227Y-31056443D01*
X37854563Y-31033834D01*
X37851144Y-31010779D01*
X37850000Y-30987500D01*
X37850000Y-30512500D01*
X37851144Y-30489221D01*
X37854563Y-30466166D01*
X37860227Y-30443557D01*
X37868079Y-30421613D01*
X37878044Y-30400543D01*
X37890026Y-30380552D01*
X37903910Y-30361832D01*
X37919562Y-30344562D01*
X37936832Y-30328910D01*
X37955552Y-30315026D01*
X37975543Y-30303044D01*
X37996613Y-30293079D01*
X38018557Y-30285227D01*
X38041166Y-30279563D01*
X38064221Y-30276144D01*
X38087500Y-30275000D01*
X38662500Y-30275000D01*
X38685779Y-30276144D01*
X38685779Y-30276144D01*
G37*
D21*
X38375000Y-30750000D03*
G04 #@! TD*
D20*
G04 #@! TO.C,R9*
G36*
X65360779Y-27601144D02*
X65383834Y-27604563D01*
X65406443Y-27610227D01*
X65428387Y-27618079D01*
X65449457Y-27628044D01*
X65469448Y-27640026D01*
X65488168Y-27653910D01*
X65505438Y-27669562D01*
X65521090Y-27686832D01*
X65534974Y-27705552D01*
X65546956Y-27725543D01*
X65556921Y-27746613D01*
X65564773Y-27768557D01*
X65570437Y-27791166D01*
X65573856Y-27814221D01*
X65575000Y-27837500D01*
X65575000Y-28412500D01*
X65573856Y-28435779D01*
X65570437Y-28458834D01*
X65564773Y-28481443D01*
X65556921Y-28503387D01*
X65546956Y-28524457D01*
X65534974Y-28544448D01*
X65521090Y-28563168D01*
X65505438Y-28580438D01*
X65488168Y-28596090D01*
X65469448Y-28609974D01*
X65449457Y-28621956D01*
X65428387Y-28631921D01*
X65406443Y-28639773D01*
X65383834Y-28645437D01*
X65360779Y-28648856D01*
X65337500Y-28650000D01*
X64862500Y-28650000D01*
X64839221Y-28648856D01*
X64816166Y-28645437D01*
X64793557Y-28639773D01*
X64771613Y-28631921D01*
X64750543Y-28621956D01*
X64730552Y-28609974D01*
X64711832Y-28596090D01*
X64694562Y-28580438D01*
X64678910Y-28563168D01*
X64665026Y-28544448D01*
X64653044Y-28524457D01*
X64643079Y-28503387D01*
X64635227Y-28481443D01*
X64629563Y-28458834D01*
X64626144Y-28435779D01*
X64625000Y-28412500D01*
X64625000Y-27837500D01*
X64626144Y-27814221D01*
X64629563Y-27791166D01*
X64635227Y-27768557D01*
X64643079Y-27746613D01*
X64653044Y-27725543D01*
X64665026Y-27705552D01*
X64678910Y-27686832D01*
X64694562Y-27669562D01*
X64711832Y-27653910D01*
X64730552Y-27640026D01*
X64750543Y-27628044D01*
X64771613Y-27618079D01*
X64793557Y-27610227D01*
X64816166Y-27604563D01*
X64839221Y-27601144D01*
X64862500Y-27600000D01*
X65337500Y-27600000D01*
X65360779Y-27601144D01*
X65360779Y-27601144D01*
G37*
D21*
X65100000Y-28125000D03*
D20*
G36*
X65360779Y-25851144D02*
X65383834Y-25854563D01*
X65406443Y-25860227D01*
X65428387Y-25868079D01*
X65449457Y-25878044D01*
X65469448Y-25890026D01*
X65488168Y-25903910D01*
X65505438Y-25919562D01*
X65521090Y-25936832D01*
X65534974Y-25955552D01*
X65546956Y-25975543D01*
X65556921Y-25996613D01*
X65564773Y-26018557D01*
X65570437Y-26041166D01*
X65573856Y-26064221D01*
X65575000Y-26087500D01*
X65575000Y-26662500D01*
X65573856Y-26685779D01*
X65570437Y-26708834D01*
X65564773Y-26731443D01*
X65556921Y-26753387D01*
X65546956Y-26774457D01*
X65534974Y-26794448D01*
X65521090Y-26813168D01*
X65505438Y-26830438D01*
X65488168Y-26846090D01*
X65469448Y-26859974D01*
X65449457Y-26871956D01*
X65428387Y-26881921D01*
X65406443Y-26889773D01*
X65383834Y-26895437D01*
X65360779Y-26898856D01*
X65337500Y-26900000D01*
X64862500Y-26900000D01*
X64839221Y-26898856D01*
X64816166Y-26895437D01*
X64793557Y-26889773D01*
X64771613Y-26881921D01*
X64750543Y-26871956D01*
X64730552Y-26859974D01*
X64711832Y-26846090D01*
X64694562Y-26830438D01*
X64678910Y-26813168D01*
X64665026Y-26794448D01*
X64653044Y-26774457D01*
X64643079Y-26753387D01*
X64635227Y-26731443D01*
X64629563Y-26708834D01*
X64626144Y-26685779D01*
X64625000Y-26662500D01*
X64625000Y-26087500D01*
X64626144Y-26064221D01*
X64629563Y-26041166D01*
X64635227Y-26018557D01*
X64643079Y-25996613D01*
X64653044Y-25975543D01*
X64665026Y-25955552D01*
X64678910Y-25936832D01*
X64694562Y-25919562D01*
X64711832Y-25903910D01*
X64730552Y-25890026D01*
X64750543Y-25878044D01*
X64771613Y-25868079D01*
X64793557Y-25860227D01*
X64816166Y-25854563D01*
X64839221Y-25851144D01*
X64862500Y-25850000D01*
X65337500Y-25850000D01*
X65360779Y-25851144D01*
X65360779Y-25851144D01*
G37*
D21*
X65100000Y-26375000D03*
G04 #@! TD*
D20*
G04 #@! TO.C,R10*
G36*
X67060779Y-25851144D02*
X67083834Y-25854563D01*
X67106443Y-25860227D01*
X67128387Y-25868079D01*
X67149457Y-25878044D01*
X67169448Y-25890026D01*
X67188168Y-25903910D01*
X67205438Y-25919562D01*
X67221090Y-25936832D01*
X67234974Y-25955552D01*
X67246956Y-25975543D01*
X67256921Y-25996613D01*
X67264773Y-26018557D01*
X67270437Y-26041166D01*
X67273856Y-26064221D01*
X67275000Y-26087500D01*
X67275000Y-26662500D01*
X67273856Y-26685779D01*
X67270437Y-26708834D01*
X67264773Y-26731443D01*
X67256921Y-26753387D01*
X67246956Y-26774457D01*
X67234974Y-26794448D01*
X67221090Y-26813168D01*
X67205438Y-26830438D01*
X67188168Y-26846090D01*
X67169448Y-26859974D01*
X67149457Y-26871956D01*
X67128387Y-26881921D01*
X67106443Y-26889773D01*
X67083834Y-26895437D01*
X67060779Y-26898856D01*
X67037500Y-26900000D01*
X66562500Y-26900000D01*
X66539221Y-26898856D01*
X66516166Y-26895437D01*
X66493557Y-26889773D01*
X66471613Y-26881921D01*
X66450543Y-26871956D01*
X66430552Y-26859974D01*
X66411832Y-26846090D01*
X66394562Y-26830438D01*
X66378910Y-26813168D01*
X66365026Y-26794448D01*
X66353044Y-26774457D01*
X66343079Y-26753387D01*
X66335227Y-26731443D01*
X66329563Y-26708834D01*
X66326144Y-26685779D01*
X66325000Y-26662500D01*
X66325000Y-26087500D01*
X66326144Y-26064221D01*
X66329563Y-26041166D01*
X66335227Y-26018557D01*
X66343079Y-25996613D01*
X66353044Y-25975543D01*
X66365026Y-25955552D01*
X66378910Y-25936832D01*
X66394562Y-25919562D01*
X66411832Y-25903910D01*
X66430552Y-25890026D01*
X66450543Y-25878044D01*
X66471613Y-25868079D01*
X66493557Y-25860227D01*
X66516166Y-25854563D01*
X66539221Y-25851144D01*
X66562500Y-25850000D01*
X67037500Y-25850000D01*
X67060779Y-25851144D01*
X67060779Y-25851144D01*
G37*
D21*
X66800000Y-26375000D03*
D20*
G36*
X67060779Y-27601144D02*
X67083834Y-27604563D01*
X67106443Y-27610227D01*
X67128387Y-27618079D01*
X67149457Y-27628044D01*
X67169448Y-27640026D01*
X67188168Y-27653910D01*
X67205438Y-27669562D01*
X67221090Y-27686832D01*
X67234974Y-27705552D01*
X67246956Y-27725543D01*
X67256921Y-27746613D01*
X67264773Y-27768557D01*
X67270437Y-27791166D01*
X67273856Y-27814221D01*
X67275000Y-27837500D01*
X67275000Y-28412500D01*
X67273856Y-28435779D01*
X67270437Y-28458834D01*
X67264773Y-28481443D01*
X67256921Y-28503387D01*
X67246956Y-28524457D01*
X67234974Y-28544448D01*
X67221090Y-28563168D01*
X67205438Y-28580438D01*
X67188168Y-28596090D01*
X67169448Y-28609974D01*
X67149457Y-28621956D01*
X67128387Y-28631921D01*
X67106443Y-28639773D01*
X67083834Y-28645437D01*
X67060779Y-28648856D01*
X67037500Y-28650000D01*
X66562500Y-28650000D01*
X66539221Y-28648856D01*
X66516166Y-28645437D01*
X66493557Y-28639773D01*
X66471613Y-28631921D01*
X66450543Y-28621956D01*
X66430552Y-28609974D01*
X66411832Y-28596090D01*
X66394562Y-28580438D01*
X66378910Y-28563168D01*
X66365026Y-28544448D01*
X66353044Y-28524457D01*
X66343079Y-28503387D01*
X66335227Y-28481443D01*
X66329563Y-28458834D01*
X66326144Y-28435779D01*
X66325000Y-28412500D01*
X66325000Y-27837500D01*
X66326144Y-27814221D01*
X66329563Y-27791166D01*
X66335227Y-27768557D01*
X66343079Y-27746613D01*
X66353044Y-27725543D01*
X66365026Y-27705552D01*
X66378910Y-27686832D01*
X66394562Y-27669562D01*
X66411832Y-27653910D01*
X66430552Y-27640026D01*
X66450543Y-27628044D01*
X66471613Y-27618079D01*
X66493557Y-27610227D01*
X66516166Y-27604563D01*
X66539221Y-27601144D01*
X66562500Y-27600000D01*
X67037500Y-27600000D01*
X67060779Y-27601144D01*
X67060779Y-27601144D01*
G37*
D21*
X66800000Y-28125000D03*
G04 #@! TD*
D20*
G04 #@! TO.C,R11*
G36*
X58635779Y-33426144D02*
X58658834Y-33429563D01*
X58681443Y-33435227D01*
X58703387Y-33443079D01*
X58724457Y-33453044D01*
X58744448Y-33465026D01*
X58763168Y-33478910D01*
X58780438Y-33494562D01*
X58796090Y-33511832D01*
X58809974Y-33530552D01*
X58821956Y-33550543D01*
X58831921Y-33571613D01*
X58839773Y-33593557D01*
X58845437Y-33616166D01*
X58848856Y-33639221D01*
X58850000Y-33662500D01*
X58850000Y-34137500D01*
X58848856Y-34160779D01*
X58845437Y-34183834D01*
X58839773Y-34206443D01*
X58831921Y-34228387D01*
X58821956Y-34249457D01*
X58809974Y-34269448D01*
X58796090Y-34288168D01*
X58780438Y-34305438D01*
X58763168Y-34321090D01*
X58744448Y-34334974D01*
X58724457Y-34346956D01*
X58703387Y-34356921D01*
X58681443Y-34364773D01*
X58658834Y-34370437D01*
X58635779Y-34373856D01*
X58612500Y-34375000D01*
X58037500Y-34375000D01*
X58014221Y-34373856D01*
X57991166Y-34370437D01*
X57968557Y-34364773D01*
X57946613Y-34356921D01*
X57925543Y-34346956D01*
X57905552Y-34334974D01*
X57886832Y-34321090D01*
X57869562Y-34305438D01*
X57853910Y-34288168D01*
X57840026Y-34269448D01*
X57828044Y-34249457D01*
X57818079Y-34228387D01*
X57810227Y-34206443D01*
X57804563Y-34183834D01*
X57801144Y-34160779D01*
X57800000Y-34137500D01*
X57800000Y-33662500D01*
X57801144Y-33639221D01*
X57804563Y-33616166D01*
X57810227Y-33593557D01*
X57818079Y-33571613D01*
X57828044Y-33550543D01*
X57840026Y-33530552D01*
X57853910Y-33511832D01*
X57869562Y-33494562D01*
X57886832Y-33478910D01*
X57905552Y-33465026D01*
X57925543Y-33453044D01*
X57946613Y-33443079D01*
X57968557Y-33435227D01*
X57991166Y-33429563D01*
X58014221Y-33426144D01*
X58037500Y-33425000D01*
X58612500Y-33425000D01*
X58635779Y-33426144D01*
X58635779Y-33426144D01*
G37*
D21*
X58325000Y-33900000D03*
D20*
G36*
X56885779Y-33426144D02*
X56908834Y-33429563D01*
X56931443Y-33435227D01*
X56953387Y-33443079D01*
X56974457Y-33453044D01*
X56994448Y-33465026D01*
X57013168Y-33478910D01*
X57030438Y-33494562D01*
X57046090Y-33511832D01*
X57059974Y-33530552D01*
X57071956Y-33550543D01*
X57081921Y-33571613D01*
X57089773Y-33593557D01*
X57095437Y-33616166D01*
X57098856Y-33639221D01*
X57100000Y-33662500D01*
X57100000Y-34137500D01*
X57098856Y-34160779D01*
X57095437Y-34183834D01*
X57089773Y-34206443D01*
X57081921Y-34228387D01*
X57071956Y-34249457D01*
X57059974Y-34269448D01*
X57046090Y-34288168D01*
X57030438Y-34305438D01*
X57013168Y-34321090D01*
X56994448Y-34334974D01*
X56974457Y-34346956D01*
X56953387Y-34356921D01*
X56931443Y-34364773D01*
X56908834Y-34370437D01*
X56885779Y-34373856D01*
X56862500Y-34375000D01*
X56287500Y-34375000D01*
X56264221Y-34373856D01*
X56241166Y-34370437D01*
X56218557Y-34364773D01*
X56196613Y-34356921D01*
X56175543Y-34346956D01*
X56155552Y-34334974D01*
X56136832Y-34321090D01*
X56119562Y-34305438D01*
X56103910Y-34288168D01*
X56090026Y-34269448D01*
X56078044Y-34249457D01*
X56068079Y-34228387D01*
X56060227Y-34206443D01*
X56054563Y-34183834D01*
X56051144Y-34160779D01*
X56050000Y-34137500D01*
X56050000Y-33662500D01*
X56051144Y-33639221D01*
X56054563Y-33616166D01*
X56060227Y-33593557D01*
X56068079Y-33571613D01*
X56078044Y-33550543D01*
X56090026Y-33530552D01*
X56103910Y-33511832D01*
X56119562Y-33494562D01*
X56136832Y-33478910D01*
X56155552Y-33465026D01*
X56175543Y-33453044D01*
X56196613Y-33443079D01*
X56218557Y-33435227D01*
X56241166Y-33429563D01*
X56264221Y-33426144D01*
X56287500Y-33425000D01*
X56862500Y-33425000D01*
X56885779Y-33426144D01*
X56885779Y-33426144D01*
G37*
D21*
X56575000Y-33900000D03*
G04 #@! TD*
D20*
G04 #@! TO.C,R12*
G36*
X38685779Y-28526144D02*
X38708834Y-28529563D01*
X38731443Y-28535227D01*
X38753387Y-28543079D01*
X38774457Y-28553044D01*
X38794448Y-28565026D01*
X38813168Y-28578910D01*
X38830438Y-28594562D01*
X38846090Y-28611832D01*
X38859974Y-28630552D01*
X38871956Y-28650543D01*
X38881921Y-28671613D01*
X38889773Y-28693557D01*
X38895437Y-28716166D01*
X38898856Y-28739221D01*
X38900000Y-28762500D01*
X38900000Y-29237500D01*
X38898856Y-29260779D01*
X38895437Y-29283834D01*
X38889773Y-29306443D01*
X38881921Y-29328387D01*
X38871956Y-29349457D01*
X38859974Y-29369448D01*
X38846090Y-29388168D01*
X38830438Y-29405438D01*
X38813168Y-29421090D01*
X38794448Y-29434974D01*
X38774457Y-29446956D01*
X38753387Y-29456921D01*
X38731443Y-29464773D01*
X38708834Y-29470437D01*
X38685779Y-29473856D01*
X38662500Y-29475000D01*
X38087500Y-29475000D01*
X38064221Y-29473856D01*
X38041166Y-29470437D01*
X38018557Y-29464773D01*
X37996613Y-29456921D01*
X37975543Y-29446956D01*
X37955552Y-29434974D01*
X37936832Y-29421090D01*
X37919562Y-29405438D01*
X37903910Y-29388168D01*
X37890026Y-29369448D01*
X37878044Y-29349457D01*
X37868079Y-29328387D01*
X37860227Y-29306443D01*
X37854563Y-29283834D01*
X37851144Y-29260779D01*
X37850000Y-29237500D01*
X37850000Y-28762500D01*
X37851144Y-28739221D01*
X37854563Y-28716166D01*
X37860227Y-28693557D01*
X37868079Y-28671613D01*
X37878044Y-28650543D01*
X37890026Y-28630552D01*
X37903910Y-28611832D01*
X37919562Y-28594562D01*
X37936832Y-28578910D01*
X37955552Y-28565026D01*
X37975543Y-28553044D01*
X37996613Y-28543079D01*
X38018557Y-28535227D01*
X38041166Y-28529563D01*
X38064221Y-28526144D01*
X38087500Y-28525000D01*
X38662500Y-28525000D01*
X38685779Y-28526144D01*
X38685779Y-28526144D01*
G37*
D21*
X38375000Y-29000000D03*
D20*
G36*
X36935779Y-28526144D02*
X36958834Y-28529563D01*
X36981443Y-28535227D01*
X37003387Y-28543079D01*
X37024457Y-28553044D01*
X37044448Y-28565026D01*
X37063168Y-28578910D01*
X37080438Y-28594562D01*
X37096090Y-28611832D01*
X37109974Y-28630552D01*
X37121956Y-28650543D01*
X37131921Y-28671613D01*
X37139773Y-28693557D01*
X37145437Y-28716166D01*
X37148856Y-28739221D01*
X37150000Y-28762500D01*
X37150000Y-29237500D01*
X37148856Y-29260779D01*
X37145437Y-29283834D01*
X37139773Y-29306443D01*
X37131921Y-29328387D01*
X37121956Y-29349457D01*
X37109974Y-29369448D01*
X37096090Y-29388168D01*
X37080438Y-29405438D01*
X37063168Y-29421090D01*
X37044448Y-29434974D01*
X37024457Y-29446956D01*
X37003387Y-29456921D01*
X36981443Y-29464773D01*
X36958834Y-29470437D01*
X36935779Y-29473856D01*
X36912500Y-29475000D01*
X36337500Y-29475000D01*
X36314221Y-29473856D01*
X36291166Y-29470437D01*
X36268557Y-29464773D01*
X36246613Y-29456921D01*
X36225543Y-29446956D01*
X36205552Y-29434974D01*
X36186832Y-29421090D01*
X36169562Y-29405438D01*
X36153910Y-29388168D01*
X36140026Y-29369448D01*
X36128044Y-29349457D01*
X36118079Y-29328387D01*
X36110227Y-29306443D01*
X36104563Y-29283834D01*
X36101144Y-29260779D01*
X36100000Y-29237500D01*
X36100000Y-28762500D01*
X36101144Y-28739221D01*
X36104563Y-28716166D01*
X36110227Y-28693557D01*
X36118079Y-28671613D01*
X36128044Y-28650543D01*
X36140026Y-28630552D01*
X36153910Y-28611832D01*
X36169562Y-28594562D01*
X36186832Y-28578910D01*
X36205552Y-28565026D01*
X36225543Y-28553044D01*
X36246613Y-28543079D01*
X36268557Y-28535227D01*
X36291166Y-28529563D01*
X36314221Y-28526144D01*
X36337500Y-28525000D01*
X36912500Y-28525000D01*
X36935779Y-28526144D01*
X36935779Y-28526144D01*
G37*
D21*
X36625000Y-29000000D03*
G04 #@! TD*
D20*
G04 #@! TO.C,R13*
G36*
X38685779Y-26776144D02*
X38708834Y-26779563D01*
X38731443Y-26785227D01*
X38753387Y-26793079D01*
X38774457Y-26803044D01*
X38794448Y-26815026D01*
X38813168Y-26828910D01*
X38830438Y-26844562D01*
X38846090Y-26861832D01*
X38859974Y-26880552D01*
X38871956Y-26900543D01*
X38881921Y-26921613D01*
X38889773Y-26943557D01*
X38895437Y-26966166D01*
X38898856Y-26989221D01*
X38900000Y-27012500D01*
X38900000Y-27487500D01*
X38898856Y-27510779D01*
X38895437Y-27533834D01*
X38889773Y-27556443D01*
X38881921Y-27578387D01*
X38871956Y-27599457D01*
X38859974Y-27619448D01*
X38846090Y-27638168D01*
X38830438Y-27655438D01*
X38813168Y-27671090D01*
X38794448Y-27684974D01*
X38774457Y-27696956D01*
X38753387Y-27706921D01*
X38731443Y-27714773D01*
X38708834Y-27720437D01*
X38685779Y-27723856D01*
X38662500Y-27725000D01*
X38087500Y-27725000D01*
X38064221Y-27723856D01*
X38041166Y-27720437D01*
X38018557Y-27714773D01*
X37996613Y-27706921D01*
X37975543Y-27696956D01*
X37955552Y-27684974D01*
X37936832Y-27671090D01*
X37919562Y-27655438D01*
X37903910Y-27638168D01*
X37890026Y-27619448D01*
X37878044Y-27599457D01*
X37868079Y-27578387D01*
X37860227Y-27556443D01*
X37854563Y-27533834D01*
X37851144Y-27510779D01*
X37850000Y-27487500D01*
X37850000Y-27012500D01*
X37851144Y-26989221D01*
X37854563Y-26966166D01*
X37860227Y-26943557D01*
X37868079Y-26921613D01*
X37878044Y-26900543D01*
X37890026Y-26880552D01*
X37903910Y-26861832D01*
X37919562Y-26844562D01*
X37936832Y-26828910D01*
X37955552Y-26815026D01*
X37975543Y-26803044D01*
X37996613Y-26793079D01*
X38018557Y-26785227D01*
X38041166Y-26779563D01*
X38064221Y-26776144D01*
X38087500Y-26775000D01*
X38662500Y-26775000D01*
X38685779Y-26776144D01*
X38685779Y-26776144D01*
G37*
D21*
X38375000Y-27250000D03*
D20*
G36*
X36935779Y-26776144D02*
X36958834Y-26779563D01*
X36981443Y-26785227D01*
X37003387Y-26793079D01*
X37024457Y-26803044D01*
X37044448Y-26815026D01*
X37063168Y-26828910D01*
X37080438Y-26844562D01*
X37096090Y-26861832D01*
X37109974Y-26880552D01*
X37121956Y-26900543D01*
X37131921Y-26921613D01*
X37139773Y-26943557D01*
X37145437Y-26966166D01*
X37148856Y-26989221D01*
X37150000Y-27012500D01*
X37150000Y-27487500D01*
X37148856Y-27510779D01*
X37145437Y-27533834D01*
X37139773Y-27556443D01*
X37131921Y-27578387D01*
X37121956Y-27599457D01*
X37109974Y-27619448D01*
X37096090Y-27638168D01*
X37080438Y-27655438D01*
X37063168Y-27671090D01*
X37044448Y-27684974D01*
X37024457Y-27696956D01*
X37003387Y-27706921D01*
X36981443Y-27714773D01*
X36958834Y-27720437D01*
X36935779Y-27723856D01*
X36912500Y-27725000D01*
X36337500Y-27725000D01*
X36314221Y-27723856D01*
X36291166Y-27720437D01*
X36268557Y-27714773D01*
X36246613Y-27706921D01*
X36225543Y-27696956D01*
X36205552Y-27684974D01*
X36186832Y-27671090D01*
X36169562Y-27655438D01*
X36153910Y-27638168D01*
X36140026Y-27619448D01*
X36128044Y-27599457D01*
X36118079Y-27578387D01*
X36110227Y-27556443D01*
X36104563Y-27533834D01*
X36101144Y-27510779D01*
X36100000Y-27487500D01*
X36100000Y-27012500D01*
X36101144Y-26989221D01*
X36104563Y-26966166D01*
X36110227Y-26943557D01*
X36118079Y-26921613D01*
X36128044Y-26900543D01*
X36140026Y-26880552D01*
X36153910Y-26861832D01*
X36169562Y-26844562D01*
X36186832Y-26828910D01*
X36205552Y-26815026D01*
X36225543Y-26803044D01*
X36246613Y-26793079D01*
X36268557Y-26785227D01*
X36291166Y-26779563D01*
X36314221Y-26776144D01*
X36337500Y-26775000D01*
X36912500Y-26775000D01*
X36935779Y-26776144D01*
X36935779Y-26776144D01*
G37*
D21*
X36625000Y-27250000D03*
G04 #@! TD*
D20*
G04 #@! TO.C,R14*
G36*
X36935779Y-25026144D02*
X36958834Y-25029563D01*
X36981443Y-25035227D01*
X37003387Y-25043079D01*
X37024457Y-25053044D01*
X37044448Y-25065026D01*
X37063168Y-25078910D01*
X37080438Y-25094562D01*
X37096090Y-25111832D01*
X37109974Y-25130552D01*
X37121956Y-25150543D01*
X37131921Y-25171613D01*
X37139773Y-25193557D01*
X37145437Y-25216166D01*
X37148856Y-25239221D01*
X37150000Y-25262500D01*
X37150000Y-25737500D01*
X37148856Y-25760779D01*
X37145437Y-25783834D01*
X37139773Y-25806443D01*
X37131921Y-25828387D01*
X37121956Y-25849457D01*
X37109974Y-25869448D01*
X37096090Y-25888168D01*
X37080438Y-25905438D01*
X37063168Y-25921090D01*
X37044448Y-25934974D01*
X37024457Y-25946956D01*
X37003387Y-25956921D01*
X36981443Y-25964773D01*
X36958834Y-25970437D01*
X36935779Y-25973856D01*
X36912500Y-25975000D01*
X36337500Y-25975000D01*
X36314221Y-25973856D01*
X36291166Y-25970437D01*
X36268557Y-25964773D01*
X36246613Y-25956921D01*
X36225543Y-25946956D01*
X36205552Y-25934974D01*
X36186832Y-25921090D01*
X36169562Y-25905438D01*
X36153910Y-25888168D01*
X36140026Y-25869448D01*
X36128044Y-25849457D01*
X36118079Y-25828387D01*
X36110227Y-25806443D01*
X36104563Y-25783834D01*
X36101144Y-25760779D01*
X36100000Y-25737500D01*
X36100000Y-25262500D01*
X36101144Y-25239221D01*
X36104563Y-25216166D01*
X36110227Y-25193557D01*
X36118079Y-25171613D01*
X36128044Y-25150543D01*
X36140026Y-25130552D01*
X36153910Y-25111832D01*
X36169562Y-25094562D01*
X36186832Y-25078910D01*
X36205552Y-25065026D01*
X36225543Y-25053044D01*
X36246613Y-25043079D01*
X36268557Y-25035227D01*
X36291166Y-25029563D01*
X36314221Y-25026144D01*
X36337500Y-25025000D01*
X36912500Y-25025000D01*
X36935779Y-25026144D01*
X36935779Y-25026144D01*
G37*
D21*
X36625000Y-25500000D03*
D20*
G36*
X38685779Y-25026144D02*
X38708834Y-25029563D01*
X38731443Y-25035227D01*
X38753387Y-25043079D01*
X38774457Y-25053044D01*
X38794448Y-25065026D01*
X38813168Y-25078910D01*
X38830438Y-25094562D01*
X38846090Y-25111832D01*
X38859974Y-25130552D01*
X38871956Y-25150543D01*
X38881921Y-25171613D01*
X38889773Y-25193557D01*
X38895437Y-25216166D01*
X38898856Y-25239221D01*
X38900000Y-25262500D01*
X38900000Y-25737500D01*
X38898856Y-25760779D01*
X38895437Y-25783834D01*
X38889773Y-25806443D01*
X38881921Y-25828387D01*
X38871956Y-25849457D01*
X38859974Y-25869448D01*
X38846090Y-25888168D01*
X38830438Y-25905438D01*
X38813168Y-25921090D01*
X38794448Y-25934974D01*
X38774457Y-25946956D01*
X38753387Y-25956921D01*
X38731443Y-25964773D01*
X38708834Y-25970437D01*
X38685779Y-25973856D01*
X38662500Y-25975000D01*
X38087500Y-25975000D01*
X38064221Y-25973856D01*
X38041166Y-25970437D01*
X38018557Y-25964773D01*
X37996613Y-25956921D01*
X37975543Y-25946956D01*
X37955552Y-25934974D01*
X37936832Y-25921090D01*
X37919562Y-25905438D01*
X37903910Y-25888168D01*
X37890026Y-25869448D01*
X37878044Y-25849457D01*
X37868079Y-25828387D01*
X37860227Y-25806443D01*
X37854563Y-25783834D01*
X37851144Y-25760779D01*
X37850000Y-25737500D01*
X37850000Y-25262500D01*
X37851144Y-25239221D01*
X37854563Y-25216166D01*
X37860227Y-25193557D01*
X37868079Y-25171613D01*
X37878044Y-25150543D01*
X37890026Y-25130552D01*
X37903910Y-25111832D01*
X37919562Y-25094562D01*
X37936832Y-25078910D01*
X37955552Y-25065026D01*
X37975543Y-25053044D01*
X37996613Y-25043079D01*
X38018557Y-25035227D01*
X38041166Y-25029563D01*
X38064221Y-25026144D01*
X38087500Y-25025000D01*
X38662500Y-25025000D01*
X38685779Y-25026144D01*
X38685779Y-25026144D01*
G37*
D21*
X38375000Y-25500000D03*
G04 #@! TD*
D20*
G04 #@! TO.C,R15*
G36*
X38685779Y-23276144D02*
X38708834Y-23279563D01*
X38731443Y-23285227D01*
X38753387Y-23293079D01*
X38774457Y-23303044D01*
X38794448Y-23315026D01*
X38813168Y-23328910D01*
X38830438Y-23344562D01*
X38846090Y-23361832D01*
X38859974Y-23380552D01*
X38871956Y-23400543D01*
X38881921Y-23421613D01*
X38889773Y-23443557D01*
X38895437Y-23466166D01*
X38898856Y-23489221D01*
X38900000Y-23512500D01*
X38900000Y-23987500D01*
X38898856Y-24010779D01*
X38895437Y-24033834D01*
X38889773Y-24056443D01*
X38881921Y-24078387D01*
X38871956Y-24099457D01*
X38859974Y-24119448D01*
X38846090Y-24138168D01*
X38830438Y-24155438D01*
X38813168Y-24171090D01*
X38794448Y-24184974D01*
X38774457Y-24196956D01*
X38753387Y-24206921D01*
X38731443Y-24214773D01*
X38708834Y-24220437D01*
X38685779Y-24223856D01*
X38662500Y-24225000D01*
X38087500Y-24225000D01*
X38064221Y-24223856D01*
X38041166Y-24220437D01*
X38018557Y-24214773D01*
X37996613Y-24206921D01*
X37975543Y-24196956D01*
X37955552Y-24184974D01*
X37936832Y-24171090D01*
X37919562Y-24155438D01*
X37903910Y-24138168D01*
X37890026Y-24119448D01*
X37878044Y-24099457D01*
X37868079Y-24078387D01*
X37860227Y-24056443D01*
X37854563Y-24033834D01*
X37851144Y-24010779D01*
X37850000Y-23987500D01*
X37850000Y-23512500D01*
X37851144Y-23489221D01*
X37854563Y-23466166D01*
X37860227Y-23443557D01*
X37868079Y-23421613D01*
X37878044Y-23400543D01*
X37890026Y-23380552D01*
X37903910Y-23361832D01*
X37919562Y-23344562D01*
X37936832Y-23328910D01*
X37955552Y-23315026D01*
X37975543Y-23303044D01*
X37996613Y-23293079D01*
X38018557Y-23285227D01*
X38041166Y-23279563D01*
X38064221Y-23276144D01*
X38087500Y-23275000D01*
X38662500Y-23275000D01*
X38685779Y-23276144D01*
X38685779Y-23276144D01*
G37*
D21*
X38375000Y-23750000D03*
D20*
G36*
X36935779Y-23276144D02*
X36958834Y-23279563D01*
X36981443Y-23285227D01*
X37003387Y-23293079D01*
X37024457Y-23303044D01*
X37044448Y-23315026D01*
X37063168Y-23328910D01*
X37080438Y-23344562D01*
X37096090Y-23361832D01*
X37109974Y-23380552D01*
X37121956Y-23400543D01*
X37131921Y-23421613D01*
X37139773Y-23443557D01*
X37145437Y-23466166D01*
X37148856Y-23489221D01*
X37150000Y-23512500D01*
X37150000Y-23987500D01*
X37148856Y-24010779D01*
X37145437Y-24033834D01*
X37139773Y-24056443D01*
X37131921Y-24078387D01*
X37121956Y-24099457D01*
X37109974Y-24119448D01*
X37096090Y-24138168D01*
X37080438Y-24155438D01*
X37063168Y-24171090D01*
X37044448Y-24184974D01*
X37024457Y-24196956D01*
X37003387Y-24206921D01*
X36981443Y-24214773D01*
X36958834Y-24220437D01*
X36935779Y-24223856D01*
X36912500Y-24225000D01*
X36337500Y-24225000D01*
X36314221Y-24223856D01*
X36291166Y-24220437D01*
X36268557Y-24214773D01*
X36246613Y-24206921D01*
X36225543Y-24196956D01*
X36205552Y-24184974D01*
X36186832Y-24171090D01*
X36169562Y-24155438D01*
X36153910Y-24138168D01*
X36140026Y-24119448D01*
X36128044Y-24099457D01*
X36118079Y-24078387D01*
X36110227Y-24056443D01*
X36104563Y-24033834D01*
X36101144Y-24010779D01*
X36100000Y-23987500D01*
X36100000Y-23512500D01*
X36101144Y-23489221D01*
X36104563Y-23466166D01*
X36110227Y-23443557D01*
X36118079Y-23421613D01*
X36128044Y-23400543D01*
X36140026Y-23380552D01*
X36153910Y-23361832D01*
X36169562Y-23344562D01*
X36186832Y-23328910D01*
X36205552Y-23315026D01*
X36225543Y-23303044D01*
X36246613Y-23293079D01*
X36268557Y-23285227D01*
X36291166Y-23279563D01*
X36314221Y-23276144D01*
X36337500Y-23275000D01*
X36912500Y-23275000D01*
X36935779Y-23276144D01*
X36935779Y-23276144D01*
G37*
D21*
X36625000Y-23750000D03*
G04 #@! TD*
D20*
G04 #@! TO.C,R16*
G36*
X36935779Y-21526144D02*
X36958834Y-21529563D01*
X36981443Y-21535227D01*
X37003387Y-21543079D01*
X37024457Y-21553044D01*
X37044448Y-21565026D01*
X37063168Y-21578910D01*
X37080438Y-21594562D01*
X37096090Y-21611832D01*
X37109974Y-21630552D01*
X37121956Y-21650543D01*
X37131921Y-21671613D01*
X37139773Y-21693557D01*
X37145437Y-21716166D01*
X37148856Y-21739221D01*
X37150000Y-21762500D01*
X37150000Y-22237500D01*
X37148856Y-22260779D01*
X37145437Y-22283834D01*
X37139773Y-22306443D01*
X37131921Y-22328387D01*
X37121956Y-22349457D01*
X37109974Y-22369448D01*
X37096090Y-22388168D01*
X37080438Y-22405438D01*
X37063168Y-22421090D01*
X37044448Y-22434974D01*
X37024457Y-22446956D01*
X37003387Y-22456921D01*
X36981443Y-22464773D01*
X36958834Y-22470437D01*
X36935779Y-22473856D01*
X36912500Y-22475000D01*
X36337500Y-22475000D01*
X36314221Y-22473856D01*
X36291166Y-22470437D01*
X36268557Y-22464773D01*
X36246613Y-22456921D01*
X36225543Y-22446956D01*
X36205552Y-22434974D01*
X36186832Y-22421090D01*
X36169562Y-22405438D01*
X36153910Y-22388168D01*
X36140026Y-22369448D01*
X36128044Y-22349457D01*
X36118079Y-22328387D01*
X36110227Y-22306443D01*
X36104563Y-22283834D01*
X36101144Y-22260779D01*
X36100000Y-22237500D01*
X36100000Y-21762500D01*
X36101144Y-21739221D01*
X36104563Y-21716166D01*
X36110227Y-21693557D01*
X36118079Y-21671613D01*
X36128044Y-21650543D01*
X36140026Y-21630552D01*
X36153910Y-21611832D01*
X36169562Y-21594562D01*
X36186832Y-21578910D01*
X36205552Y-21565026D01*
X36225543Y-21553044D01*
X36246613Y-21543079D01*
X36268557Y-21535227D01*
X36291166Y-21529563D01*
X36314221Y-21526144D01*
X36337500Y-21525000D01*
X36912500Y-21525000D01*
X36935779Y-21526144D01*
X36935779Y-21526144D01*
G37*
D21*
X36625000Y-22000000D03*
D20*
G36*
X38685779Y-21526144D02*
X38708834Y-21529563D01*
X38731443Y-21535227D01*
X38753387Y-21543079D01*
X38774457Y-21553044D01*
X38794448Y-21565026D01*
X38813168Y-21578910D01*
X38830438Y-21594562D01*
X38846090Y-21611832D01*
X38859974Y-21630552D01*
X38871956Y-21650543D01*
X38881921Y-21671613D01*
X38889773Y-21693557D01*
X38895437Y-21716166D01*
X38898856Y-21739221D01*
X38900000Y-21762500D01*
X38900000Y-22237500D01*
X38898856Y-22260779D01*
X38895437Y-22283834D01*
X38889773Y-22306443D01*
X38881921Y-22328387D01*
X38871956Y-22349457D01*
X38859974Y-22369448D01*
X38846090Y-22388168D01*
X38830438Y-22405438D01*
X38813168Y-22421090D01*
X38794448Y-22434974D01*
X38774457Y-22446956D01*
X38753387Y-22456921D01*
X38731443Y-22464773D01*
X38708834Y-22470437D01*
X38685779Y-22473856D01*
X38662500Y-22475000D01*
X38087500Y-22475000D01*
X38064221Y-22473856D01*
X38041166Y-22470437D01*
X38018557Y-22464773D01*
X37996613Y-22456921D01*
X37975543Y-22446956D01*
X37955552Y-22434974D01*
X37936832Y-22421090D01*
X37919562Y-22405438D01*
X37903910Y-22388168D01*
X37890026Y-22369448D01*
X37878044Y-22349457D01*
X37868079Y-22328387D01*
X37860227Y-22306443D01*
X37854563Y-22283834D01*
X37851144Y-22260779D01*
X37850000Y-22237500D01*
X37850000Y-21762500D01*
X37851144Y-21739221D01*
X37854563Y-21716166D01*
X37860227Y-21693557D01*
X37868079Y-21671613D01*
X37878044Y-21650543D01*
X37890026Y-21630552D01*
X37903910Y-21611832D01*
X37919562Y-21594562D01*
X37936832Y-21578910D01*
X37955552Y-21565026D01*
X37975543Y-21553044D01*
X37996613Y-21543079D01*
X38018557Y-21535227D01*
X38041166Y-21529563D01*
X38064221Y-21526144D01*
X38087500Y-21525000D01*
X38662500Y-21525000D01*
X38685779Y-21526144D01*
X38685779Y-21526144D01*
G37*
D21*
X38375000Y-22000000D03*
G04 #@! TD*
D20*
G04 #@! TO.C,R17*
G36*
X76460779Y-28101144D02*
X76483834Y-28104563D01*
X76506443Y-28110227D01*
X76528387Y-28118079D01*
X76549457Y-28128044D01*
X76569448Y-28140026D01*
X76588168Y-28153910D01*
X76605438Y-28169562D01*
X76621090Y-28186832D01*
X76634974Y-28205552D01*
X76646956Y-28225543D01*
X76656921Y-28246613D01*
X76664773Y-28268557D01*
X76670437Y-28291166D01*
X76673856Y-28314221D01*
X76675000Y-28337500D01*
X76675000Y-28912500D01*
X76673856Y-28935779D01*
X76670437Y-28958834D01*
X76664773Y-28981443D01*
X76656921Y-29003387D01*
X76646956Y-29024457D01*
X76634974Y-29044448D01*
X76621090Y-29063168D01*
X76605438Y-29080438D01*
X76588168Y-29096090D01*
X76569448Y-29109974D01*
X76549457Y-29121956D01*
X76528387Y-29131921D01*
X76506443Y-29139773D01*
X76483834Y-29145437D01*
X76460779Y-29148856D01*
X76437500Y-29150000D01*
X75962500Y-29150000D01*
X75939221Y-29148856D01*
X75916166Y-29145437D01*
X75893557Y-29139773D01*
X75871613Y-29131921D01*
X75850543Y-29121956D01*
X75830552Y-29109974D01*
X75811832Y-29096090D01*
X75794562Y-29080438D01*
X75778910Y-29063168D01*
X75765026Y-29044448D01*
X75753044Y-29024457D01*
X75743079Y-29003387D01*
X75735227Y-28981443D01*
X75729563Y-28958834D01*
X75726144Y-28935779D01*
X75725000Y-28912500D01*
X75725000Y-28337500D01*
X75726144Y-28314221D01*
X75729563Y-28291166D01*
X75735227Y-28268557D01*
X75743079Y-28246613D01*
X75753044Y-28225543D01*
X75765026Y-28205552D01*
X75778910Y-28186832D01*
X75794562Y-28169562D01*
X75811832Y-28153910D01*
X75830552Y-28140026D01*
X75850543Y-28128044D01*
X75871613Y-28118079D01*
X75893557Y-28110227D01*
X75916166Y-28104563D01*
X75939221Y-28101144D01*
X75962500Y-28100000D01*
X76437500Y-28100000D01*
X76460779Y-28101144D01*
X76460779Y-28101144D01*
G37*
D21*
X76200000Y-28625000D03*
D20*
G36*
X76460779Y-29851144D02*
X76483834Y-29854563D01*
X76506443Y-29860227D01*
X76528387Y-29868079D01*
X76549457Y-29878044D01*
X76569448Y-29890026D01*
X76588168Y-29903910D01*
X76605438Y-29919562D01*
X76621090Y-29936832D01*
X76634974Y-29955552D01*
X76646956Y-29975543D01*
X76656921Y-29996613D01*
X76664773Y-30018557D01*
X76670437Y-30041166D01*
X76673856Y-30064221D01*
X76675000Y-30087500D01*
X76675000Y-30662500D01*
X76673856Y-30685779D01*
X76670437Y-30708834D01*
X76664773Y-30731443D01*
X76656921Y-30753387D01*
X76646956Y-30774457D01*
X76634974Y-30794448D01*
X76621090Y-30813168D01*
X76605438Y-30830438D01*
X76588168Y-30846090D01*
X76569448Y-30859974D01*
X76549457Y-30871956D01*
X76528387Y-30881921D01*
X76506443Y-30889773D01*
X76483834Y-30895437D01*
X76460779Y-30898856D01*
X76437500Y-30900000D01*
X75962500Y-30900000D01*
X75939221Y-30898856D01*
X75916166Y-30895437D01*
X75893557Y-30889773D01*
X75871613Y-30881921D01*
X75850543Y-30871956D01*
X75830552Y-30859974D01*
X75811832Y-30846090D01*
X75794562Y-30830438D01*
X75778910Y-30813168D01*
X75765026Y-30794448D01*
X75753044Y-30774457D01*
X75743079Y-30753387D01*
X75735227Y-30731443D01*
X75729563Y-30708834D01*
X75726144Y-30685779D01*
X75725000Y-30662500D01*
X75725000Y-30087500D01*
X75726144Y-30064221D01*
X75729563Y-30041166D01*
X75735227Y-30018557D01*
X75743079Y-29996613D01*
X75753044Y-29975543D01*
X75765026Y-29955552D01*
X75778910Y-29936832D01*
X75794562Y-29919562D01*
X75811832Y-29903910D01*
X75830552Y-29890026D01*
X75850543Y-29878044D01*
X75871613Y-29868079D01*
X75893557Y-29860227D01*
X75916166Y-29854563D01*
X75939221Y-29851144D01*
X75962500Y-29850000D01*
X76437500Y-29850000D01*
X76460779Y-29851144D01*
X76460779Y-29851144D01*
G37*
D21*
X76200000Y-30375000D03*
G04 #@! TD*
D20*
G04 #@! TO.C,R18*
G36*
X78460779Y-29851144D02*
X78483834Y-29854563D01*
X78506443Y-29860227D01*
X78528387Y-29868079D01*
X78549457Y-29878044D01*
X78569448Y-29890026D01*
X78588168Y-29903910D01*
X78605438Y-29919562D01*
X78621090Y-29936832D01*
X78634974Y-29955552D01*
X78646956Y-29975543D01*
X78656921Y-29996613D01*
X78664773Y-30018557D01*
X78670437Y-30041166D01*
X78673856Y-30064221D01*
X78675000Y-30087500D01*
X78675000Y-30662500D01*
X78673856Y-30685779D01*
X78670437Y-30708834D01*
X78664773Y-30731443D01*
X78656921Y-30753387D01*
X78646956Y-30774457D01*
X78634974Y-30794448D01*
X78621090Y-30813168D01*
X78605438Y-30830438D01*
X78588168Y-30846090D01*
X78569448Y-30859974D01*
X78549457Y-30871956D01*
X78528387Y-30881921D01*
X78506443Y-30889773D01*
X78483834Y-30895437D01*
X78460779Y-30898856D01*
X78437500Y-30900000D01*
X77962500Y-30900000D01*
X77939221Y-30898856D01*
X77916166Y-30895437D01*
X77893557Y-30889773D01*
X77871613Y-30881921D01*
X77850543Y-30871956D01*
X77830552Y-30859974D01*
X77811832Y-30846090D01*
X77794562Y-30830438D01*
X77778910Y-30813168D01*
X77765026Y-30794448D01*
X77753044Y-30774457D01*
X77743079Y-30753387D01*
X77735227Y-30731443D01*
X77729563Y-30708834D01*
X77726144Y-30685779D01*
X77725000Y-30662500D01*
X77725000Y-30087500D01*
X77726144Y-30064221D01*
X77729563Y-30041166D01*
X77735227Y-30018557D01*
X77743079Y-29996613D01*
X77753044Y-29975543D01*
X77765026Y-29955552D01*
X77778910Y-29936832D01*
X77794562Y-29919562D01*
X77811832Y-29903910D01*
X77830552Y-29890026D01*
X77850543Y-29878044D01*
X77871613Y-29868079D01*
X77893557Y-29860227D01*
X77916166Y-29854563D01*
X77939221Y-29851144D01*
X77962500Y-29850000D01*
X78437500Y-29850000D01*
X78460779Y-29851144D01*
X78460779Y-29851144D01*
G37*
D21*
X78200000Y-30375000D03*
D20*
G36*
X78460779Y-28101144D02*
X78483834Y-28104563D01*
X78506443Y-28110227D01*
X78528387Y-28118079D01*
X78549457Y-28128044D01*
X78569448Y-28140026D01*
X78588168Y-28153910D01*
X78605438Y-28169562D01*
X78621090Y-28186832D01*
X78634974Y-28205552D01*
X78646956Y-28225543D01*
X78656921Y-28246613D01*
X78664773Y-28268557D01*
X78670437Y-28291166D01*
X78673856Y-28314221D01*
X78675000Y-28337500D01*
X78675000Y-28912500D01*
X78673856Y-28935779D01*
X78670437Y-28958834D01*
X78664773Y-28981443D01*
X78656921Y-29003387D01*
X78646956Y-29024457D01*
X78634974Y-29044448D01*
X78621090Y-29063168D01*
X78605438Y-29080438D01*
X78588168Y-29096090D01*
X78569448Y-29109974D01*
X78549457Y-29121956D01*
X78528387Y-29131921D01*
X78506443Y-29139773D01*
X78483834Y-29145437D01*
X78460779Y-29148856D01*
X78437500Y-29150000D01*
X77962500Y-29150000D01*
X77939221Y-29148856D01*
X77916166Y-29145437D01*
X77893557Y-29139773D01*
X77871613Y-29131921D01*
X77850543Y-29121956D01*
X77830552Y-29109974D01*
X77811832Y-29096090D01*
X77794562Y-29080438D01*
X77778910Y-29063168D01*
X77765026Y-29044448D01*
X77753044Y-29024457D01*
X77743079Y-29003387D01*
X77735227Y-28981443D01*
X77729563Y-28958834D01*
X77726144Y-28935779D01*
X77725000Y-28912500D01*
X77725000Y-28337500D01*
X77726144Y-28314221D01*
X77729563Y-28291166D01*
X77735227Y-28268557D01*
X77743079Y-28246613D01*
X77753044Y-28225543D01*
X77765026Y-28205552D01*
X77778910Y-28186832D01*
X77794562Y-28169562D01*
X77811832Y-28153910D01*
X77830552Y-28140026D01*
X77850543Y-28128044D01*
X77871613Y-28118079D01*
X77893557Y-28110227D01*
X77916166Y-28104563D01*
X77939221Y-28101144D01*
X77962500Y-28100000D01*
X78437500Y-28100000D01*
X78460779Y-28101144D01*
X78460779Y-28101144D01*
G37*
D21*
X78200000Y-28625000D03*
G04 #@! TD*
D25*
G04 #@! TO.C,U4*
X48100000Y-58200000D03*
X48100000Y-57700000D03*
X48100000Y-57200000D03*
X48100000Y-56700000D03*
X48100000Y-56200000D03*
X43700000Y-56200000D03*
X43700000Y-56700000D03*
X43700000Y-57200000D03*
X43700000Y-57700000D03*
X43700000Y-58200000D03*
G04 #@! TD*
D26*
G04 #@! TO.C,U5*
X66000000Y-22500000D03*
X66000000Y-22100000D03*
X66000000Y-21700000D03*
X66000000Y-21300000D03*
X66000000Y-20900000D03*
X66000000Y-20500000D03*
D27*
X65500000Y-20000000D03*
X65100000Y-20000000D03*
X64700000Y-20000000D03*
X64300000Y-20000000D03*
X63900000Y-20000000D03*
X63500000Y-20000000D03*
D26*
X63000000Y-20500000D03*
X63000000Y-20900000D03*
X63000000Y-21300000D03*
X63000000Y-21700000D03*
X63000000Y-22100000D03*
X63000000Y-22500000D03*
D27*
X63500000Y-23000000D03*
X63900000Y-23000000D03*
X64300000Y-23000000D03*
X64700000Y-23000000D03*
X65100000Y-23000000D03*
X65500000Y-23000000D03*
G04 #@! TD*
D28*
G04 #@! TO.C,U6*
X88050000Y-58660000D03*
D20*
G36*
X87950000Y-59010000D02*
X87950000Y-58310000D01*
X88150000Y-58310000D01*
X88150000Y-59010000D01*
X87950000Y-59010000D01*
X87950000Y-59010000D01*
G37*
D28*
X88450000Y-58660000D03*
D20*
G36*
X88350000Y-59010000D02*
X88350000Y-58310000D01*
X88550000Y-58310000D01*
X88550000Y-59010000D01*
X88350000Y-59010000D01*
X88350000Y-59010000D01*
G37*
D28*
X88850000Y-58660000D03*
D20*
G36*
X88750000Y-59010000D02*
X88750000Y-58310000D01*
X88950000Y-58310000D01*
X88950000Y-59010000D01*
X88750000Y-59010000D01*
X88750000Y-59010000D01*
G37*
D28*
X89250000Y-58660000D03*
D20*
G36*
X89150000Y-59010000D02*
X89150000Y-58310000D01*
X89350000Y-58310000D01*
X89350000Y-59010000D01*
X89150000Y-59010000D01*
X89150000Y-59010000D01*
G37*
D28*
X89650000Y-58660000D03*
D20*
G36*
X89550000Y-59010000D02*
X89550000Y-58310000D01*
X89750000Y-58310000D01*
X89750000Y-59010000D01*
X89550000Y-59010000D01*
X89550000Y-59010000D01*
G37*
D28*
X90050000Y-58660000D03*
D20*
G36*
X89950000Y-59010000D02*
X89950000Y-58310000D01*
X90150000Y-58310000D01*
X90150000Y-59010000D01*
X89950000Y-59010000D01*
X89950000Y-59010000D01*
G37*
D28*
X90450000Y-58660000D03*
D20*
G36*
X90350000Y-59010000D02*
X90350000Y-58310000D01*
X90550000Y-58310000D01*
X90550000Y-59010000D01*
X90350000Y-59010000D01*
X90350000Y-59010000D01*
G37*
D28*
X90850000Y-58660000D03*
D20*
G36*
X90750000Y-59010000D02*
X90750000Y-58310000D01*
X90950000Y-58310000D01*
X90950000Y-59010000D01*
X90750000Y-59010000D01*
X90750000Y-59010000D01*
G37*
D28*
X91250000Y-58660000D03*
D20*
G36*
X91150000Y-59010000D02*
X91150000Y-58310000D01*
X91350000Y-58310000D01*
X91350000Y-59010000D01*
X91150000Y-59010000D01*
X91150000Y-59010000D01*
G37*
D28*
X91650000Y-58660000D03*
D20*
G36*
X91550000Y-59010000D02*
X91550000Y-58310000D01*
X91750000Y-58310000D01*
X91750000Y-59010000D01*
X91550000Y-59010000D01*
X91550000Y-59010000D01*
G37*
D28*
X91650000Y-61740000D03*
D20*
G36*
X91550000Y-62090000D02*
X91550000Y-61390000D01*
X91750000Y-61390000D01*
X91750000Y-62090000D01*
X91550000Y-62090000D01*
X91550000Y-62090000D01*
G37*
D28*
X91250000Y-61740000D03*
D20*
G36*
X91150000Y-62090000D02*
X91150000Y-61390000D01*
X91350000Y-61390000D01*
X91350000Y-62090000D01*
X91150000Y-62090000D01*
X91150000Y-62090000D01*
G37*
D28*
X90850000Y-61740000D03*
D20*
G36*
X90750000Y-62090000D02*
X90750000Y-61390000D01*
X90950000Y-61390000D01*
X90950000Y-62090000D01*
X90750000Y-62090000D01*
X90750000Y-62090000D01*
G37*
D28*
X90450000Y-61740000D03*
D20*
G36*
X90350000Y-62090000D02*
X90350000Y-61390000D01*
X90550000Y-61390000D01*
X90550000Y-62090000D01*
X90350000Y-62090000D01*
X90350000Y-62090000D01*
G37*
D28*
X90050000Y-61740000D03*
D20*
G36*
X89950000Y-62090000D02*
X89950000Y-61390000D01*
X90150000Y-61390000D01*
X90150000Y-62090000D01*
X89950000Y-62090000D01*
X89950000Y-62090000D01*
G37*
D28*
X89650000Y-61740000D03*
D20*
G36*
X89550000Y-62090000D02*
X89550000Y-61390000D01*
X89750000Y-61390000D01*
X89750000Y-62090000D01*
X89550000Y-62090000D01*
X89550000Y-62090000D01*
G37*
D28*
X89250000Y-61740000D03*
D20*
G36*
X89150000Y-62090000D02*
X89150000Y-61390000D01*
X89350000Y-61390000D01*
X89350000Y-62090000D01*
X89150000Y-62090000D01*
X89150000Y-62090000D01*
G37*
D28*
X88850000Y-61740000D03*
D20*
G36*
X88750000Y-62090000D02*
X88750000Y-61390000D01*
X88950000Y-61390000D01*
X88950000Y-62090000D01*
X88750000Y-62090000D01*
X88750000Y-62090000D01*
G37*
D28*
X88450000Y-61740000D03*
D20*
G36*
X88350000Y-62090000D02*
X88350000Y-61390000D01*
X88550000Y-61390000D01*
X88550000Y-62090000D01*
X88350000Y-62090000D01*
X88350000Y-62090000D01*
G37*
D28*
X88050000Y-61740000D03*
D20*
G36*
X87950000Y-62090000D02*
X87950000Y-61390000D01*
X88150000Y-61390000D01*
X88150000Y-62090000D01*
X87950000Y-62090000D01*
X87950000Y-62090000D01*
G37*
G04 #@! TD*
D29*
G04 #@! TO.C,U7*
X54100000Y-34500000D03*
X53150000Y-34500000D03*
X45450000Y-34500000D03*
X46550000Y-34500000D03*
X47650000Y-34500000D03*
X48750000Y-34500000D03*
X49850000Y-34500000D03*
X50950000Y-34500000D03*
X52050000Y-34500000D03*
D30*
X43900000Y-34500000D03*
X55050000Y-30200000D03*
D31*
X55050000Y-24000000D03*
D32*
X55050000Y-19850000D03*
D33*
X41550000Y-19400000D03*
G04 #@! TD*
D19*
G04 #@! TO.C,P1*
X33200000Y-57800000D03*
D18*
X33200000Y-60300000D03*
G04 #@! TD*
G04 #@! TO.C,P2*
X103200000Y-57800000D03*
D19*
X103200000Y-60300000D03*
G04 #@! TD*
D34*
G04 #@! TO.C,P3*
X34200000Y-47600000D03*
D35*
X36700000Y-47600000D03*
X39200000Y-47600000D03*
G04 #@! TD*
D36*
G04 #@! TO.C,SW1*
X27700000Y-61500000D03*
X27700000Y-53100000D03*
D37*
X27700000Y-59300000D03*
X27700000Y-57300000D03*
X27700000Y-55300000D03*
G04 #@! TD*
M02*
