G04 #@! TF.GenerationSoftware,KiCad,Pcbnew,(5.0.0)*
G04 #@! TF.CreationDate,2019-01-28T15:32:59+09:00*
G04 #@! TF.ProjectId,EDAMAMEv3,4544414D414D4576332E6B696361645F,rev?*
G04 #@! TF.SameCoordinates,Original*
G04 #@! TF.FileFunction,Legend,Bot*
G04 #@! TF.FilePolarity,Positive*
%FSLAX46Y46*%
G04 Gerber Fmt 4.6, Leading zero omitted, Abs format (unit mm)*
G04 Created by KiCad (PCBNEW (5.0.0)) date 01/28/19 15:32:59*
%MOMM*%
%LPD*%
G01*
G04 APERTURE LIST*
%ADD10C,0.200000*%
%ADD11C,0.150000*%
%ADD12C,0.120000*%
G04 APERTURE END LIST*
D10*
X87872380Y-28376190D02*
X87686666Y-28438095D01*
X87377142Y-28438095D01*
X87253333Y-28376190D01*
X87191428Y-28314285D01*
X87129523Y-28190476D01*
X87129523Y-28066666D01*
X87191428Y-27942857D01*
X87253333Y-27880952D01*
X87377142Y-27819047D01*
X87624761Y-27757142D01*
X87748571Y-27695238D01*
X87810476Y-27633333D01*
X87872380Y-27509523D01*
X87872380Y-27385714D01*
X87810476Y-27261904D01*
X87748571Y-27200000D01*
X87624761Y-27138095D01*
X87315238Y-27138095D01*
X87129523Y-27200000D01*
X86324761Y-27138095D02*
X86077142Y-27138095D01*
X85953333Y-27200000D01*
X85829523Y-27323809D01*
X85767619Y-27571428D01*
X85767619Y-28004761D01*
X85829523Y-28252380D01*
X85953333Y-28376190D01*
X86077142Y-28438095D01*
X86324761Y-28438095D01*
X86448571Y-28376190D01*
X86572380Y-28252380D01*
X86634285Y-28004761D01*
X86634285Y-27571428D01*
X86572380Y-27323809D01*
X86448571Y-27200000D01*
X86324761Y-27138095D01*
X85210476Y-28438095D02*
X85210476Y-27138095D01*
X84777142Y-28066666D01*
X84343809Y-27138095D01*
X84343809Y-28438095D01*
X83724761Y-27757142D02*
X83291428Y-27757142D01*
X83105714Y-28438095D02*
X83724761Y-28438095D01*
X83724761Y-27138095D01*
X83105714Y-27138095D01*
X82610476Y-28376190D02*
X82424761Y-28438095D01*
X82115238Y-28438095D01*
X81991428Y-28376190D01*
X81929523Y-28314285D01*
X81867619Y-28190476D01*
X81867619Y-28066666D01*
X81929523Y-27942857D01*
X81991428Y-27880952D01*
X82115238Y-27819047D01*
X82362857Y-27757142D01*
X82486666Y-27695238D01*
X82548571Y-27633333D01*
X82610476Y-27509523D01*
X82610476Y-27385714D01*
X82548571Y-27261904D01*
X82486666Y-27200000D01*
X82362857Y-27138095D01*
X82053333Y-27138095D01*
X81867619Y-27200000D01*
X81372380Y-28066666D02*
X80753333Y-28066666D01*
X81496190Y-28438095D02*
X81062857Y-27138095D01*
X80629523Y-28438095D01*
X80381904Y-27138095D02*
X79639047Y-27138095D01*
X80010476Y-28438095D02*
X80010476Y-27138095D01*
X87810476Y-29907142D02*
X87377142Y-29907142D01*
X87191428Y-30588095D02*
X87810476Y-30588095D01*
X87810476Y-29288095D01*
X87191428Y-29288095D01*
X86634285Y-30588095D02*
X86634285Y-29288095D01*
X86324761Y-29288095D01*
X86139047Y-29350000D01*
X86015238Y-29473809D01*
X85953333Y-29597619D01*
X85891428Y-29845238D01*
X85891428Y-30030952D01*
X85953333Y-30278571D01*
X86015238Y-30402380D01*
X86139047Y-30526190D01*
X86324761Y-30588095D01*
X86634285Y-30588095D01*
X85396190Y-30216666D02*
X84777142Y-30216666D01*
X85520000Y-30588095D02*
X85086666Y-29288095D01*
X84653333Y-30588095D01*
X84220000Y-30588095D02*
X84220000Y-29288095D01*
X83786666Y-30216666D01*
X83353333Y-29288095D01*
X83353333Y-30588095D01*
X82796190Y-30216666D02*
X82177142Y-30216666D01*
X82920000Y-30588095D02*
X82486666Y-29288095D01*
X82053333Y-30588095D01*
X81620000Y-30588095D02*
X81620000Y-29288095D01*
X81186666Y-30216666D01*
X80753333Y-29288095D01*
X80753333Y-30588095D01*
X80134285Y-29907142D02*
X79700952Y-29907142D01*
X79515238Y-30588095D02*
X80134285Y-30588095D01*
X80134285Y-29288095D01*
X79515238Y-29288095D01*
X78153333Y-29288095D02*
X77720000Y-30588095D01*
X77286666Y-29288095D01*
X76358095Y-30526190D02*
X76481904Y-30588095D01*
X76729523Y-30588095D01*
X76853333Y-30526190D01*
X76915238Y-30402380D01*
X76915238Y-29907142D01*
X76853333Y-29783333D01*
X76729523Y-29721428D01*
X76481904Y-29721428D01*
X76358095Y-29783333D01*
X76296190Y-29907142D01*
X76296190Y-30030952D01*
X76915238Y-30154761D01*
X75739047Y-30588095D02*
X75739047Y-29721428D01*
X75739047Y-29969047D02*
X75677142Y-29845238D01*
X75615238Y-29783333D01*
X75491428Y-29721428D01*
X75367619Y-29721428D01*
X75058095Y-29288095D02*
X74253333Y-29288095D01*
X74686666Y-29783333D01*
X74500952Y-29783333D01*
X74377142Y-29845238D01*
X74315238Y-29907142D01*
X74253333Y-30030952D01*
X74253333Y-30340476D01*
X74315238Y-30464285D01*
X74377142Y-30526190D01*
X74500952Y-30588095D01*
X74872380Y-30588095D01*
X74996190Y-30526190D01*
X75058095Y-30464285D01*
X87872380Y-31561904D02*
X87810476Y-31500000D01*
X87686666Y-31438095D01*
X87377142Y-31438095D01*
X87253333Y-31500000D01*
X87191428Y-31561904D01*
X87129523Y-31685714D01*
X87129523Y-31809523D01*
X87191428Y-31995238D01*
X87934285Y-32738095D01*
X87129523Y-32738095D01*
X86324761Y-31438095D02*
X86200952Y-31438095D01*
X86077142Y-31500000D01*
X86015238Y-31561904D01*
X85953333Y-31685714D01*
X85891428Y-31933333D01*
X85891428Y-32242857D01*
X85953333Y-32490476D01*
X86015238Y-32614285D01*
X86077142Y-32676190D01*
X86200952Y-32738095D01*
X86324761Y-32738095D01*
X86448571Y-32676190D01*
X86510476Y-32614285D01*
X86572380Y-32490476D01*
X86634285Y-32242857D01*
X86634285Y-31933333D01*
X86572380Y-31685714D01*
X86510476Y-31561904D01*
X86448571Y-31500000D01*
X86324761Y-31438095D01*
X84653333Y-32738095D02*
X85396190Y-32738095D01*
X85024761Y-32738095D02*
X85024761Y-31438095D01*
X85148571Y-31623809D01*
X85272380Y-31747619D01*
X85396190Y-31809523D01*
X84034285Y-32738095D02*
X83786666Y-32738095D01*
X83662857Y-32676190D01*
X83600952Y-32614285D01*
X83477142Y-32428571D01*
X83415238Y-32180952D01*
X83415238Y-31685714D01*
X83477142Y-31561904D01*
X83539047Y-31500000D01*
X83662857Y-31438095D01*
X83910476Y-31438095D01*
X84034285Y-31500000D01*
X84096190Y-31561904D01*
X84158095Y-31685714D01*
X84158095Y-31995238D01*
X84096190Y-32119047D01*
X84034285Y-32180952D01*
X83910476Y-32242857D01*
X83662857Y-32242857D01*
X83539047Y-32180952D01*
X83477142Y-32119047D01*
X83415238Y-31995238D01*
X81929523Y-31376190D02*
X83043809Y-33047619D01*
X80815238Y-32738095D02*
X81558095Y-32738095D01*
X81186666Y-32738095D02*
X81186666Y-31438095D01*
X81310476Y-31623809D01*
X81434285Y-31747619D01*
X81558095Y-31809523D01*
X79329523Y-31376190D02*
X80443809Y-33047619D01*
X78958095Y-31561904D02*
X78896190Y-31500000D01*
X78772380Y-31438095D01*
X78462857Y-31438095D01*
X78339047Y-31500000D01*
X78277142Y-31561904D01*
X78215238Y-31685714D01*
X78215238Y-31809523D01*
X78277142Y-31995238D01*
X79020000Y-32738095D01*
X78215238Y-32738095D01*
X77781904Y-31438095D02*
X76977142Y-31438095D01*
X77410476Y-31933333D01*
X77224761Y-31933333D01*
X77100952Y-31995238D01*
X77039047Y-32057142D01*
X76977142Y-32180952D01*
X76977142Y-32490476D01*
X77039047Y-32614285D01*
X77100952Y-32676190D01*
X77224761Y-32738095D01*
X77596190Y-32738095D01*
X77720000Y-32676190D01*
X77781904Y-32614285D01*
X74624761Y-32119047D02*
X74686666Y-32057142D01*
X74810476Y-31995238D01*
X74934285Y-31995238D01*
X75058095Y-32057142D01*
X75120000Y-32119047D01*
X75181904Y-32242857D01*
X75181904Y-32366666D01*
X75120000Y-32490476D01*
X75058095Y-32552380D01*
X74934285Y-32614285D01*
X74810476Y-32614285D01*
X74686666Y-32552380D01*
X74624761Y-32490476D01*
X74624761Y-31995238D02*
X74624761Y-32490476D01*
X74562857Y-32552380D01*
X74500952Y-32552380D01*
X74377142Y-32490476D01*
X74315238Y-32366666D01*
X74315238Y-32057142D01*
X74439047Y-31871428D01*
X74624761Y-31747619D01*
X74872380Y-31685714D01*
X75120000Y-31747619D01*
X75305714Y-31871428D01*
X75429523Y-32057142D01*
X75491428Y-32304761D01*
X75429523Y-32552380D01*
X75305714Y-32738095D01*
X75120000Y-32861904D01*
X74872380Y-32923809D01*
X74624761Y-32861904D01*
X74439047Y-32738095D01*
X73758095Y-31871428D02*
X73758095Y-32738095D01*
X73758095Y-31995238D02*
X73696190Y-31933333D01*
X73572380Y-31871428D01*
X73386666Y-31871428D01*
X73262857Y-31933333D01*
X73200952Y-32057142D01*
X73200952Y-32738095D01*
X72891428Y-32861904D02*
X71900952Y-32861904D01*
X71715238Y-31871428D02*
X71405714Y-32738095D01*
X71096190Y-31871428D02*
X71405714Y-32738095D01*
X71529523Y-33047619D01*
X71591428Y-33109523D01*
X71715238Y-33171428D01*
X70415238Y-32738095D02*
X70539047Y-32676190D01*
X70600952Y-32614285D01*
X70662857Y-32490476D01*
X70662857Y-32119047D01*
X70600952Y-31995238D01*
X70539047Y-31933333D01*
X70415238Y-31871428D01*
X70229523Y-31871428D01*
X70105714Y-31933333D01*
X70043809Y-31995238D01*
X69981904Y-32119047D01*
X69981904Y-32490476D01*
X70043809Y-32614285D01*
X70105714Y-32676190D01*
X70229523Y-32738095D01*
X70415238Y-32738095D01*
X69486666Y-32676190D02*
X69362857Y-32738095D01*
X69115238Y-32738095D01*
X68991428Y-32676190D01*
X68929523Y-32552380D01*
X68929523Y-32490476D01*
X68991428Y-32366666D01*
X69115238Y-32304761D01*
X69300952Y-32304761D01*
X69424761Y-32242857D01*
X69486666Y-32119047D01*
X69486666Y-32057142D01*
X69424761Y-31933333D01*
X69300952Y-31871428D01*
X69115238Y-31871428D01*
X68991428Y-31933333D01*
X68372380Y-32738095D02*
X68372380Y-31871428D01*
X68372380Y-31438095D02*
X68434285Y-31500000D01*
X68372380Y-31561904D01*
X68310476Y-31500000D01*
X68372380Y-31438095D01*
X68372380Y-31561904D01*
X67753333Y-32738095D02*
X67753333Y-31438095D01*
X67196190Y-32738095D02*
X67196190Y-32057142D01*
X67258095Y-31933333D01*
X67381904Y-31871428D01*
X67567619Y-31871428D01*
X67691428Y-31933333D01*
X67753333Y-31995238D01*
X66577142Y-32738095D02*
X66577142Y-31871428D01*
X66577142Y-31438095D02*
X66639047Y-31500000D01*
X66577142Y-31561904D01*
X66515238Y-31500000D01*
X66577142Y-31438095D01*
X66577142Y-31561904D01*
X66020000Y-32676190D02*
X65896190Y-32738095D01*
X65648571Y-32738095D01*
X65524761Y-32676190D01*
X65462857Y-32552380D01*
X65462857Y-32490476D01*
X65524761Y-32366666D01*
X65648571Y-32304761D01*
X65834285Y-32304761D01*
X65958095Y-32242857D01*
X66020000Y-32119047D01*
X66020000Y-32057142D01*
X65958095Y-31933333D01*
X65834285Y-31871428D01*
X65648571Y-31871428D01*
X65524761Y-31933333D01*
X64348571Y-32738095D02*
X64348571Y-32057142D01*
X64410476Y-31933333D01*
X64534285Y-31871428D01*
X64781904Y-31871428D01*
X64905714Y-31933333D01*
X64348571Y-32676190D02*
X64472380Y-32738095D01*
X64781904Y-32738095D01*
X64905714Y-32676190D01*
X64967619Y-32552380D01*
X64967619Y-32428571D01*
X64905714Y-32304761D01*
X64781904Y-32242857D01*
X64472380Y-32242857D01*
X64348571Y-32180952D01*
X19500000Y-51500000D02*
X27200000Y-51500000D01*
X29700000Y-48988000D02*
X29700000Y-45488000D01*
X29700000Y-49000000D02*
G75*
G02X27200000Y-51500000I-2500000J0D01*
G01*
X99300000Y-32000000D02*
X99300000Y-35500000D01*
X99300000Y-32000000D02*
G75*
G02X101800000Y-29500000I2500000J0D01*
G01*
X109500000Y-29500000D02*
X101800000Y-29500000D01*
X99300000Y-49000000D02*
G75*
G03X101800000Y-51500000I2500000J0D01*
G01*
X99300000Y-49000000D02*
X99300000Y-45500000D01*
X109500000Y-51500000D02*
X101800000Y-51500000D01*
X29660000Y-31970000D02*
G75*
G03X27120000Y-29430000I-2540000J0D01*
G01*
X29660000Y-31970000D02*
X29660000Y-35500000D01*
X19500000Y-29430000D02*
X27120000Y-29430000D01*
D11*
G04 #@! TO.C,U3*
X44975000Y-20075000D02*
X45625000Y-20075000D01*
X44975000Y-34325000D02*
X45735000Y-34325000D01*
X59225000Y-34325000D02*
X58465000Y-34325000D01*
X59225000Y-20075000D02*
X58465000Y-20075000D01*
X44975000Y-20075000D02*
X44975000Y-20835000D01*
X59225000Y-20075000D02*
X59225000Y-20835000D01*
X59225000Y-34325000D02*
X59225000Y-33565000D01*
X44975000Y-34325000D02*
X44975000Y-33565000D01*
X45625000Y-20075000D02*
X45625000Y-18550000D01*
G04 #@! TO.C,U9*
X45475000Y-46425000D02*
X45475000Y-45025000D01*
X50575000Y-46425000D02*
X50575000Y-50575000D01*
X45425000Y-46425000D02*
X45425000Y-50575000D01*
X50575000Y-46425000D02*
X50430000Y-46425000D01*
X50575000Y-50575000D02*
X50430000Y-50575000D01*
X45425000Y-50575000D02*
X45570000Y-50575000D01*
X45425000Y-46425000D02*
X45475000Y-46425000D01*
D12*
G04 #@! TO.C,D1*
X22735408Y-57352172D02*
X22735408Y-59812172D01*
X22735408Y-59812172D02*
X21265408Y-59812172D01*
X21265408Y-59812172D02*
X21265408Y-57352172D01*
G04 #@! TO.C,R4*
X22510408Y-54259439D02*
X22510408Y-53916905D01*
X21490408Y-54259439D02*
X21490408Y-53916905D01*
G04 #@! TO.C,C1*
X64328733Y-47510000D02*
X64671267Y-47510000D01*
X64328733Y-46490000D02*
X64671267Y-46490000D01*
G04 #@! TO.C,C5*
X47071267Y-38040000D02*
X46728733Y-38040000D01*
X47071267Y-39060000D02*
X46728733Y-39060000D01*
G04 #@! TO.C,C6*
X93810000Y-51828733D02*
X93810000Y-52171267D01*
X92790000Y-51828733D02*
X92790000Y-52171267D01*
G04 #@! TO.C,C7*
X47071267Y-37460000D02*
X46728733Y-37460000D01*
X47071267Y-36440000D02*
X46728733Y-36440000D01*
G04 #@! TO.C,C10*
X90228733Y-55110000D02*
X90571267Y-55110000D01*
X90228733Y-54090000D02*
X90571267Y-54090000D01*
G04 #@! TO.C,C15*
X84890000Y-48661252D02*
X84890000Y-48138748D01*
X86310000Y-48661252D02*
X86310000Y-48138748D01*
G04 #@! TO.C,C16*
X43290000Y-48413748D02*
X43290000Y-48936252D01*
X44710000Y-48413748D02*
X44710000Y-48936252D01*
G04 #@! TO.C,D5*
X96660000Y-23735000D02*
X94200000Y-23735000D01*
X96660000Y-22265000D02*
X96660000Y-23735000D01*
X94200000Y-22265000D02*
X96660000Y-22265000D01*
G04 #@! TO.C,J1*
X40100000Y-23550000D02*
G75*
G03X40800000Y-24250000I700000J0D01*
G01*
X41400000Y-24250000D02*
G75*
G03X42100000Y-23550000I0J700000D01*
G01*
X42100000Y-22150000D02*
G75*
G03X41400000Y-21450000I-700000J0D01*
G01*
X40800000Y-21450000D02*
G75*
G03X40100000Y-22150000I0J-700000D01*
G01*
X41400000Y-21450000D02*
X40800000Y-21450000D01*
X42100000Y-23550000D02*
X42100000Y-22150000D01*
X40800000Y-24250000D02*
X41400000Y-24250000D01*
X40100000Y-22150000D02*
X40100000Y-23550000D01*
G04 #@! TO.C,R8*
X27760000Y-25096267D02*
X27760000Y-24753733D01*
X26740000Y-25096267D02*
X26740000Y-24753733D01*
G04 #@! TO.C,R19*
X91171267Y-23510000D02*
X90828733Y-23510000D01*
X91171267Y-22490000D02*
X90828733Y-22490000D01*
D11*
G04 #@! TO.C,U8*
X83675000Y-50475000D02*
X83625000Y-50475000D01*
X83675000Y-46325000D02*
X83530000Y-46325000D01*
X78525000Y-46325000D02*
X78670000Y-46325000D01*
X78525000Y-50475000D02*
X78670000Y-50475000D01*
X83675000Y-50475000D02*
X83675000Y-46325000D01*
X78525000Y-50475000D02*
X78525000Y-46325000D01*
X83625000Y-50475000D02*
X83625000Y-51875000D01*
D12*
G04 #@! TO.C,P1*
X31100000Y-60000000D02*
X31700000Y-60300000D01*
X31100000Y-60600000D02*
X31100000Y-60000000D01*
X31700000Y-60300000D02*
X31100000Y-60600000D01*
X34790000Y-57480000D02*
X34790000Y-57800000D01*
X38210000Y-57480000D02*
X34790000Y-57480000D01*
X38290000Y-57800000D02*
X38210000Y-57480000D01*
X38210000Y-58120000D02*
X38290000Y-57800000D01*
X34790000Y-58120000D02*
X38210000Y-58120000D01*
X34790000Y-57800000D02*
X34790000Y-58120000D01*
X33790000Y-59130000D02*
X33790000Y-58970000D01*
X34790000Y-59980000D02*
X34790000Y-60300000D01*
X38210000Y-59980000D02*
X34790000Y-59980000D01*
X38290000Y-60300000D02*
X38210000Y-59980000D01*
X38210000Y-60620000D02*
X38290000Y-60300000D01*
X34790000Y-60620000D02*
X38210000Y-60620000D01*
X34790000Y-60300000D02*
X34790000Y-60620000D01*
X34790000Y-61690000D02*
X34790000Y-56410000D01*
X33790000Y-56410000D02*
X33790000Y-55190000D01*
X38790000Y-56410000D02*
X33790000Y-56410000D01*
X38790000Y-55190000D02*
X38790000Y-56410000D01*
X33790000Y-61690000D02*
X33790000Y-62910000D01*
X38790000Y-61690000D02*
X33790000Y-61690000D01*
X38790000Y-62910000D02*
X38790000Y-61690000D01*
X31590000Y-56410000D02*
X33790000Y-56410000D01*
X31590000Y-55190000D02*
X31590000Y-56410000D01*
X40010000Y-55190000D02*
X31590000Y-55190000D01*
X40010000Y-62910000D02*
X40010000Y-55190000D01*
X31590000Y-62910000D02*
X40010000Y-62910000D01*
X31590000Y-61690000D02*
X31590000Y-62910000D01*
X33790000Y-61690000D02*
X31590000Y-61690000D01*
G04 #@! TO.C,P2*
X102610000Y-56410000D02*
X104810000Y-56410000D01*
X104810000Y-56410000D02*
X104810000Y-55190000D01*
X104810000Y-55190000D02*
X96390000Y-55190000D01*
X96390000Y-55190000D02*
X96390000Y-62910000D01*
X96390000Y-62910000D02*
X104810000Y-62910000D01*
X104810000Y-62910000D02*
X104810000Y-61690000D01*
X104810000Y-61690000D02*
X102610000Y-61690000D01*
X97610000Y-55190000D02*
X97610000Y-56410000D01*
X97610000Y-56410000D02*
X102610000Y-56410000D01*
X102610000Y-56410000D02*
X102610000Y-55190000D01*
X97610000Y-62910000D02*
X97610000Y-61690000D01*
X97610000Y-61690000D02*
X102610000Y-61690000D01*
X102610000Y-61690000D02*
X102610000Y-62910000D01*
X101610000Y-56410000D02*
X101610000Y-61690000D01*
X101610000Y-57800000D02*
X101610000Y-57480000D01*
X101610000Y-57480000D02*
X98190000Y-57480000D01*
X98190000Y-57480000D02*
X98110000Y-57800000D01*
X98110000Y-57800000D02*
X98190000Y-58120000D01*
X98190000Y-58120000D02*
X101610000Y-58120000D01*
X101610000Y-58120000D02*
X101610000Y-57800000D01*
X102610000Y-58970000D02*
X102610000Y-59130000D01*
X101610000Y-60300000D02*
X101610000Y-59980000D01*
X101610000Y-59980000D02*
X98190000Y-59980000D01*
X98190000Y-59980000D02*
X98110000Y-60300000D01*
X98110000Y-60300000D02*
X98190000Y-60620000D01*
X98190000Y-60620000D02*
X101610000Y-60620000D01*
X101610000Y-60620000D02*
X101610000Y-60300000D01*
X104700000Y-57800000D02*
X105300000Y-57500000D01*
X105300000Y-57500000D02*
X105300000Y-58100000D01*
X105300000Y-58100000D02*
X104700000Y-57800000D01*
G04 #@! TO.C,R2*
X39952064Y-50790000D02*
X35847936Y-50790000D01*
X39952064Y-54210000D02*
X35847936Y-54210000D01*
G04 #@! TO.C,U1*
X61090000Y-39090000D02*
X62350000Y-39090000D01*
X67910000Y-39090000D02*
X66650000Y-39090000D01*
X61090000Y-42850000D02*
X61090000Y-39090000D01*
X67910000Y-45100000D02*
X67910000Y-39090000D01*
G04 #@! TO.C,U2*
X88820000Y-51140000D02*
X89750000Y-51140000D01*
X91980000Y-51140000D02*
X91050000Y-51140000D01*
X91980000Y-51140000D02*
X91980000Y-53300000D01*
X88820000Y-51140000D02*
X88820000Y-52600000D01*
G04 #@! TO.C,U3*
D11*
X43761904Y-18702380D02*
X43761904Y-19511904D01*
X43714285Y-19607142D01*
X43666666Y-19654761D01*
X43571428Y-19702380D01*
X43380952Y-19702380D01*
X43285714Y-19654761D01*
X43238095Y-19607142D01*
X43190476Y-19511904D01*
X43190476Y-18702380D01*
X42809523Y-18702380D02*
X42190476Y-18702380D01*
X42523809Y-19083333D01*
X42380952Y-19083333D01*
X42285714Y-19130952D01*
X42238095Y-19178571D01*
X42190476Y-19273809D01*
X42190476Y-19511904D01*
X42238095Y-19607142D01*
X42285714Y-19654761D01*
X42380952Y-19702380D01*
X42666666Y-19702380D01*
X42761904Y-19654761D01*
X42809523Y-19607142D01*
G04 #@! TO.C,U9*
X51052380Y-47738095D02*
X51861904Y-47738095D01*
X51957142Y-47785714D01*
X52004761Y-47833333D01*
X52052380Y-47928571D01*
X52052380Y-48119047D01*
X52004761Y-48214285D01*
X51957142Y-48261904D01*
X51861904Y-48309523D01*
X51052380Y-48309523D01*
X52052380Y-48833333D02*
X52052380Y-49023809D01*
X52004761Y-49119047D01*
X51957142Y-49166666D01*
X51814285Y-49261904D01*
X51623809Y-49309523D01*
X51242857Y-49309523D01*
X51147619Y-49261904D01*
X51100000Y-49214285D01*
X51052380Y-49119047D01*
X51052380Y-48928571D01*
X51100000Y-48833333D01*
X51147619Y-48785714D01*
X51242857Y-48738095D01*
X51480952Y-48738095D01*
X51576190Y-48785714D01*
X51623809Y-48833333D01*
X51671428Y-48928571D01*
X51671428Y-49119047D01*
X51623809Y-49214285D01*
X51576190Y-49261904D01*
X51480952Y-49309523D01*
G04 #@! TO.C,D1*
X23882788Y-57414076D02*
X22882788Y-57414076D01*
X22882788Y-57652172D01*
X22930408Y-57795029D01*
X23025646Y-57890267D01*
X23120884Y-57937886D01*
X23311360Y-57985505D01*
X23454217Y-57985505D01*
X23644693Y-57937886D01*
X23739931Y-57890267D01*
X23835169Y-57795029D01*
X23882788Y-57652172D01*
X23882788Y-57414076D01*
X23882788Y-58937886D02*
X23882788Y-58366457D01*
X23882788Y-58652172D02*
X22882788Y-58652172D01*
X23025646Y-58556933D01*
X23120884Y-58461695D01*
X23168503Y-58366457D01*
G04 #@! TO.C,R4*
X23882788Y-53921505D02*
X23406598Y-53588172D01*
X23882788Y-53350076D02*
X22882788Y-53350076D01*
X22882788Y-53731029D01*
X22930408Y-53826267D01*
X22978027Y-53873886D01*
X23073265Y-53921505D01*
X23216122Y-53921505D01*
X23311360Y-53873886D01*
X23358979Y-53826267D01*
X23406598Y-53731029D01*
X23406598Y-53350076D01*
X23216122Y-54778648D02*
X23882788Y-54778648D01*
X22835169Y-54540552D02*
X23549455Y-54302457D01*
X23549455Y-54921505D01*
G04 #@! TO.C,C1*
X64666666Y-48787142D02*
X64714285Y-48834761D01*
X64857142Y-48882380D01*
X64952380Y-48882380D01*
X65095238Y-48834761D01*
X65190476Y-48739523D01*
X65238095Y-48644285D01*
X65285714Y-48453809D01*
X65285714Y-48310952D01*
X65238095Y-48120476D01*
X65190476Y-48025238D01*
X65095238Y-47930000D01*
X64952380Y-47882380D01*
X64857142Y-47882380D01*
X64714285Y-47930000D01*
X64666666Y-47977619D01*
X63714285Y-48882380D02*
X64285714Y-48882380D01*
X64000000Y-48882380D02*
X64000000Y-47882380D01*
X64095238Y-48025238D01*
X64190476Y-48120476D01*
X64285714Y-48168095D01*
G04 #@! TO.C,C5*
X49691666Y-38907142D02*
X49739285Y-38954761D01*
X49882142Y-39002380D01*
X49977380Y-39002380D01*
X50120238Y-38954761D01*
X50215476Y-38859523D01*
X50263095Y-38764285D01*
X50310714Y-38573809D01*
X50310714Y-38430952D01*
X50263095Y-38240476D01*
X50215476Y-38145238D01*
X50120238Y-38050000D01*
X49977380Y-38002380D01*
X49882142Y-38002380D01*
X49739285Y-38050000D01*
X49691666Y-38097619D01*
X48786904Y-38002380D02*
X49263095Y-38002380D01*
X49310714Y-38478571D01*
X49263095Y-38430952D01*
X49167857Y-38383333D01*
X48929761Y-38383333D01*
X48834523Y-38430952D01*
X48786904Y-38478571D01*
X48739285Y-38573809D01*
X48739285Y-38811904D01*
X48786904Y-38907142D01*
X48834523Y-38954761D01*
X48929761Y-39002380D01*
X49167857Y-39002380D01*
X49263095Y-38954761D01*
X49310714Y-38907142D01*
G04 #@! TO.C,C6*
X95257142Y-51833333D02*
X95304761Y-51785714D01*
X95352380Y-51642857D01*
X95352380Y-51547619D01*
X95304761Y-51404761D01*
X95209523Y-51309523D01*
X95114285Y-51261904D01*
X94923809Y-51214285D01*
X94780952Y-51214285D01*
X94590476Y-51261904D01*
X94495238Y-51309523D01*
X94400000Y-51404761D01*
X94352380Y-51547619D01*
X94352380Y-51642857D01*
X94400000Y-51785714D01*
X94447619Y-51833333D01*
X94352380Y-52690476D02*
X94352380Y-52500000D01*
X94400000Y-52404761D01*
X94447619Y-52357142D01*
X94590476Y-52261904D01*
X94780952Y-52214285D01*
X95161904Y-52214285D01*
X95257142Y-52261904D01*
X95304761Y-52309523D01*
X95352380Y-52404761D01*
X95352380Y-52595238D01*
X95304761Y-52690476D01*
X95257142Y-52738095D01*
X95161904Y-52785714D01*
X94923809Y-52785714D01*
X94828571Y-52738095D01*
X94780952Y-52690476D01*
X94733333Y-52595238D01*
X94733333Y-52404761D01*
X94780952Y-52309523D01*
X94828571Y-52261904D01*
X94923809Y-52214285D01*
G04 #@! TO.C,C7*
X49691666Y-37307142D02*
X49739285Y-37354761D01*
X49882142Y-37402380D01*
X49977380Y-37402380D01*
X50120238Y-37354761D01*
X50215476Y-37259523D01*
X50263095Y-37164285D01*
X50310714Y-36973809D01*
X50310714Y-36830952D01*
X50263095Y-36640476D01*
X50215476Y-36545238D01*
X50120238Y-36450000D01*
X49977380Y-36402380D01*
X49882142Y-36402380D01*
X49739285Y-36450000D01*
X49691666Y-36497619D01*
X49358333Y-36402380D02*
X48691666Y-36402380D01*
X49120238Y-37402380D01*
G04 #@! TO.C,C10*
X91042857Y-56557142D02*
X91090476Y-56604761D01*
X91233333Y-56652380D01*
X91328571Y-56652380D01*
X91471428Y-56604761D01*
X91566666Y-56509523D01*
X91614285Y-56414285D01*
X91661904Y-56223809D01*
X91661904Y-56080952D01*
X91614285Y-55890476D01*
X91566666Y-55795238D01*
X91471428Y-55700000D01*
X91328571Y-55652380D01*
X91233333Y-55652380D01*
X91090476Y-55700000D01*
X91042857Y-55747619D01*
X90090476Y-56652380D02*
X90661904Y-56652380D01*
X90376190Y-56652380D02*
X90376190Y-55652380D01*
X90471428Y-55795238D01*
X90566666Y-55890476D01*
X90661904Y-55938095D01*
X89471428Y-55652380D02*
X89376190Y-55652380D01*
X89280952Y-55700000D01*
X89233333Y-55747619D01*
X89185714Y-55842857D01*
X89138095Y-56033333D01*
X89138095Y-56271428D01*
X89185714Y-56461904D01*
X89233333Y-56557142D01*
X89280952Y-56604761D01*
X89376190Y-56652380D01*
X89471428Y-56652380D01*
X89566666Y-56604761D01*
X89614285Y-56557142D01*
X89661904Y-56461904D01*
X89709523Y-56271428D01*
X89709523Y-56033333D01*
X89661904Y-55842857D01*
X89614285Y-55747619D01*
X89566666Y-55700000D01*
X89471428Y-55652380D01*
G04 #@! TO.C,C15*
X87757142Y-47757142D02*
X87804761Y-47709523D01*
X87852380Y-47566666D01*
X87852380Y-47471428D01*
X87804761Y-47328571D01*
X87709523Y-47233333D01*
X87614285Y-47185714D01*
X87423809Y-47138095D01*
X87280952Y-47138095D01*
X87090476Y-47185714D01*
X86995238Y-47233333D01*
X86900000Y-47328571D01*
X86852380Y-47471428D01*
X86852380Y-47566666D01*
X86900000Y-47709523D01*
X86947619Y-47757142D01*
X87852380Y-48709523D02*
X87852380Y-48138095D01*
X87852380Y-48423809D02*
X86852380Y-48423809D01*
X86995238Y-48328571D01*
X87090476Y-48233333D01*
X87138095Y-48138095D01*
X86852380Y-49614285D02*
X86852380Y-49138095D01*
X87328571Y-49090476D01*
X87280952Y-49138095D01*
X87233333Y-49233333D01*
X87233333Y-49471428D01*
X87280952Y-49566666D01*
X87328571Y-49614285D01*
X87423809Y-49661904D01*
X87661904Y-49661904D01*
X87757142Y-49614285D01*
X87804761Y-49566666D01*
X87852380Y-49471428D01*
X87852380Y-49233333D01*
X87804761Y-49138095D01*
X87757142Y-49090476D01*
G04 #@! TO.C,C16*
X44357142Y-51357142D02*
X44404761Y-51309523D01*
X44452380Y-51166666D01*
X44452380Y-51071428D01*
X44404761Y-50928571D01*
X44309523Y-50833333D01*
X44214285Y-50785714D01*
X44023809Y-50738095D01*
X43880952Y-50738095D01*
X43690476Y-50785714D01*
X43595238Y-50833333D01*
X43500000Y-50928571D01*
X43452380Y-51071428D01*
X43452380Y-51166666D01*
X43500000Y-51309523D01*
X43547619Y-51357142D01*
X44452380Y-52309523D02*
X44452380Y-51738095D01*
X44452380Y-52023809D02*
X43452380Y-52023809D01*
X43595238Y-51928571D01*
X43690476Y-51833333D01*
X43738095Y-51738095D01*
X43452380Y-53166666D02*
X43452380Y-52976190D01*
X43500000Y-52880952D01*
X43547619Y-52833333D01*
X43690476Y-52738095D01*
X43880952Y-52690476D01*
X44261904Y-52690476D01*
X44357142Y-52738095D01*
X44404761Y-52785714D01*
X44452380Y-52880952D01*
X44452380Y-53071428D01*
X44404761Y-53166666D01*
X44357142Y-53214285D01*
X44261904Y-53261904D01*
X44023809Y-53261904D01*
X43928571Y-53214285D01*
X43880952Y-53166666D01*
X43833333Y-53071428D01*
X43833333Y-52880952D01*
X43880952Y-52785714D01*
X43928571Y-52738095D01*
X44023809Y-52690476D01*
G04 #@! TO.C,D5*
X95738095Y-22022380D02*
X95738095Y-21022380D01*
X95500000Y-21022380D01*
X95357142Y-21070000D01*
X95261904Y-21165238D01*
X95214285Y-21260476D01*
X95166666Y-21450952D01*
X95166666Y-21593809D01*
X95214285Y-21784285D01*
X95261904Y-21879523D01*
X95357142Y-21974761D01*
X95500000Y-22022380D01*
X95738095Y-22022380D01*
X94261904Y-21022380D02*
X94738095Y-21022380D01*
X94785714Y-21498571D01*
X94738095Y-21450952D01*
X94642857Y-21403333D01*
X94404761Y-21403333D01*
X94309523Y-21450952D01*
X94261904Y-21498571D01*
X94214285Y-21593809D01*
X94214285Y-21831904D01*
X94261904Y-21927142D01*
X94309523Y-21974761D01*
X94404761Y-22022380D01*
X94642857Y-22022380D01*
X94738095Y-21974761D01*
X94785714Y-21927142D01*
G04 #@! TO.C,J1*
X40452380Y-25416666D02*
X41166666Y-25416666D01*
X41309523Y-25369047D01*
X41404761Y-25273809D01*
X41452380Y-25130952D01*
X41452380Y-25035714D01*
X41452380Y-26416666D02*
X41452380Y-25845238D01*
X41452380Y-26130952D02*
X40452380Y-26130952D01*
X40595238Y-26035714D01*
X40690476Y-25940476D01*
X40738095Y-25845238D01*
G04 #@! TO.C,R8*
X25952380Y-24758333D02*
X25476190Y-24425000D01*
X25952380Y-24186904D02*
X24952380Y-24186904D01*
X24952380Y-24567857D01*
X25000000Y-24663095D01*
X25047619Y-24710714D01*
X25142857Y-24758333D01*
X25285714Y-24758333D01*
X25380952Y-24710714D01*
X25428571Y-24663095D01*
X25476190Y-24567857D01*
X25476190Y-24186904D01*
X25380952Y-25329761D02*
X25333333Y-25234523D01*
X25285714Y-25186904D01*
X25190476Y-25139285D01*
X25142857Y-25139285D01*
X25047619Y-25186904D01*
X25000000Y-25234523D01*
X24952380Y-25329761D01*
X24952380Y-25520238D01*
X25000000Y-25615476D01*
X25047619Y-25663095D01*
X25142857Y-25710714D01*
X25190476Y-25710714D01*
X25285714Y-25663095D01*
X25333333Y-25615476D01*
X25380952Y-25520238D01*
X25380952Y-25329761D01*
X25428571Y-25234523D01*
X25476190Y-25186904D01*
X25571428Y-25139285D01*
X25761904Y-25139285D01*
X25857142Y-25186904D01*
X25904761Y-25234523D01*
X25952380Y-25329761D01*
X25952380Y-25520238D01*
X25904761Y-25615476D01*
X25857142Y-25663095D01*
X25761904Y-25710714D01*
X25571428Y-25710714D01*
X25476190Y-25663095D01*
X25428571Y-25615476D01*
X25380952Y-25520238D01*
G04 #@! TO.C,R19*
X91642857Y-22022380D02*
X91976190Y-21546190D01*
X92214285Y-22022380D02*
X92214285Y-21022380D01*
X91833333Y-21022380D01*
X91738095Y-21070000D01*
X91690476Y-21117619D01*
X91642857Y-21212857D01*
X91642857Y-21355714D01*
X91690476Y-21450952D01*
X91738095Y-21498571D01*
X91833333Y-21546190D01*
X92214285Y-21546190D01*
X90690476Y-22022380D02*
X91261904Y-22022380D01*
X90976190Y-22022380D02*
X90976190Y-21022380D01*
X91071428Y-21165238D01*
X91166666Y-21260476D01*
X91261904Y-21308095D01*
X90214285Y-22022380D02*
X90023809Y-22022380D01*
X89928571Y-21974761D01*
X89880952Y-21927142D01*
X89785714Y-21784285D01*
X89738095Y-21593809D01*
X89738095Y-21212857D01*
X89785714Y-21117619D01*
X89833333Y-21070000D01*
X89928571Y-21022380D01*
X90119047Y-21022380D01*
X90214285Y-21070000D01*
X90261904Y-21117619D01*
X90309523Y-21212857D01*
X90309523Y-21450952D01*
X90261904Y-21546190D01*
X90214285Y-21593809D01*
X90119047Y-21641428D01*
X89928571Y-21641428D01*
X89833333Y-21593809D01*
X89785714Y-21546190D01*
X89738095Y-21450952D01*
G04 #@! TO.C,U8*
X77152380Y-47638095D02*
X77961904Y-47638095D01*
X78057142Y-47685714D01*
X78104761Y-47733333D01*
X78152380Y-47828571D01*
X78152380Y-48019047D01*
X78104761Y-48114285D01*
X78057142Y-48161904D01*
X77961904Y-48209523D01*
X77152380Y-48209523D01*
X77580952Y-48828571D02*
X77533333Y-48733333D01*
X77485714Y-48685714D01*
X77390476Y-48638095D01*
X77342857Y-48638095D01*
X77247619Y-48685714D01*
X77200000Y-48733333D01*
X77152380Y-48828571D01*
X77152380Y-49019047D01*
X77200000Y-49114285D01*
X77247619Y-49161904D01*
X77342857Y-49209523D01*
X77390476Y-49209523D01*
X77485714Y-49161904D01*
X77533333Y-49114285D01*
X77580952Y-49019047D01*
X77580952Y-48828571D01*
X77628571Y-48733333D01*
X77676190Y-48685714D01*
X77771428Y-48638095D01*
X77961904Y-48638095D01*
X78057142Y-48685714D01*
X78104761Y-48733333D01*
X78152380Y-48828571D01*
X78152380Y-49019047D01*
X78104761Y-49114285D01*
X78057142Y-49161904D01*
X77961904Y-49209523D01*
X77771428Y-49209523D01*
X77676190Y-49161904D01*
X77628571Y-49114285D01*
X77580952Y-49019047D01*
G04 #@! TO.C,P1*
X41552380Y-58311904D02*
X40552380Y-58311904D01*
X40552380Y-58692857D01*
X40600000Y-58788095D01*
X40647619Y-58835714D01*
X40742857Y-58883333D01*
X40885714Y-58883333D01*
X40980952Y-58835714D01*
X41028571Y-58788095D01*
X41076190Y-58692857D01*
X41076190Y-58311904D01*
X41552380Y-59835714D02*
X41552380Y-59264285D01*
X41552380Y-59550000D02*
X40552380Y-59550000D01*
X40695238Y-59454761D01*
X40790476Y-59359523D01*
X40838095Y-59264285D01*
G04 #@! TO.C,P2*
X95752380Y-58311904D02*
X94752380Y-58311904D01*
X94752380Y-58692857D01*
X94800000Y-58788095D01*
X94847619Y-58835714D01*
X94942857Y-58883333D01*
X95085714Y-58883333D01*
X95180952Y-58835714D01*
X95228571Y-58788095D01*
X95276190Y-58692857D01*
X95276190Y-58311904D01*
X94847619Y-59264285D02*
X94800000Y-59311904D01*
X94752380Y-59407142D01*
X94752380Y-59645238D01*
X94800000Y-59740476D01*
X94847619Y-59788095D01*
X94942857Y-59835714D01*
X95038095Y-59835714D01*
X95180952Y-59788095D01*
X95752380Y-59216666D01*
X95752380Y-59835714D01*
G04 #@! TO.C,R2*
X37916666Y-50452380D02*
X38250000Y-49976190D01*
X38488095Y-50452380D02*
X38488095Y-49452380D01*
X38107142Y-49452380D01*
X38011904Y-49500000D01*
X37964285Y-49547619D01*
X37916666Y-49642857D01*
X37916666Y-49785714D01*
X37964285Y-49880952D01*
X38011904Y-49928571D01*
X38107142Y-49976190D01*
X38488095Y-49976190D01*
X37535714Y-49547619D02*
X37488095Y-49500000D01*
X37392857Y-49452380D01*
X37154761Y-49452380D01*
X37059523Y-49500000D01*
X37011904Y-49547619D01*
X36964285Y-49642857D01*
X36964285Y-49738095D01*
X37011904Y-49880952D01*
X37583333Y-50452380D01*
X36964285Y-50452380D01*
G04 #@! TO.C,U1*
X70011904Y-41452380D02*
X70011904Y-42261904D01*
X69964285Y-42357142D01*
X69916666Y-42404761D01*
X69821428Y-42452380D01*
X69630952Y-42452380D01*
X69535714Y-42404761D01*
X69488095Y-42357142D01*
X69440476Y-42261904D01*
X69440476Y-41452380D01*
X68440476Y-42452380D02*
X69011904Y-42452380D01*
X68726190Y-42452380D02*
X68726190Y-41452380D01*
X68821428Y-41595238D01*
X68916666Y-41690476D01*
X69011904Y-41738095D01*
G04 #@! TO.C,U2*
X91161904Y-48952380D02*
X91161904Y-49761904D01*
X91114285Y-49857142D01*
X91066666Y-49904761D01*
X90971428Y-49952380D01*
X90780952Y-49952380D01*
X90685714Y-49904761D01*
X90638095Y-49857142D01*
X90590476Y-49761904D01*
X90590476Y-48952380D01*
X90161904Y-49047619D02*
X90114285Y-49000000D01*
X90019047Y-48952380D01*
X89780952Y-48952380D01*
X89685714Y-49000000D01*
X89638095Y-49047619D01*
X89590476Y-49142857D01*
X89590476Y-49238095D01*
X89638095Y-49380952D01*
X90209523Y-49952380D01*
X89590476Y-49952380D01*
G04 #@! TD*
M02*
