M48
;DRILL file {KiCad (5.0.0)} date 01/28/19 15:33:04
;FORMAT={-:-/ absolute / metric / decimal}
FMAT,2
METRIC,TZ
T1C0.300
T2C0.700
T3C0.762
T4C0.800
T5C0.950
T6C1.000
T7C1.300
%
G90
G05
M71
T1
X20.4Y-46.3
X20.5Y-34.55
X21.8Y-20.25
X32.4Y-25.2
X33.4Y-51.7
X34.05Y-28.255
X34.913Y-52.5
X35.1Y-23.55
X35.15Y-22.
X38.375Y-30.75
X38.375Y-32.5
X39.45Y-26.5
X40.5Y-32.6
X40.7Y-56.425
X40.887Y-52.5
X42.1Y-57.8
X42.25Y-31.7
X42.25Y-32.65
X42.3Y-29.95
X44.2Y-18.9
X44.2Y-19.85
X45.75Y-22.5
X45.75Y-27.25
X46.Y-40.05
X46.025Y-36.95
X46.025Y-38.55
X46.8Y-31.85
X47.2Y-25.05
X47.2Y-26.
X49.9Y-33.2
X49.9Y-49.5
X50.25Y-20.8
X50.5Y-22.75
X50.6Y-42.
X51.Y-23.5
X51.95Y-37.2
X52.05Y-33.55
X52.4Y-30.25
X52.9Y-27.2
X53.Y-20.85
X53.Y-22.75
X53.Y-23.75
X53.Y-24.75
X53.Y-31.85
X53.5Y-30.1
X53.85Y-32.3
X55.Y-36.75
X56.1Y-37.25
X56.15Y-31.2
X56.15Y-32.95
X56.2Y-24.
X56.6Y-26.3
X56.6Y-28.1
X57.8Y-24.2
X57.85Y-22.75
X57.85Y-27.2
X58.35Y-30.
X58.4Y-40.4
X58.655Y-38.7
X58.9Y-35.9
X59.Y-60.
X59.2Y-19.
X59.2Y-40.379
X59.6Y-45.5
X59.8Y-39.1
X59.943Y-36.057
X60.357Y-45.5
X60.8Y-46.4
X60.8Y-47.348
X61.5Y-20.625
X61.5Y-22.375
X61.5Y-23.75
X61.5Y-24.6
X62.Y-30.5
X62.25Y-23.75
X62.3Y-31.4
X63.2Y-32.2
X64.5Y-41.4
X64.5Y-41.4
X65.1Y-24.95
X66.15Y-24.95
X70.25Y-60.
X71.4Y-46.5
X73.25Y-26.2
X74.5Y-20.05
X75.5Y-51.1
X79.5Y-20.05
X80.4Y-29.395
X80.4Y-30.665
X80.4Y-31.935
X82.5Y-59.
X85.8Y-26.2
X86.25Y-59.
X89.5Y-56.9
X95.85Y-20.05
X104.5Y-20.
X106.5Y-25.7
X106.5Y-28.9
X108.6Y-46.4
X108.65Y-34.6
T2
X27.5Y-20.25
X29.Y-20.25
X30.5Y-20.25
X32.Y-20.25
X33.5Y-20.25
T3
X51.165Y-53.56
X53.705Y-53.56
X75.295Y-53.56
X77.835Y-53.56
T4
X46.1Y-49.2
X62.Y-37.975
X64.5Y-41.4
X67.5Y-37.975
X73.3Y-59.9
X83.Y-53.3
X62.5Y-34.
X64.5Y-34.
X66.5Y-34.
X68.5Y-34.
X27.7Y-55.3
X27.7Y-57.3
X27.7Y-59.3
T5
X34.2Y-47.6
X36.7Y-47.6
X39.2Y-47.6
T6
X103.2Y-57.8
X103.2Y-60.3
X30.Y-24.06
X30.Y-26.6
X33.2Y-57.8
X33.2Y-60.3
X48.2Y-40.5
X48.2Y-43.
X80.714Y-39.5
X80.714Y-42.
T7
X27.7Y-53.1
X27.7Y-61.5
X90.708Y-30.692
X95.788Y-30.692
T0
M30
