G04 #@! TF.GenerationSoftware,KiCad,Pcbnew,(5.0.0)*
G04 #@! TF.CreationDate,2019-01-28T15:32:59+09:00*
G04 #@! TF.ProjectId,EDAMAMEv3,4544414D414D4576332E6B696361645F,rev?*
G04 #@! TF.SameCoordinates,Original*
G04 #@! TF.FileFunction,Soldermask,Bot*
G04 #@! TF.FilePolarity,Negative*
%FSLAX46Y46*%
G04 Gerber Fmt 4.6, Leading zero omitted, Abs format (unit mm)*
G04 Created by KiCad (PCBNEW (5.0.0)) date 01/28/19 15:32:59*
%MOMM*%
%LPD*%
G01*
G04 APERTURE LIST*
%ADD10R,0.280000X1.500000*%
%ADD11R,1.500000X0.280000*%
%ADD12R,0.600000X1.550000*%
%ADD13C,1.524000*%
%ADD14R,1.350000X1.350000*%
%ADD15O,1.350000X1.350000*%
%ADD16C,0.100000*%
%ADD17C,0.950000*%
%ADD18R,1.700000X1.700000*%
%ADD19O,1.700000X1.700000*%
%ADD20R,2.500000X2.500000*%
%ADD21C,2.500000*%
%ADD22R,2.000000X1.700000*%
%ADD23O,2.000000X1.700000*%
%ADD24C,1.150000*%
%ADD25C,0.500000*%
%ADD26C,1.200000*%
%ADD27R,1.700000X1.950000*%
%ADD28O,1.700000X1.950000*%
%ADD29C,1.525000*%
%ADD30O,3.000000X2.000000*%
%ADD31O,2.200000X1.300000*%
%ADD32R,3.800000X2.000000*%
%ADD33R,1.500000X2.000000*%
%ADD34R,0.800000X0.900000*%
G04 APERTURE END LIST*
D10*
G04 #@! TO.C,U3*
X46100000Y-19300000D03*
X46600000Y-19300000D03*
X47100000Y-19300000D03*
X47600000Y-19300000D03*
X48100000Y-19300000D03*
X48600000Y-19300000D03*
X49100000Y-19300000D03*
X49600000Y-19300000D03*
X50100000Y-19300000D03*
X50600000Y-19300000D03*
X51100000Y-19300000D03*
X51600000Y-19300000D03*
X52100000Y-19300000D03*
X52600000Y-19300000D03*
X53100000Y-19300000D03*
X53600000Y-19300000D03*
X54100000Y-19300000D03*
X54600000Y-19300000D03*
X55100000Y-19300000D03*
X55600000Y-19300000D03*
X56100000Y-19300000D03*
X56600000Y-19300000D03*
X57100000Y-19300000D03*
X57600000Y-19300000D03*
X58100000Y-19300000D03*
D11*
X60000000Y-21200000D03*
X60000000Y-21700000D03*
X60000000Y-22200000D03*
X60000000Y-22700000D03*
X60000000Y-23200000D03*
X60000000Y-23700000D03*
X60000000Y-24200000D03*
X60000000Y-24700000D03*
X60000000Y-25200000D03*
X60000000Y-25700000D03*
X60000000Y-26200000D03*
X60000000Y-26700000D03*
X60000000Y-27200000D03*
X60000000Y-27700000D03*
X60000000Y-28200000D03*
X60000000Y-28700000D03*
X60000000Y-29200000D03*
X60000000Y-29700000D03*
X60000000Y-30200000D03*
X60000000Y-30700000D03*
X60000000Y-31200000D03*
X60000000Y-31700000D03*
X60000000Y-32200000D03*
X60000000Y-32700000D03*
X60000000Y-33200000D03*
D10*
X58100000Y-35100000D03*
X57600000Y-35100000D03*
X57100000Y-35100000D03*
X56600000Y-35100000D03*
X56100000Y-35100000D03*
X55600000Y-35100000D03*
X55100000Y-35100000D03*
X54600000Y-35100000D03*
X54100000Y-35100000D03*
X53600000Y-35100000D03*
X53100000Y-35100000D03*
X52600000Y-35100000D03*
X52100000Y-35100000D03*
X51600000Y-35100000D03*
X51100000Y-35100000D03*
X50600000Y-35100000D03*
X50100000Y-35100000D03*
X49600000Y-35100000D03*
X49100000Y-35100000D03*
X48600000Y-35100000D03*
X48100000Y-35100000D03*
X47600000Y-35100000D03*
X47100000Y-35100000D03*
X46600000Y-35100000D03*
X46100000Y-35100000D03*
D11*
X44200000Y-33200000D03*
X44200000Y-32700000D03*
X44200000Y-32200000D03*
X44200000Y-31700000D03*
X44200000Y-31200000D03*
X44200000Y-30700000D03*
X44200000Y-30200000D03*
X44200000Y-29700000D03*
X44200000Y-29200000D03*
X44200000Y-28700000D03*
X44200000Y-28200000D03*
X44200000Y-27700000D03*
X44200000Y-27200000D03*
X44200000Y-26700000D03*
X44200000Y-26200000D03*
X44200000Y-25700000D03*
X44200000Y-25200000D03*
X44200000Y-24700000D03*
X44200000Y-24200000D03*
X44200000Y-23700000D03*
X44200000Y-23200000D03*
X44200000Y-22700000D03*
X44200000Y-22200000D03*
X44200000Y-21700000D03*
X44200000Y-21200000D03*
G04 #@! TD*
D12*
G04 #@! TO.C,U9*
X46095000Y-51200000D03*
X47365000Y-51200000D03*
X48635000Y-51200000D03*
X49905000Y-51200000D03*
X49905000Y-45800000D03*
X48635000Y-45800000D03*
X47365000Y-45800000D03*
X46095000Y-45800000D03*
G04 #@! TD*
D13*
G04 #@! TO.C,J4*
X51165000Y-53560000D03*
X53705000Y-53560000D03*
X75295000Y-53560000D03*
X77835000Y-53560000D03*
G04 #@! TD*
D14*
G04 #@! TO.C,J5*
X62500000Y-34000000D03*
D15*
X64500000Y-34000000D03*
X66500000Y-34000000D03*
X68500000Y-34000000D03*
G04 #@! TD*
D16*
G04 #@! TO.C,D1*
G36*
X22261187Y-58503316D02*
X22284242Y-58506735D01*
X22306851Y-58512399D01*
X22328795Y-58520251D01*
X22349865Y-58530216D01*
X22369856Y-58542198D01*
X22388576Y-58556082D01*
X22405846Y-58571734D01*
X22421498Y-58589004D01*
X22435382Y-58607724D01*
X22447364Y-58627715D01*
X22457329Y-58648785D01*
X22465181Y-58670729D01*
X22470845Y-58693338D01*
X22474264Y-58716393D01*
X22475408Y-58739672D01*
X22475408Y-59314672D01*
X22474264Y-59337951D01*
X22470845Y-59361006D01*
X22465181Y-59383615D01*
X22457329Y-59405559D01*
X22447364Y-59426629D01*
X22435382Y-59446620D01*
X22421498Y-59465340D01*
X22405846Y-59482610D01*
X22388576Y-59498262D01*
X22369856Y-59512146D01*
X22349865Y-59524128D01*
X22328795Y-59534093D01*
X22306851Y-59541945D01*
X22284242Y-59547609D01*
X22261187Y-59551028D01*
X22237908Y-59552172D01*
X21762908Y-59552172D01*
X21739629Y-59551028D01*
X21716574Y-59547609D01*
X21693965Y-59541945D01*
X21672021Y-59534093D01*
X21650951Y-59524128D01*
X21630960Y-59512146D01*
X21612240Y-59498262D01*
X21594970Y-59482610D01*
X21579318Y-59465340D01*
X21565434Y-59446620D01*
X21553452Y-59426629D01*
X21543487Y-59405559D01*
X21535635Y-59383615D01*
X21529971Y-59361006D01*
X21526552Y-59337951D01*
X21525408Y-59314672D01*
X21525408Y-58739672D01*
X21526552Y-58716393D01*
X21529971Y-58693338D01*
X21535635Y-58670729D01*
X21543487Y-58648785D01*
X21553452Y-58627715D01*
X21565434Y-58607724D01*
X21579318Y-58589004D01*
X21594970Y-58571734D01*
X21612240Y-58556082D01*
X21630960Y-58542198D01*
X21650951Y-58530216D01*
X21672021Y-58520251D01*
X21693965Y-58512399D01*
X21716574Y-58506735D01*
X21739629Y-58503316D01*
X21762908Y-58502172D01*
X22237908Y-58502172D01*
X22261187Y-58503316D01*
X22261187Y-58503316D01*
G37*
D17*
X22000408Y-59027172D03*
D16*
G36*
X22261187Y-56753316D02*
X22284242Y-56756735D01*
X22306851Y-56762399D01*
X22328795Y-56770251D01*
X22349865Y-56780216D01*
X22369856Y-56792198D01*
X22388576Y-56806082D01*
X22405846Y-56821734D01*
X22421498Y-56839004D01*
X22435382Y-56857724D01*
X22447364Y-56877715D01*
X22457329Y-56898785D01*
X22465181Y-56920729D01*
X22470845Y-56943338D01*
X22474264Y-56966393D01*
X22475408Y-56989672D01*
X22475408Y-57564672D01*
X22474264Y-57587951D01*
X22470845Y-57611006D01*
X22465181Y-57633615D01*
X22457329Y-57655559D01*
X22447364Y-57676629D01*
X22435382Y-57696620D01*
X22421498Y-57715340D01*
X22405846Y-57732610D01*
X22388576Y-57748262D01*
X22369856Y-57762146D01*
X22349865Y-57774128D01*
X22328795Y-57784093D01*
X22306851Y-57791945D01*
X22284242Y-57797609D01*
X22261187Y-57801028D01*
X22237908Y-57802172D01*
X21762908Y-57802172D01*
X21739629Y-57801028D01*
X21716574Y-57797609D01*
X21693965Y-57791945D01*
X21672021Y-57784093D01*
X21650951Y-57774128D01*
X21630960Y-57762146D01*
X21612240Y-57748262D01*
X21594970Y-57732610D01*
X21579318Y-57715340D01*
X21565434Y-57696620D01*
X21553452Y-57676629D01*
X21543487Y-57655559D01*
X21535635Y-57633615D01*
X21529971Y-57611006D01*
X21526552Y-57587951D01*
X21525408Y-57564672D01*
X21525408Y-56989672D01*
X21526552Y-56966393D01*
X21529971Y-56943338D01*
X21535635Y-56920729D01*
X21543487Y-56898785D01*
X21553452Y-56877715D01*
X21565434Y-56857724D01*
X21579318Y-56839004D01*
X21594970Y-56821734D01*
X21612240Y-56806082D01*
X21630960Y-56792198D01*
X21650951Y-56780216D01*
X21672021Y-56770251D01*
X21693965Y-56762399D01*
X21716574Y-56756735D01*
X21739629Y-56753316D01*
X21762908Y-56752172D01*
X22237908Y-56752172D01*
X22261187Y-56753316D01*
X22261187Y-56753316D01*
G37*
D17*
X22000408Y-57277172D03*
G04 #@! TD*
D18*
G04 #@! TO.C,J3*
X30000000Y-26600000D03*
D19*
X30000000Y-24060000D03*
G04 #@! TD*
D20*
G04 #@! TO.C,P6*
X90708000Y-30692000D03*
D21*
X95788000Y-30692000D03*
G04 #@! TD*
D22*
G04 #@! TO.C,P4*
X80714000Y-42000000D03*
D23*
X80714000Y-39500000D03*
G04 #@! TD*
G04 #@! TO.C,P5*
X48200000Y-43000000D03*
D22*
X48200000Y-40500000D03*
G04 #@! TD*
D16*
G04 #@! TO.C,R4*
G36*
X22261187Y-54439316D02*
X22284242Y-54442735D01*
X22306851Y-54448399D01*
X22328795Y-54456251D01*
X22349865Y-54466216D01*
X22369856Y-54478198D01*
X22388576Y-54492082D01*
X22405846Y-54507734D01*
X22421498Y-54525004D01*
X22435382Y-54543724D01*
X22447364Y-54563715D01*
X22457329Y-54584785D01*
X22465181Y-54606729D01*
X22470845Y-54629338D01*
X22474264Y-54652393D01*
X22475408Y-54675672D01*
X22475408Y-55250672D01*
X22474264Y-55273951D01*
X22470845Y-55297006D01*
X22465181Y-55319615D01*
X22457329Y-55341559D01*
X22447364Y-55362629D01*
X22435382Y-55382620D01*
X22421498Y-55401340D01*
X22405846Y-55418610D01*
X22388576Y-55434262D01*
X22369856Y-55448146D01*
X22349865Y-55460128D01*
X22328795Y-55470093D01*
X22306851Y-55477945D01*
X22284242Y-55483609D01*
X22261187Y-55487028D01*
X22237908Y-55488172D01*
X21762908Y-55488172D01*
X21739629Y-55487028D01*
X21716574Y-55483609D01*
X21693965Y-55477945D01*
X21672021Y-55470093D01*
X21650951Y-55460128D01*
X21630960Y-55448146D01*
X21612240Y-55434262D01*
X21594970Y-55418610D01*
X21579318Y-55401340D01*
X21565434Y-55382620D01*
X21553452Y-55362629D01*
X21543487Y-55341559D01*
X21535635Y-55319615D01*
X21529971Y-55297006D01*
X21526552Y-55273951D01*
X21525408Y-55250672D01*
X21525408Y-54675672D01*
X21526552Y-54652393D01*
X21529971Y-54629338D01*
X21535635Y-54606729D01*
X21543487Y-54584785D01*
X21553452Y-54563715D01*
X21565434Y-54543724D01*
X21579318Y-54525004D01*
X21594970Y-54507734D01*
X21612240Y-54492082D01*
X21630960Y-54478198D01*
X21650951Y-54466216D01*
X21672021Y-54456251D01*
X21693965Y-54448399D01*
X21716574Y-54442735D01*
X21739629Y-54439316D01*
X21762908Y-54438172D01*
X22237908Y-54438172D01*
X22261187Y-54439316D01*
X22261187Y-54439316D01*
G37*
D17*
X22000408Y-54963172D03*
D16*
G36*
X22261187Y-52689316D02*
X22284242Y-52692735D01*
X22306851Y-52698399D01*
X22328795Y-52706251D01*
X22349865Y-52716216D01*
X22369856Y-52728198D01*
X22388576Y-52742082D01*
X22405846Y-52757734D01*
X22421498Y-52775004D01*
X22435382Y-52793724D01*
X22447364Y-52813715D01*
X22457329Y-52834785D01*
X22465181Y-52856729D01*
X22470845Y-52879338D01*
X22474264Y-52902393D01*
X22475408Y-52925672D01*
X22475408Y-53500672D01*
X22474264Y-53523951D01*
X22470845Y-53547006D01*
X22465181Y-53569615D01*
X22457329Y-53591559D01*
X22447364Y-53612629D01*
X22435382Y-53632620D01*
X22421498Y-53651340D01*
X22405846Y-53668610D01*
X22388576Y-53684262D01*
X22369856Y-53698146D01*
X22349865Y-53710128D01*
X22328795Y-53720093D01*
X22306851Y-53727945D01*
X22284242Y-53733609D01*
X22261187Y-53737028D01*
X22237908Y-53738172D01*
X21762908Y-53738172D01*
X21739629Y-53737028D01*
X21716574Y-53733609D01*
X21693965Y-53727945D01*
X21672021Y-53720093D01*
X21650951Y-53710128D01*
X21630960Y-53698146D01*
X21612240Y-53684262D01*
X21594970Y-53668610D01*
X21579318Y-53651340D01*
X21565434Y-53632620D01*
X21553452Y-53612629D01*
X21543487Y-53591559D01*
X21535635Y-53569615D01*
X21529971Y-53547006D01*
X21526552Y-53523951D01*
X21525408Y-53500672D01*
X21525408Y-52925672D01*
X21526552Y-52902393D01*
X21529971Y-52879338D01*
X21535635Y-52856729D01*
X21543487Y-52834785D01*
X21553452Y-52813715D01*
X21565434Y-52793724D01*
X21579318Y-52775004D01*
X21594970Y-52757734D01*
X21612240Y-52742082D01*
X21630960Y-52728198D01*
X21650951Y-52716216D01*
X21672021Y-52706251D01*
X21693965Y-52698399D01*
X21716574Y-52692735D01*
X21739629Y-52689316D01*
X21762908Y-52688172D01*
X22237908Y-52688172D01*
X22261187Y-52689316D01*
X22261187Y-52689316D01*
G37*
D17*
X22000408Y-53213172D03*
G04 #@! TD*
D16*
G04 #@! TO.C,C1*
G36*
X63935779Y-46526144D02*
X63958834Y-46529563D01*
X63981443Y-46535227D01*
X64003387Y-46543079D01*
X64024457Y-46553044D01*
X64044448Y-46565026D01*
X64063168Y-46578910D01*
X64080438Y-46594562D01*
X64096090Y-46611832D01*
X64109974Y-46630552D01*
X64121956Y-46650543D01*
X64131921Y-46671613D01*
X64139773Y-46693557D01*
X64145437Y-46716166D01*
X64148856Y-46739221D01*
X64150000Y-46762500D01*
X64150000Y-47237500D01*
X64148856Y-47260779D01*
X64145437Y-47283834D01*
X64139773Y-47306443D01*
X64131921Y-47328387D01*
X64121956Y-47349457D01*
X64109974Y-47369448D01*
X64096090Y-47388168D01*
X64080438Y-47405438D01*
X64063168Y-47421090D01*
X64044448Y-47434974D01*
X64024457Y-47446956D01*
X64003387Y-47456921D01*
X63981443Y-47464773D01*
X63958834Y-47470437D01*
X63935779Y-47473856D01*
X63912500Y-47475000D01*
X63337500Y-47475000D01*
X63314221Y-47473856D01*
X63291166Y-47470437D01*
X63268557Y-47464773D01*
X63246613Y-47456921D01*
X63225543Y-47446956D01*
X63205552Y-47434974D01*
X63186832Y-47421090D01*
X63169562Y-47405438D01*
X63153910Y-47388168D01*
X63140026Y-47369448D01*
X63128044Y-47349457D01*
X63118079Y-47328387D01*
X63110227Y-47306443D01*
X63104563Y-47283834D01*
X63101144Y-47260779D01*
X63100000Y-47237500D01*
X63100000Y-46762500D01*
X63101144Y-46739221D01*
X63104563Y-46716166D01*
X63110227Y-46693557D01*
X63118079Y-46671613D01*
X63128044Y-46650543D01*
X63140026Y-46630552D01*
X63153910Y-46611832D01*
X63169562Y-46594562D01*
X63186832Y-46578910D01*
X63205552Y-46565026D01*
X63225543Y-46553044D01*
X63246613Y-46543079D01*
X63268557Y-46535227D01*
X63291166Y-46529563D01*
X63314221Y-46526144D01*
X63337500Y-46525000D01*
X63912500Y-46525000D01*
X63935779Y-46526144D01*
X63935779Y-46526144D01*
G37*
D17*
X63625000Y-47000000D03*
D16*
G36*
X65685779Y-46526144D02*
X65708834Y-46529563D01*
X65731443Y-46535227D01*
X65753387Y-46543079D01*
X65774457Y-46553044D01*
X65794448Y-46565026D01*
X65813168Y-46578910D01*
X65830438Y-46594562D01*
X65846090Y-46611832D01*
X65859974Y-46630552D01*
X65871956Y-46650543D01*
X65881921Y-46671613D01*
X65889773Y-46693557D01*
X65895437Y-46716166D01*
X65898856Y-46739221D01*
X65900000Y-46762500D01*
X65900000Y-47237500D01*
X65898856Y-47260779D01*
X65895437Y-47283834D01*
X65889773Y-47306443D01*
X65881921Y-47328387D01*
X65871956Y-47349457D01*
X65859974Y-47369448D01*
X65846090Y-47388168D01*
X65830438Y-47405438D01*
X65813168Y-47421090D01*
X65794448Y-47434974D01*
X65774457Y-47446956D01*
X65753387Y-47456921D01*
X65731443Y-47464773D01*
X65708834Y-47470437D01*
X65685779Y-47473856D01*
X65662500Y-47475000D01*
X65087500Y-47475000D01*
X65064221Y-47473856D01*
X65041166Y-47470437D01*
X65018557Y-47464773D01*
X64996613Y-47456921D01*
X64975543Y-47446956D01*
X64955552Y-47434974D01*
X64936832Y-47421090D01*
X64919562Y-47405438D01*
X64903910Y-47388168D01*
X64890026Y-47369448D01*
X64878044Y-47349457D01*
X64868079Y-47328387D01*
X64860227Y-47306443D01*
X64854563Y-47283834D01*
X64851144Y-47260779D01*
X64850000Y-47237500D01*
X64850000Y-46762500D01*
X64851144Y-46739221D01*
X64854563Y-46716166D01*
X64860227Y-46693557D01*
X64868079Y-46671613D01*
X64878044Y-46650543D01*
X64890026Y-46630552D01*
X64903910Y-46611832D01*
X64919562Y-46594562D01*
X64936832Y-46578910D01*
X64955552Y-46565026D01*
X64975543Y-46553044D01*
X64996613Y-46543079D01*
X65018557Y-46535227D01*
X65041166Y-46529563D01*
X65064221Y-46526144D01*
X65087500Y-46525000D01*
X65662500Y-46525000D01*
X65685779Y-46526144D01*
X65685779Y-46526144D01*
G37*
D17*
X65375000Y-47000000D03*
G04 #@! TD*
D16*
G04 #@! TO.C,C5*
G36*
X48085779Y-38076144D02*
X48108834Y-38079563D01*
X48131443Y-38085227D01*
X48153387Y-38093079D01*
X48174457Y-38103044D01*
X48194448Y-38115026D01*
X48213168Y-38128910D01*
X48230438Y-38144562D01*
X48246090Y-38161832D01*
X48259974Y-38180552D01*
X48271956Y-38200543D01*
X48281921Y-38221613D01*
X48289773Y-38243557D01*
X48295437Y-38266166D01*
X48298856Y-38289221D01*
X48300000Y-38312500D01*
X48300000Y-38787500D01*
X48298856Y-38810779D01*
X48295437Y-38833834D01*
X48289773Y-38856443D01*
X48281921Y-38878387D01*
X48271956Y-38899457D01*
X48259974Y-38919448D01*
X48246090Y-38938168D01*
X48230438Y-38955438D01*
X48213168Y-38971090D01*
X48194448Y-38984974D01*
X48174457Y-38996956D01*
X48153387Y-39006921D01*
X48131443Y-39014773D01*
X48108834Y-39020437D01*
X48085779Y-39023856D01*
X48062500Y-39025000D01*
X47487500Y-39025000D01*
X47464221Y-39023856D01*
X47441166Y-39020437D01*
X47418557Y-39014773D01*
X47396613Y-39006921D01*
X47375543Y-38996956D01*
X47355552Y-38984974D01*
X47336832Y-38971090D01*
X47319562Y-38955438D01*
X47303910Y-38938168D01*
X47290026Y-38919448D01*
X47278044Y-38899457D01*
X47268079Y-38878387D01*
X47260227Y-38856443D01*
X47254563Y-38833834D01*
X47251144Y-38810779D01*
X47250000Y-38787500D01*
X47250000Y-38312500D01*
X47251144Y-38289221D01*
X47254563Y-38266166D01*
X47260227Y-38243557D01*
X47268079Y-38221613D01*
X47278044Y-38200543D01*
X47290026Y-38180552D01*
X47303910Y-38161832D01*
X47319562Y-38144562D01*
X47336832Y-38128910D01*
X47355552Y-38115026D01*
X47375543Y-38103044D01*
X47396613Y-38093079D01*
X47418557Y-38085227D01*
X47441166Y-38079563D01*
X47464221Y-38076144D01*
X47487500Y-38075000D01*
X48062500Y-38075000D01*
X48085779Y-38076144D01*
X48085779Y-38076144D01*
G37*
D17*
X47775000Y-38550000D03*
D16*
G36*
X46335779Y-38076144D02*
X46358834Y-38079563D01*
X46381443Y-38085227D01*
X46403387Y-38093079D01*
X46424457Y-38103044D01*
X46444448Y-38115026D01*
X46463168Y-38128910D01*
X46480438Y-38144562D01*
X46496090Y-38161832D01*
X46509974Y-38180552D01*
X46521956Y-38200543D01*
X46531921Y-38221613D01*
X46539773Y-38243557D01*
X46545437Y-38266166D01*
X46548856Y-38289221D01*
X46550000Y-38312500D01*
X46550000Y-38787500D01*
X46548856Y-38810779D01*
X46545437Y-38833834D01*
X46539773Y-38856443D01*
X46531921Y-38878387D01*
X46521956Y-38899457D01*
X46509974Y-38919448D01*
X46496090Y-38938168D01*
X46480438Y-38955438D01*
X46463168Y-38971090D01*
X46444448Y-38984974D01*
X46424457Y-38996956D01*
X46403387Y-39006921D01*
X46381443Y-39014773D01*
X46358834Y-39020437D01*
X46335779Y-39023856D01*
X46312500Y-39025000D01*
X45737500Y-39025000D01*
X45714221Y-39023856D01*
X45691166Y-39020437D01*
X45668557Y-39014773D01*
X45646613Y-39006921D01*
X45625543Y-38996956D01*
X45605552Y-38984974D01*
X45586832Y-38971090D01*
X45569562Y-38955438D01*
X45553910Y-38938168D01*
X45540026Y-38919448D01*
X45528044Y-38899457D01*
X45518079Y-38878387D01*
X45510227Y-38856443D01*
X45504563Y-38833834D01*
X45501144Y-38810779D01*
X45500000Y-38787500D01*
X45500000Y-38312500D01*
X45501144Y-38289221D01*
X45504563Y-38266166D01*
X45510227Y-38243557D01*
X45518079Y-38221613D01*
X45528044Y-38200543D01*
X45540026Y-38180552D01*
X45553910Y-38161832D01*
X45569562Y-38144562D01*
X45586832Y-38128910D01*
X45605552Y-38115026D01*
X45625543Y-38103044D01*
X45646613Y-38093079D01*
X45668557Y-38085227D01*
X45691166Y-38079563D01*
X45714221Y-38076144D01*
X45737500Y-38075000D01*
X46312500Y-38075000D01*
X46335779Y-38076144D01*
X46335779Y-38076144D01*
G37*
D17*
X46025000Y-38550000D03*
G04 #@! TD*
D16*
G04 #@! TO.C,C6*
G36*
X93560779Y-52351144D02*
X93583834Y-52354563D01*
X93606443Y-52360227D01*
X93628387Y-52368079D01*
X93649457Y-52378044D01*
X93669448Y-52390026D01*
X93688168Y-52403910D01*
X93705438Y-52419562D01*
X93721090Y-52436832D01*
X93734974Y-52455552D01*
X93746956Y-52475543D01*
X93756921Y-52496613D01*
X93764773Y-52518557D01*
X93770437Y-52541166D01*
X93773856Y-52564221D01*
X93775000Y-52587500D01*
X93775000Y-53162500D01*
X93773856Y-53185779D01*
X93770437Y-53208834D01*
X93764773Y-53231443D01*
X93756921Y-53253387D01*
X93746956Y-53274457D01*
X93734974Y-53294448D01*
X93721090Y-53313168D01*
X93705438Y-53330438D01*
X93688168Y-53346090D01*
X93669448Y-53359974D01*
X93649457Y-53371956D01*
X93628387Y-53381921D01*
X93606443Y-53389773D01*
X93583834Y-53395437D01*
X93560779Y-53398856D01*
X93537500Y-53400000D01*
X93062500Y-53400000D01*
X93039221Y-53398856D01*
X93016166Y-53395437D01*
X92993557Y-53389773D01*
X92971613Y-53381921D01*
X92950543Y-53371956D01*
X92930552Y-53359974D01*
X92911832Y-53346090D01*
X92894562Y-53330438D01*
X92878910Y-53313168D01*
X92865026Y-53294448D01*
X92853044Y-53274457D01*
X92843079Y-53253387D01*
X92835227Y-53231443D01*
X92829563Y-53208834D01*
X92826144Y-53185779D01*
X92825000Y-53162500D01*
X92825000Y-52587500D01*
X92826144Y-52564221D01*
X92829563Y-52541166D01*
X92835227Y-52518557D01*
X92843079Y-52496613D01*
X92853044Y-52475543D01*
X92865026Y-52455552D01*
X92878910Y-52436832D01*
X92894562Y-52419562D01*
X92911832Y-52403910D01*
X92930552Y-52390026D01*
X92950543Y-52378044D01*
X92971613Y-52368079D01*
X92993557Y-52360227D01*
X93016166Y-52354563D01*
X93039221Y-52351144D01*
X93062500Y-52350000D01*
X93537500Y-52350000D01*
X93560779Y-52351144D01*
X93560779Y-52351144D01*
G37*
D17*
X93300000Y-52875000D03*
D16*
G36*
X93560779Y-50601144D02*
X93583834Y-50604563D01*
X93606443Y-50610227D01*
X93628387Y-50618079D01*
X93649457Y-50628044D01*
X93669448Y-50640026D01*
X93688168Y-50653910D01*
X93705438Y-50669562D01*
X93721090Y-50686832D01*
X93734974Y-50705552D01*
X93746956Y-50725543D01*
X93756921Y-50746613D01*
X93764773Y-50768557D01*
X93770437Y-50791166D01*
X93773856Y-50814221D01*
X93775000Y-50837500D01*
X93775000Y-51412500D01*
X93773856Y-51435779D01*
X93770437Y-51458834D01*
X93764773Y-51481443D01*
X93756921Y-51503387D01*
X93746956Y-51524457D01*
X93734974Y-51544448D01*
X93721090Y-51563168D01*
X93705438Y-51580438D01*
X93688168Y-51596090D01*
X93669448Y-51609974D01*
X93649457Y-51621956D01*
X93628387Y-51631921D01*
X93606443Y-51639773D01*
X93583834Y-51645437D01*
X93560779Y-51648856D01*
X93537500Y-51650000D01*
X93062500Y-51650000D01*
X93039221Y-51648856D01*
X93016166Y-51645437D01*
X92993557Y-51639773D01*
X92971613Y-51631921D01*
X92950543Y-51621956D01*
X92930552Y-51609974D01*
X92911832Y-51596090D01*
X92894562Y-51580438D01*
X92878910Y-51563168D01*
X92865026Y-51544448D01*
X92853044Y-51524457D01*
X92843079Y-51503387D01*
X92835227Y-51481443D01*
X92829563Y-51458834D01*
X92826144Y-51435779D01*
X92825000Y-51412500D01*
X92825000Y-50837500D01*
X92826144Y-50814221D01*
X92829563Y-50791166D01*
X92835227Y-50768557D01*
X92843079Y-50746613D01*
X92853044Y-50725543D01*
X92865026Y-50705552D01*
X92878910Y-50686832D01*
X92894562Y-50669562D01*
X92911832Y-50653910D01*
X92930552Y-50640026D01*
X92950543Y-50628044D01*
X92971613Y-50618079D01*
X92993557Y-50610227D01*
X93016166Y-50604563D01*
X93039221Y-50601144D01*
X93062500Y-50600000D01*
X93537500Y-50600000D01*
X93560779Y-50601144D01*
X93560779Y-50601144D01*
G37*
D17*
X93300000Y-51125000D03*
G04 #@! TD*
D16*
G04 #@! TO.C,C7*
G36*
X46335779Y-36476144D02*
X46358834Y-36479563D01*
X46381443Y-36485227D01*
X46403387Y-36493079D01*
X46424457Y-36503044D01*
X46444448Y-36515026D01*
X46463168Y-36528910D01*
X46480438Y-36544562D01*
X46496090Y-36561832D01*
X46509974Y-36580552D01*
X46521956Y-36600543D01*
X46531921Y-36621613D01*
X46539773Y-36643557D01*
X46545437Y-36666166D01*
X46548856Y-36689221D01*
X46550000Y-36712500D01*
X46550000Y-37187500D01*
X46548856Y-37210779D01*
X46545437Y-37233834D01*
X46539773Y-37256443D01*
X46531921Y-37278387D01*
X46521956Y-37299457D01*
X46509974Y-37319448D01*
X46496090Y-37338168D01*
X46480438Y-37355438D01*
X46463168Y-37371090D01*
X46444448Y-37384974D01*
X46424457Y-37396956D01*
X46403387Y-37406921D01*
X46381443Y-37414773D01*
X46358834Y-37420437D01*
X46335779Y-37423856D01*
X46312500Y-37425000D01*
X45737500Y-37425000D01*
X45714221Y-37423856D01*
X45691166Y-37420437D01*
X45668557Y-37414773D01*
X45646613Y-37406921D01*
X45625543Y-37396956D01*
X45605552Y-37384974D01*
X45586832Y-37371090D01*
X45569562Y-37355438D01*
X45553910Y-37338168D01*
X45540026Y-37319448D01*
X45528044Y-37299457D01*
X45518079Y-37278387D01*
X45510227Y-37256443D01*
X45504563Y-37233834D01*
X45501144Y-37210779D01*
X45500000Y-37187500D01*
X45500000Y-36712500D01*
X45501144Y-36689221D01*
X45504563Y-36666166D01*
X45510227Y-36643557D01*
X45518079Y-36621613D01*
X45528044Y-36600543D01*
X45540026Y-36580552D01*
X45553910Y-36561832D01*
X45569562Y-36544562D01*
X45586832Y-36528910D01*
X45605552Y-36515026D01*
X45625543Y-36503044D01*
X45646613Y-36493079D01*
X45668557Y-36485227D01*
X45691166Y-36479563D01*
X45714221Y-36476144D01*
X45737500Y-36475000D01*
X46312500Y-36475000D01*
X46335779Y-36476144D01*
X46335779Y-36476144D01*
G37*
D17*
X46025000Y-36950000D03*
D16*
G36*
X48085779Y-36476144D02*
X48108834Y-36479563D01*
X48131443Y-36485227D01*
X48153387Y-36493079D01*
X48174457Y-36503044D01*
X48194448Y-36515026D01*
X48213168Y-36528910D01*
X48230438Y-36544562D01*
X48246090Y-36561832D01*
X48259974Y-36580552D01*
X48271956Y-36600543D01*
X48281921Y-36621613D01*
X48289773Y-36643557D01*
X48295437Y-36666166D01*
X48298856Y-36689221D01*
X48300000Y-36712500D01*
X48300000Y-37187500D01*
X48298856Y-37210779D01*
X48295437Y-37233834D01*
X48289773Y-37256443D01*
X48281921Y-37278387D01*
X48271956Y-37299457D01*
X48259974Y-37319448D01*
X48246090Y-37338168D01*
X48230438Y-37355438D01*
X48213168Y-37371090D01*
X48194448Y-37384974D01*
X48174457Y-37396956D01*
X48153387Y-37406921D01*
X48131443Y-37414773D01*
X48108834Y-37420437D01*
X48085779Y-37423856D01*
X48062500Y-37425000D01*
X47487500Y-37425000D01*
X47464221Y-37423856D01*
X47441166Y-37420437D01*
X47418557Y-37414773D01*
X47396613Y-37406921D01*
X47375543Y-37396956D01*
X47355552Y-37384974D01*
X47336832Y-37371090D01*
X47319562Y-37355438D01*
X47303910Y-37338168D01*
X47290026Y-37319448D01*
X47278044Y-37299457D01*
X47268079Y-37278387D01*
X47260227Y-37256443D01*
X47254563Y-37233834D01*
X47251144Y-37210779D01*
X47250000Y-37187500D01*
X47250000Y-36712500D01*
X47251144Y-36689221D01*
X47254563Y-36666166D01*
X47260227Y-36643557D01*
X47268079Y-36621613D01*
X47278044Y-36600543D01*
X47290026Y-36580552D01*
X47303910Y-36561832D01*
X47319562Y-36544562D01*
X47336832Y-36528910D01*
X47355552Y-36515026D01*
X47375543Y-36503044D01*
X47396613Y-36493079D01*
X47418557Y-36485227D01*
X47441166Y-36479563D01*
X47464221Y-36476144D01*
X47487500Y-36475000D01*
X48062500Y-36475000D01*
X48085779Y-36476144D01*
X48085779Y-36476144D01*
G37*
D17*
X47775000Y-36950000D03*
G04 #@! TD*
D16*
G04 #@! TO.C,C10*
G36*
X89835779Y-54126144D02*
X89858834Y-54129563D01*
X89881443Y-54135227D01*
X89903387Y-54143079D01*
X89924457Y-54153044D01*
X89944448Y-54165026D01*
X89963168Y-54178910D01*
X89980438Y-54194562D01*
X89996090Y-54211832D01*
X90009974Y-54230552D01*
X90021956Y-54250543D01*
X90031921Y-54271613D01*
X90039773Y-54293557D01*
X90045437Y-54316166D01*
X90048856Y-54339221D01*
X90050000Y-54362500D01*
X90050000Y-54837500D01*
X90048856Y-54860779D01*
X90045437Y-54883834D01*
X90039773Y-54906443D01*
X90031921Y-54928387D01*
X90021956Y-54949457D01*
X90009974Y-54969448D01*
X89996090Y-54988168D01*
X89980438Y-55005438D01*
X89963168Y-55021090D01*
X89944448Y-55034974D01*
X89924457Y-55046956D01*
X89903387Y-55056921D01*
X89881443Y-55064773D01*
X89858834Y-55070437D01*
X89835779Y-55073856D01*
X89812500Y-55075000D01*
X89237500Y-55075000D01*
X89214221Y-55073856D01*
X89191166Y-55070437D01*
X89168557Y-55064773D01*
X89146613Y-55056921D01*
X89125543Y-55046956D01*
X89105552Y-55034974D01*
X89086832Y-55021090D01*
X89069562Y-55005438D01*
X89053910Y-54988168D01*
X89040026Y-54969448D01*
X89028044Y-54949457D01*
X89018079Y-54928387D01*
X89010227Y-54906443D01*
X89004563Y-54883834D01*
X89001144Y-54860779D01*
X89000000Y-54837500D01*
X89000000Y-54362500D01*
X89001144Y-54339221D01*
X89004563Y-54316166D01*
X89010227Y-54293557D01*
X89018079Y-54271613D01*
X89028044Y-54250543D01*
X89040026Y-54230552D01*
X89053910Y-54211832D01*
X89069562Y-54194562D01*
X89086832Y-54178910D01*
X89105552Y-54165026D01*
X89125543Y-54153044D01*
X89146613Y-54143079D01*
X89168557Y-54135227D01*
X89191166Y-54129563D01*
X89214221Y-54126144D01*
X89237500Y-54125000D01*
X89812500Y-54125000D01*
X89835779Y-54126144D01*
X89835779Y-54126144D01*
G37*
D17*
X89525000Y-54600000D03*
D16*
G36*
X91585779Y-54126144D02*
X91608834Y-54129563D01*
X91631443Y-54135227D01*
X91653387Y-54143079D01*
X91674457Y-54153044D01*
X91694448Y-54165026D01*
X91713168Y-54178910D01*
X91730438Y-54194562D01*
X91746090Y-54211832D01*
X91759974Y-54230552D01*
X91771956Y-54250543D01*
X91781921Y-54271613D01*
X91789773Y-54293557D01*
X91795437Y-54316166D01*
X91798856Y-54339221D01*
X91800000Y-54362500D01*
X91800000Y-54837500D01*
X91798856Y-54860779D01*
X91795437Y-54883834D01*
X91789773Y-54906443D01*
X91781921Y-54928387D01*
X91771956Y-54949457D01*
X91759974Y-54969448D01*
X91746090Y-54988168D01*
X91730438Y-55005438D01*
X91713168Y-55021090D01*
X91694448Y-55034974D01*
X91674457Y-55046956D01*
X91653387Y-55056921D01*
X91631443Y-55064773D01*
X91608834Y-55070437D01*
X91585779Y-55073856D01*
X91562500Y-55075000D01*
X90987500Y-55075000D01*
X90964221Y-55073856D01*
X90941166Y-55070437D01*
X90918557Y-55064773D01*
X90896613Y-55056921D01*
X90875543Y-55046956D01*
X90855552Y-55034974D01*
X90836832Y-55021090D01*
X90819562Y-55005438D01*
X90803910Y-54988168D01*
X90790026Y-54969448D01*
X90778044Y-54949457D01*
X90768079Y-54928387D01*
X90760227Y-54906443D01*
X90754563Y-54883834D01*
X90751144Y-54860779D01*
X90750000Y-54837500D01*
X90750000Y-54362500D01*
X90751144Y-54339221D01*
X90754563Y-54316166D01*
X90760227Y-54293557D01*
X90768079Y-54271613D01*
X90778044Y-54250543D01*
X90790026Y-54230552D01*
X90803910Y-54211832D01*
X90819562Y-54194562D01*
X90836832Y-54178910D01*
X90855552Y-54165026D01*
X90875543Y-54153044D01*
X90896613Y-54143079D01*
X90918557Y-54135227D01*
X90941166Y-54129563D01*
X90964221Y-54126144D01*
X90987500Y-54125000D01*
X91562500Y-54125000D01*
X91585779Y-54126144D01*
X91585779Y-54126144D01*
G37*
D17*
X91275000Y-54600000D03*
G04 #@! TD*
D16*
G04 #@! TO.C,C15*
G36*
X86074505Y-46801204D02*
X86098773Y-46804804D01*
X86122572Y-46810765D01*
X86145671Y-46819030D01*
X86167850Y-46829520D01*
X86188893Y-46842132D01*
X86208599Y-46856747D01*
X86226777Y-46873223D01*
X86243253Y-46891401D01*
X86257868Y-46911107D01*
X86270480Y-46932150D01*
X86280970Y-46954329D01*
X86289235Y-46977428D01*
X86295196Y-47001227D01*
X86298796Y-47025495D01*
X86300000Y-47049999D01*
X86300000Y-47700001D01*
X86298796Y-47724505D01*
X86295196Y-47748773D01*
X86289235Y-47772572D01*
X86280970Y-47795671D01*
X86270480Y-47817850D01*
X86257868Y-47838893D01*
X86243253Y-47858599D01*
X86226777Y-47876777D01*
X86208599Y-47893253D01*
X86188893Y-47907868D01*
X86167850Y-47920480D01*
X86145671Y-47930970D01*
X86122572Y-47939235D01*
X86098773Y-47945196D01*
X86074505Y-47948796D01*
X86050001Y-47950000D01*
X85149999Y-47950000D01*
X85125495Y-47948796D01*
X85101227Y-47945196D01*
X85077428Y-47939235D01*
X85054329Y-47930970D01*
X85032150Y-47920480D01*
X85011107Y-47907868D01*
X84991401Y-47893253D01*
X84973223Y-47876777D01*
X84956747Y-47858599D01*
X84942132Y-47838893D01*
X84929520Y-47817850D01*
X84919030Y-47795671D01*
X84910765Y-47772572D01*
X84904804Y-47748773D01*
X84901204Y-47724505D01*
X84900000Y-47700001D01*
X84900000Y-47049999D01*
X84901204Y-47025495D01*
X84904804Y-47001227D01*
X84910765Y-46977428D01*
X84919030Y-46954329D01*
X84929520Y-46932150D01*
X84942132Y-46911107D01*
X84956747Y-46891401D01*
X84973223Y-46873223D01*
X84991401Y-46856747D01*
X85011107Y-46842132D01*
X85032150Y-46829520D01*
X85054329Y-46819030D01*
X85077428Y-46810765D01*
X85101227Y-46804804D01*
X85125495Y-46801204D01*
X85149999Y-46800000D01*
X86050001Y-46800000D01*
X86074505Y-46801204D01*
X86074505Y-46801204D01*
G37*
D24*
X85600000Y-47375000D03*
D16*
G36*
X86074505Y-48851204D02*
X86098773Y-48854804D01*
X86122572Y-48860765D01*
X86145671Y-48869030D01*
X86167850Y-48879520D01*
X86188893Y-48892132D01*
X86208599Y-48906747D01*
X86226777Y-48923223D01*
X86243253Y-48941401D01*
X86257868Y-48961107D01*
X86270480Y-48982150D01*
X86280970Y-49004329D01*
X86289235Y-49027428D01*
X86295196Y-49051227D01*
X86298796Y-49075495D01*
X86300000Y-49099999D01*
X86300000Y-49750001D01*
X86298796Y-49774505D01*
X86295196Y-49798773D01*
X86289235Y-49822572D01*
X86280970Y-49845671D01*
X86270480Y-49867850D01*
X86257868Y-49888893D01*
X86243253Y-49908599D01*
X86226777Y-49926777D01*
X86208599Y-49943253D01*
X86188893Y-49957868D01*
X86167850Y-49970480D01*
X86145671Y-49980970D01*
X86122572Y-49989235D01*
X86098773Y-49995196D01*
X86074505Y-49998796D01*
X86050001Y-50000000D01*
X85149999Y-50000000D01*
X85125495Y-49998796D01*
X85101227Y-49995196D01*
X85077428Y-49989235D01*
X85054329Y-49980970D01*
X85032150Y-49970480D01*
X85011107Y-49957868D01*
X84991401Y-49943253D01*
X84973223Y-49926777D01*
X84956747Y-49908599D01*
X84942132Y-49888893D01*
X84929520Y-49867850D01*
X84919030Y-49845671D01*
X84910765Y-49822572D01*
X84904804Y-49798773D01*
X84901204Y-49774505D01*
X84900000Y-49750001D01*
X84900000Y-49099999D01*
X84901204Y-49075495D01*
X84904804Y-49051227D01*
X84910765Y-49027428D01*
X84919030Y-49004329D01*
X84929520Y-48982150D01*
X84942132Y-48961107D01*
X84956747Y-48941401D01*
X84973223Y-48923223D01*
X84991401Y-48906747D01*
X85011107Y-48892132D01*
X85032150Y-48879520D01*
X85054329Y-48869030D01*
X85077428Y-48860765D01*
X85101227Y-48854804D01*
X85125495Y-48851204D01*
X85149999Y-48850000D01*
X86050001Y-48850000D01*
X86074505Y-48851204D01*
X86074505Y-48851204D01*
G37*
D24*
X85600000Y-49425000D03*
G04 #@! TD*
D16*
G04 #@! TO.C,C16*
G36*
X44474505Y-47076204D02*
X44498773Y-47079804D01*
X44522572Y-47085765D01*
X44545671Y-47094030D01*
X44567850Y-47104520D01*
X44588893Y-47117132D01*
X44608599Y-47131747D01*
X44626777Y-47148223D01*
X44643253Y-47166401D01*
X44657868Y-47186107D01*
X44670480Y-47207150D01*
X44680970Y-47229329D01*
X44689235Y-47252428D01*
X44695196Y-47276227D01*
X44698796Y-47300495D01*
X44700000Y-47324999D01*
X44700000Y-47975001D01*
X44698796Y-47999505D01*
X44695196Y-48023773D01*
X44689235Y-48047572D01*
X44680970Y-48070671D01*
X44670480Y-48092850D01*
X44657868Y-48113893D01*
X44643253Y-48133599D01*
X44626777Y-48151777D01*
X44608599Y-48168253D01*
X44588893Y-48182868D01*
X44567850Y-48195480D01*
X44545671Y-48205970D01*
X44522572Y-48214235D01*
X44498773Y-48220196D01*
X44474505Y-48223796D01*
X44450001Y-48225000D01*
X43549999Y-48225000D01*
X43525495Y-48223796D01*
X43501227Y-48220196D01*
X43477428Y-48214235D01*
X43454329Y-48205970D01*
X43432150Y-48195480D01*
X43411107Y-48182868D01*
X43391401Y-48168253D01*
X43373223Y-48151777D01*
X43356747Y-48133599D01*
X43342132Y-48113893D01*
X43329520Y-48092850D01*
X43319030Y-48070671D01*
X43310765Y-48047572D01*
X43304804Y-48023773D01*
X43301204Y-47999505D01*
X43300000Y-47975001D01*
X43300000Y-47324999D01*
X43301204Y-47300495D01*
X43304804Y-47276227D01*
X43310765Y-47252428D01*
X43319030Y-47229329D01*
X43329520Y-47207150D01*
X43342132Y-47186107D01*
X43356747Y-47166401D01*
X43373223Y-47148223D01*
X43391401Y-47131747D01*
X43411107Y-47117132D01*
X43432150Y-47104520D01*
X43454329Y-47094030D01*
X43477428Y-47085765D01*
X43501227Y-47079804D01*
X43525495Y-47076204D01*
X43549999Y-47075000D01*
X44450001Y-47075000D01*
X44474505Y-47076204D01*
X44474505Y-47076204D01*
G37*
D24*
X44000000Y-47650000D03*
D16*
G36*
X44474505Y-49126204D02*
X44498773Y-49129804D01*
X44522572Y-49135765D01*
X44545671Y-49144030D01*
X44567850Y-49154520D01*
X44588893Y-49167132D01*
X44608599Y-49181747D01*
X44626777Y-49198223D01*
X44643253Y-49216401D01*
X44657868Y-49236107D01*
X44670480Y-49257150D01*
X44680970Y-49279329D01*
X44689235Y-49302428D01*
X44695196Y-49326227D01*
X44698796Y-49350495D01*
X44700000Y-49374999D01*
X44700000Y-50025001D01*
X44698796Y-50049505D01*
X44695196Y-50073773D01*
X44689235Y-50097572D01*
X44680970Y-50120671D01*
X44670480Y-50142850D01*
X44657868Y-50163893D01*
X44643253Y-50183599D01*
X44626777Y-50201777D01*
X44608599Y-50218253D01*
X44588893Y-50232868D01*
X44567850Y-50245480D01*
X44545671Y-50255970D01*
X44522572Y-50264235D01*
X44498773Y-50270196D01*
X44474505Y-50273796D01*
X44450001Y-50275000D01*
X43549999Y-50275000D01*
X43525495Y-50273796D01*
X43501227Y-50270196D01*
X43477428Y-50264235D01*
X43454329Y-50255970D01*
X43432150Y-50245480D01*
X43411107Y-50232868D01*
X43391401Y-50218253D01*
X43373223Y-50201777D01*
X43356747Y-50183599D01*
X43342132Y-50163893D01*
X43329520Y-50142850D01*
X43319030Y-50120671D01*
X43310765Y-50097572D01*
X43304804Y-50073773D01*
X43301204Y-50049505D01*
X43300000Y-50025001D01*
X43300000Y-49374999D01*
X43301204Y-49350495D01*
X43304804Y-49326227D01*
X43310765Y-49302428D01*
X43319030Y-49279329D01*
X43329520Y-49257150D01*
X43342132Y-49236107D01*
X43356747Y-49216401D01*
X43373223Y-49198223D01*
X43391401Y-49181747D01*
X43411107Y-49167132D01*
X43432150Y-49154520D01*
X43454329Y-49144030D01*
X43477428Y-49135765D01*
X43501227Y-49129804D01*
X43525495Y-49126204D01*
X43549999Y-49125000D01*
X44450001Y-49125000D01*
X44474505Y-49126204D01*
X44474505Y-49126204D01*
G37*
D24*
X44000000Y-49700000D03*
G04 #@! TD*
D16*
G04 #@! TO.C,D5*
G36*
X94435779Y-22526144D02*
X94458834Y-22529563D01*
X94481443Y-22535227D01*
X94503387Y-22543079D01*
X94524457Y-22553044D01*
X94544448Y-22565026D01*
X94563168Y-22578910D01*
X94580438Y-22594562D01*
X94596090Y-22611832D01*
X94609974Y-22630552D01*
X94621956Y-22650543D01*
X94631921Y-22671613D01*
X94639773Y-22693557D01*
X94645437Y-22716166D01*
X94648856Y-22739221D01*
X94650000Y-22762500D01*
X94650000Y-23237500D01*
X94648856Y-23260779D01*
X94645437Y-23283834D01*
X94639773Y-23306443D01*
X94631921Y-23328387D01*
X94621956Y-23349457D01*
X94609974Y-23369448D01*
X94596090Y-23388168D01*
X94580438Y-23405438D01*
X94563168Y-23421090D01*
X94544448Y-23434974D01*
X94524457Y-23446956D01*
X94503387Y-23456921D01*
X94481443Y-23464773D01*
X94458834Y-23470437D01*
X94435779Y-23473856D01*
X94412500Y-23475000D01*
X93837500Y-23475000D01*
X93814221Y-23473856D01*
X93791166Y-23470437D01*
X93768557Y-23464773D01*
X93746613Y-23456921D01*
X93725543Y-23446956D01*
X93705552Y-23434974D01*
X93686832Y-23421090D01*
X93669562Y-23405438D01*
X93653910Y-23388168D01*
X93640026Y-23369448D01*
X93628044Y-23349457D01*
X93618079Y-23328387D01*
X93610227Y-23306443D01*
X93604563Y-23283834D01*
X93601144Y-23260779D01*
X93600000Y-23237500D01*
X93600000Y-22762500D01*
X93601144Y-22739221D01*
X93604563Y-22716166D01*
X93610227Y-22693557D01*
X93618079Y-22671613D01*
X93628044Y-22650543D01*
X93640026Y-22630552D01*
X93653910Y-22611832D01*
X93669562Y-22594562D01*
X93686832Y-22578910D01*
X93705552Y-22565026D01*
X93725543Y-22553044D01*
X93746613Y-22543079D01*
X93768557Y-22535227D01*
X93791166Y-22529563D01*
X93814221Y-22526144D01*
X93837500Y-22525000D01*
X94412500Y-22525000D01*
X94435779Y-22526144D01*
X94435779Y-22526144D01*
G37*
D17*
X94125000Y-23000000D03*
D16*
G36*
X96185779Y-22526144D02*
X96208834Y-22529563D01*
X96231443Y-22535227D01*
X96253387Y-22543079D01*
X96274457Y-22553044D01*
X96294448Y-22565026D01*
X96313168Y-22578910D01*
X96330438Y-22594562D01*
X96346090Y-22611832D01*
X96359974Y-22630552D01*
X96371956Y-22650543D01*
X96381921Y-22671613D01*
X96389773Y-22693557D01*
X96395437Y-22716166D01*
X96398856Y-22739221D01*
X96400000Y-22762500D01*
X96400000Y-23237500D01*
X96398856Y-23260779D01*
X96395437Y-23283834D01*
X96389773Y-23306443D01*
X96381921Y-23328387D01*
X96371956Y-23349457D01*
X96359974Y-23369448D01*
X96346090Y-23388168D01*
X96330438Y-23405438D01*
X96313168Y-23421090D01*
X96294448Y-23434974D01*
X96274457Y-23446956D01*
X96253387Y-23456921D01*
X96231443Y-23464773D01*
X96208834Y-23470437D01*
X96185779Y-23473856D01*
X96162500Y-23475000D01*
X95587500Y-23475000D01*
X95564221Y-23473856D01*
X95541166Y-23470437D01*
X95518557Y-23464773D01*
X95496613Y-23456921D01*
X95475543Y-23446956D01*
X95455552Y-23434974D01*
X95436832Y-23421090D01*
X95419562Y-23405438D01*
X95403910Y-23388168D01*
X95390026Y-23369448D01*
X95378044Y-23349457D01*
X95368079Y-23328387D01*
X95360227Y-23306443D01*
X95354563Y-23283834D01*
X95351144Y-23260779D01*
X95350000Y-23237500D01*
X95350000Y-22762500D01*
X95351144Y-22739221D01*
X95354563Y-22716166D01*
X95360227Y-22693557D01*
X95368079Y-22671613D01*
X95378044Y-22650543D01*
X95390026Y-22630552D01*
X95403910Y-22611832D01*
X95419562Y-22594562D01*
X95436832Y-22578910D01*
X95455552Y-22565026D01*
X95475543Y-22553044D01*
X95496613Y-22543079D01*
X95518557Y-22535227D01*
X95541166Y-22529563D01*
X95564221Y-22526144D01*
X95587500Y-22525000D01*
X96162500Y-22525000D01*
X96185779Y-22526144D01*
X96185779Y-22526144D01*
G37*
D17*
X95875000Y-23000000D03*
G04 #@! TD*
D25*
G04 #@! TO.C,J1*
X41100000Y-22200000D03*
D16*
G36*
X40350000Y-22700000D02*
X40350000Y-22200000D01*
X40350602Y-22200000D01*
X40350602Y-22175466D01*
X40355412Y-22126635D01*
X40364984Y-22078510D01*
X40379228Y-22031555D01*
X40398005Y-21986222D01*
X40421136Y-21942949D01*
X40448396Y-21902150D01*
X40479524Y-21864221D01*
X40514221Y-21829524D01*
X40552150Y-21798396D01*
X40592949Y-21771136D01*
X40636222Y-21748005D01*
X40681555Y-21729228D01*
X40728510Y-21714984D01*
X40776635Y-21705412D01*
X40825466Y-21700602D01*
X40850000Y-21700602D01*
X40850000Y-21700000D01*
X41350000Y-21700000D01*
X41350000Y-21700602D01*
X41374534Y-21700602D01*
X41423365Y-21705412D01*
X41471490Y-21714984D01*
X41518445Y-21729228D01*
X41563778Y-21748005D01*
X41607051Y-21771136D01*
X41647850Y-21798396D01*
X41685779Y-21829524D01*
X41720476Y-21864221D01*
X41751604Y-21902150D01*
X41778864Y-21942949D01*
X41801995Y-21986222D01*
X41820772Y-22031555D01*
X41835016Y-22078510D01*
X41844588Y-22126635D01*
X41849398Y-22175466D01*
X41849398Y-22200000D01*
X41850000Y-22200000D01*
X41850000Y-22700000D01*
X40350000Y-22700000D01*
X40350000Y-22700000D01*
G37*
D25*
X41100000Y-23500000D03*
D16*
G36*
X41849398Y-23500000D02*
X41849398Y-23524534D01*
X41844588Y-23573365D01*
X41835016Y-23621490D01*
X41820772Y-23668445D01*
X41801995Y-23713778D01*
X41778864Y-23757051D01*
X41751604Y-23797850D01*
X41720476Y-23835779D01*
X41685779Y-23870476D01*
X41647850Y-23901604D01*
X41607051Y-23928864D01*
X41563778Y-23951995D01*
X41518445Y-23970772D01*
X41471490Y-23985016D01*
X41423365Y-23994588D01*
X41374534Y-23999398D01*
X41350000Y-23999398D01*
X41350000Y-24000000D01*
X40850000Y-24000000D01*
X40850000Y-23999398D01*
X40825466Y-23999398D01*
X40776635Y-23994588D01*
X40728510Y-23985016D01*
X40681555Y-23970772D01*
X40636222Y-23951995D01*
X40592949Y-23928864D01*
X40552150Y-23901604D01*
X40514221Y-23870476D01*
X40479524Y-23835779D01*
X40448396Y-23797850D01*
X40421136Y-23757051D01*
X40398005Y-23713778D01*
X40379228Y-23668445D01*
X40364984Y-23621490D01*
X40355412Y-23573365D01*
X40350602Y-23524534D01*
X40350602Y-23500000D01*
X40350000Y-23500000D01*
X40350000Y-23000000D01*
X41850000Y-23000000D01*
X41850000Y-23500000D01*
X41849398Y-23500000D01*
X41849398Y-23500000D01*
G37*
G04 #@! TD*
D26*
G04 #@! TO.C,J2*
X33500000Y-20250000D03*
X32000000Y-20250000D03*
X30500000Y-20250000D03*
X29000000Y-20250000D03*
X27500000Y-20250000D03*
G04 #@! TD*
D16*
G04 #@! TO.C,R8*
G36*
X27510779Y-25276144D02*
X27533834Y-25279563D01*
X27556443Y-25285227D01*
X27578387Y-25293079D01*
X27599457Y-25303044D01*
X27619448Y-25315026D01*
X27638168Y-25328910D01*
X27655438Y-25344562D01*
X27671090Y-25361832D01*
X27684974Y-25380552D01*
X27696956Y-25400543D01*
X27706921Y-25421613D01*
X27714773Y-25443557D01*
X27720437Y-25466166D01*
X27723856Y-25489221D01*
X27725000Y-25512500D01*
X27725000Y-26087500D01*
X27723856Y-26110779D01*
X27720437Y-26133834D01*
X27714773Y-26156443D01*
X27706921Y-26178387D01*
X27696956Y-26199457D01*
X27684974Y-26219448D01*
X27671090Y-26238168D01*
X27655438Y-26255438D01*
X27638168Y-26271090D01*
X27619448Y-26284974D01*
X27599457Y-26296956D01*
X27578387Y-26306921D01*
X27556443Y-26314773D01*
X27533834Y-26320437D01*
X27510779Y-26323856D01*
X27487500Y-26325000D01*
X27012500Y-26325000D01*
X26989221Y-26323856D01*
X26966166Y-26320437D01*
X26943557Y-26314773D01*
X26921613Y-26306921D01*
X26900543Y-26296956D01*
X26880552Y-26284974D01*
X26861832Y-26271090D01*
X26844562Y-26255438D01*
X26828910Y-26238168D01*
X26815026Y-26219448D01*
X26803044Y-26199457D01*
X26793079Y-26178387D01*
X26785227Y-26156443D01*
X26779563Y-26133834D01*
X26776144Y-26110779D01*
X26775000Y-26087500D01*
X26775000Y-25512500D01*
X26776144Y-25489221D01*
X26779563Y-25466166D01*
X26785227Y-25443557D01*
X26793079Y-25421613D01*
X26803044Y-25400543D01*
X26815026Y-25380552D01*
X26828910Y-25361832D01*
X26844562Y-25344562D01*
X26861832Y-25328910D01*
X26880552Y-25315026D01*
X26900543Y-25303044D01*
X26921613Y-25293079D01*
X26943557Y-25285227D01*
X26966166Y-25279563D01*
X26989221Y-25276144D01*
X27012500Y-25275000D01*
X27487500Y-25275000D01*
X27510779Y-25276144D01*
X27510779Y-25276144D01*
G37*
D17*
X27250000Y-25800000D03*
D16*
G36*
X27510779Y-23526144D02*
X27533834Y-23529563D01*
X27556443Y-23535227D01*
X27578387Y-23543079D01*
X27599457Y-23553044D01*
X27619448Y-23565026D01*
X27638168Y-23578910D01*
X27655438Y-23594562D01*
X27671090Y-23611832D01*
X27684974Y-23630552D01*
X27696956Y-23650543D01*
X27706921Y-23671613D01*
X27714773Y-23693557D01*
X27720437Y-23716166D01*
X27723856Y-23739221D01*
X27725000Y-23762500D01*
X27725000Y-24337500D01*
X27723856Y-24360779D01*
X27720437Y-24383834D01*
X27714773Y-24406443D01*
X27706921Y-24428387D01*
X27696956Y-24449457D01*
X27684974Y-24469448D01*
X27671090Y-24488168D01*
X27655438Y-24505438D01*
X27638168Y-24521090D01*
X27619448Y-24534974D01*
X27599457Y-24546956D01*
X27578387Y-24556921D01*
X27556443Y-24564773D01*
X27533834Y-24570437D01*
X27510779Y-24573856D01*
X27487500Y-24575000D01*
X27012500Y-24575000D01*
X26989221Y-24573856D01*
X26966166Y-24570437D01*
X26943557Y-24564773D01*
X26921613Y-24556921D01*
X26900543Y-24546956D01*
X26880552Y-24534974D01*
X26861832Y-24521090D01*
X26844562Y-24505438D01*
X26828910Y-24488168D01*
X26815026Y-24469448D01*
X26803044Y-24449457D01*
X26793079Y-24428387D01*
X26785227Y-24406443D01*
X26779563Y-24383834D01*
X26776144Y-24360779D01*
X26775000Y-24337500D01*
X26775000Y-23762500D01*
X26776144Y-23739221D01*
X26779563Y-23716166D01*
X26785227Y-23693557D01*
X26793079Y-23671613D01*
X26803044Y-23650543D01*
X26815026Y-23630552D01*
X26828910Y-23611832D01*
X26844562Y-23594562D01*
X26861832Y-23578910D01*
X26880552Y-23565026D01*
X26900543Y-23553044D01*
X26921613Y-23543079D01*
X26943557Y-23535227D01*
X26966166Y-23529563D01*
X26989221Y-23526144D01*
X27012500Y-23525000D01*
X27487500Y-23525000D01*
X27510779Y-23526144D01*
X27510779Y-23526144D01*
G37*
D17*
X27250000Y-24050000D03*
G04 #@! TD*
D16*
G04 #@! TO.C,R19*
G36*
X90435779Y-22526144D02*
X90458834Y-22529563D01*
X90481443Y-22535227D01*
X90503387Y-22543079D01*
X90524457Y-22553044D01*
X90544448Y-22565026D01*
X90563168Y-22578910D01*
X90580438Y-22594562D01*
X90596090Y-22611832D01*
X90609974Y-22630552D01*
X90621956Y-22650543D01*
X90631921Y-22671613D01*
X90639773Y-22693557D01*
X90645437Y-22716166D01*
X90648856Y-22739221D01*
X90650000Y-22762500D01*
X90650000Y-23237500D01*
X90648856Y-23260779D01*
X90645437Y-23283834D01*
X90639773Y-23306443D01*
X90631921Y-23328387D01*
X90621956Y-23349457D01*
X90609974Y-23369448D01*
X90596090Y-23388168D01*
X90580438Y-23405438D01*
X90563168Y-23421090D01*
X90544448Y-23434974D01*
X90524457Y-23446956D01*
X90503387Y-23456921D01*
X90481443Y-23464773D01*
X90458834Y-23470437D01*
X90435779Y-23473856D01*
X90412500Y-23475000D01*
X89837500Y-23475000D01*
X89814221Y-23473856D01*
X89791166Y-23470437D01*
X89768557Y-23464773D01*
X89746613Y-23456921D01*
X89725543Y-23446956D01*
X89705552Y-23434974D01*
X89686832Y-23421090D01*
X89669562Y-23405438D01*
X89653910Y-23388168D01*
X89640026Y-23369448D01*
X89628044Y-23349457D01*
X89618079Y-23328387D01*
X89610227Y-23306443D01*
X89604563Y-23283834D01*
X89601144Y-23260779D01*
X89600000Y-23237500D01*
X89600000Y-22762500D01*
X89601144Y-22739221D01*
X89604563Y-22716166D01*
X89610227Y-22693557D01*
X89618079Y-22671613D01*
X89628044Y-22650543D01*
X89640026Y-22630552D01*
X89653910Y-22611832D01*
X89669562Y-22594562D01*
X89686832Y-22578910D01*
X89705552Y-22565026D01*
X89725543Y-22553044D01*
X89746613Y-22543079D01*
X89768557Y-22535227D01*
X89791166Y-22529563D01*
X89814221Y-22526144D01*
X89837500Y-22525000D01*
X90412500Y-22525000D01*
X90435779Y-22526144D01*
X90435779Y-22526144D01*
G37*
D17*
X90125000Y-23000000D03*
D16*
G36*
X92185779Y-22526144D02*
X92208834Y-22529563D01*
X92231443Y-22535227D01*
X92253387Y-22543079D01*
X92274457Y-22553044D01*
X92294448Y-22565026D01*
X92313168Y-22578910D01*
X92330438Y-22594562D01*
X92346090Y-22611832D01*
X92359974Y-22630552D01*
X92371956Y-22650543D01*
X92381921Y-22671613D01*
X92389773Y-22693557D01*
X92395437Y-22716166D01*
X92398856Y-22739221D01*
X92400000Y-22762500D01*
X92400000Y-23237500D01*
X92398856Y-23260779D01*
X92395437Y-23283834D01*
X92389773Y-23306443D01*
X92381921Y-23328387D01*
X92371956Y-23349457D01*
X92359974Y-23369448D01*
X92346090Y-23388168D01*
X92330438Y-23405438D01*
X92313168Y-23421090D01*
X92294448Y-23434974D01*
X92274457Y-23446956D01*
X92253387Y-23456921D01*
X92231443Y-23464773D01*
X92208834Y-23470437D01*
X92185779Y-23473856D01*
X92162500Y-23475000D01*
X91587500Y-23475000D01*
X91564221Y-23473856D01*
X91541166Y-23470437D01*
X91518557Y-23464773D01*
X91496613Y-23456921D01*
X91475543Y-23446956D01*
X91455552Y-23434974D01*
X91436832Y-23421090D01*
X91419562Y-23405438D01*
X91403910Y-23388168D01*
X91390026Y-23369448D01*
X91378044Y-23349457D01*
X91368079Y-23328387D01*
X91360227Y-23306443D01*
X91354563Y-23283834D01*
X91351144Y-23260779D01*
X91350000Y-23237500D01*
X91350000Y-22762500D01*
X91351144Y-22739221D01*
X91354563Y-22716166D01*
X91360227Y-22693557D01*
X91368079Y-22671613D01*
X91378044Y-22650543D01*
X91390026Y-22630552D01*
X91403910Y-22611832D01*
X91419562Y-22594562D01*
X91436832Y-22578910D01*
X91455552Y-22565026D01*
X91475543Y-22553044D01*
X91496613Y-22543079D01*
X91518557Y-22535227D01*
X91541166Y-22529563D01*
X91564221Y-22526144D01*
X91587500Y-22525000D01*
X92162500Y-22525000D01*
X92185779Y-22526144D01*
X92185779Y-22526144D01*
G37*
D17*
X91875000Y-23000000D03*
G04 #@! TD*
D12*
G04 #@! TO.C,U8*
X83005000Y-51100000D03*
X81735000Y-51100000D03*
X80465000Y-51100000D03*
X79195000Y-51100000D03*
X79195000Y-45700000D03*
X80465000Y-45700000D03*
X81735000Y-45700000D03*
X83005000Y-45700000D03*
G04 #@! TD*
D23*
G04 #@! TO.C,P1*
X33200000Y-57800000D03*
D22*
X33200000Y-60300000D03*
G04 #@! TD*
G04 #@! TO.C,P2*
X103200000Y-57800000D03*
D23*
X103200000Y-60300000D03*
G04 #@! TD*
D27*
G04 #@! TO.C,P3*
X34200000Y-47600000D03*
D28*
X36700000Y-47600000D03*
X39200000Y-47600000D03*
G04 #@! TD*
D16*
G04 #@! TO.C,R2*
G36*
X41424505Y-50826204D02*
X41448773Y-50829804D01*
X41472572Y-50835765D01*
X41495671Y-50844030D01*
X41517850Y-50854520D01*
X41538893Y-50867132D01*
X41558599Y-50881747D01*
X41576777Y-50898223D01*
X41593253Y-50916401D01*
X41607868Y-50936107D01*
X41620480Y-50957150D01*
X41630970Y-50979329D01*
X41639235Y-51002428D01*
X41645196Y-51026227D01*
X41648796Y-51050495D01*
X41650000Y-51074999D01*
X41650000Y-53925001D01*
X41648796Y-53949505D01*
X41645196Y-53973773D01*
X41639235Y-53997572D01*
X41630970Y-54020671D01*
X41620480Y-54042850D01*
X41607868Y-54063893D01*
X41593253Y-54083599D01*
X41576777Y-54101777D01*
X41558599Y-54118253D01*
X41538893Y-54132868D01*
X41517850Y-54145480D01*
X41495671Y-54155970D01*
X41472572Y-54164235D01*
X41448773Y-54170196D01*
X41424505Y-54173796D01*
X41400001Y-54175000D01*
X40374999Y-54175000D01*
X40350495Y-54173796D01*
X40326227Y-54170196D01*
X40302428Y-54164235D01*
X40279329Y-54155970D01*
X40257150Y-54145480D01*
X40236107Y-54132868D01*
X40216401Y-54118253D01*
X40198223Y-54101777D01*
X40181747Y-54083599D01*
X40167132Y-54063893D01*
X40154520Y-54042850D01*
X40144030Y-54020671D01*
X40135765Y-53997572D01*
X40129804Y-53973773D01*
X40126204Y-53949505D01*
X40125000Y-53925001D01*
X40125000Y-51074999D01*
X40126204Y-51050495D01*
X40129804Y-51026227D01*
X40135765Y-51002428D01*
X40144030Y-50979329D01*
X40154520Y-50957150D01*
X40167132Y-50936107D01*
X40181747Y-50916401D01*
X40198223Y-50898223D01*
X40216401Y-50881747D01*
X40236107Y-50867132D01*
X40257150Y-50854520D01*
X40279329Y-50844030D01*
X40302428Y-50835765D01*
X40326227Y-50829804D01*
X40350495Y-50826204D01*
X40374999Y-50825000D01*
X41400001Y-50825000D01*
X41424505Y-50826204D01*
X41424505Y-50826204D01*
G37*
D29*
X40887500Y-52500000D03*
D16*
G36*
X35449505Y-50826204D02*
X35473773Y-50829804D01*
X35497572Y-50835765D01*
X35520671Y-50844030D01*
X35542850Y-50854520D01*
X35563893Y-50867132D01*
X35583599Y-50881747D01*
X35601777Y-50898223D01*
X35618253Y-50916401D01*
X35632868Y-50936107D01*
X35645480Y-50957150D01*
X35655970Y-50979329D01*
X35664235Y-51002428D01*
X35670196Y-51026227D01*
X35673796Y-51050495D01*
X35675000Y-51074999D01*
X35675000Y-53925001D01*
X35673796Y-53949505D01*
X35670196Y-53973773D01*
X35664235Y-53997572D01*
X35655970Y-54020671D01*
X35645480Y-54042850D01*
X35632868Y-54063893D01*
X35618253Y-54083599D01*
X35601777Y-54101777D01*
X35583599Y-54118253D01*
X35563893Y-54132868D01*
X35542850Y-54145480D01*
X35520671Y-54155970D01*
X35497572Y-54164235D01*
X35473773Y-54170196D01*
X35449505Y-54173796D01*
X35425001Y-54175000D01*
X34399999Y-54175000D01*
X34375495Y-54173796D01*
X34351227Y-54170196D01*
X34327428Y-54164235D01*
X34304329Y-54155970D01*
X34282150Y-54145480D01*
X34261107Y-54132868D01*
X34241401Y-54118253D01*
X34223223Y-54101777D01*
X34206747Y-54083599D01*
X34192132Y-54063893D01*
X34179520Y-54042850D01*
X34169030Y-54020671D01*
X34160765Y-53997572D01*
X34154804Y-53973773D01*
X34151204Y-53949505D01*
X34150000Y-53925001D01*
X34150000Y-51074999D01*
X34151204Y-51050495D01*
X34154804Y-51026227D01*
X34160765Y-51002428D01*
X34169030Y-50979329D01*
X34179520Y-50957150D01*
X34192132Y-50936107D01*
X34206747Y-50916401D01*
X34223223Y-50898223D01*
X34241401Y-50881747D01*
X34261107Y-50867132D01*
X34282150Y-50854520D01*
X34304329Y-50844030D01*
X34327428Y-50835765D01*
X34351227Y-50829804D01*
X34375495Y-50826204D01*
X34399999Y-50825000D01*
X35425001Y-50825000D01*
X35449505Y-50826204D01*
X35449505Y-50826204D01*
G37*
D29*
X34912500Y-52500000D03*
G04 #@! TD*
D30*
G04 #@! TO.C,SW1*
X27700000Y-61500000D03*
X27700000Y-53100000D03*
D31*
X27700000Y-59300000D03*
X27700000Y-57300000D03*
X27700000Y-55300000D03*
G04 #@! TD*
D32*
G04 #@! TO.C,U1*
X64500000Y-37850000D03*
D33*
X64500000Y-44150000D03*
X62200000Y-44150000D03*
X66800000Y-44150000D03*
G04 #@! TD*
D34*
G04 #@! TO.C,U2*
X91350000Y-52900000D03*
X89450000Y-52900000D03*
X90400000Y-50900000D03*
G04 #@! TD*
M02*
